<?xml version="1.0" encoding="UTF-8"?>
<svg xmlns="http://www.w3.org/2000/svg" xmlns:xlink="http://www.w3.org/1999/xlink" width="720pt" height="396pt" viewBox="0 0 720 396">
<defs>
<g>
<g id="glyph-0-0">
<path d="M 0.464844 -3.953125 C 0.460938 -4.898438 0.558594 -5.660156 0.757812 -6.242188 C 0.949219 -6.816406 1.238281 -7.261719 1.625 -7.578125 C 2.007812 -7.890625 2.492188 -8.050781 3.078125 -8.050781 C 3.503906 -8.050781 3.882812 -7.960938 4.210938 -7.789062 C 4.535156 -7.613281 4.804688 -7.363281 5.015625 -7.039062 C 5.226562 -6.710938 5.390625 -6.316406 5.511719 -5.847656 C 5.628906 -5.378906 5.6875 -4.746094 5.691406 -3.953125 C 5.6875 -3.011719 5.59375 -2.253906 5.402344 -1.675781 C 5.207031 -1.097656 4.917969 -0.648438 4.535156 -0.335938 C 4.152344 -0.0195312 3.664062 0.132812 3.078125 0.136719 C 2.300781 0.132812 1.695312 -0.140625 1.257812 -0.695312 C 0.726562 -1.359375 0.460938 -2.445312 0.464844 -3.953125 Z M 1.476562 -3.953125 C 1.476562 -2.636719 1.628906 -1.761719 1.9375 -1.324219 C 2.246094 -0.886719 2.625 -0.667969 3.078125 -0.671875 C 3.527344 -0.667969 3.910156 -0.886719 4.21875 -1.328125 C 4.523438 -1.761719 4.675781 -2.636719 4.679688 -3.953125 C 4.675781 -5.269531 4.523438 -6.144531 4.21875 -6.582031 C 3.910156 -7.011719 3.523438 -7.230469 3.066406 -7.234375 C 2.613281 -7.230469 2.253906 -7.039062 1.984375 -6.660156 C 1.644531 -6.171875 1.476562 -5.269531 1.476562 -3.953125 Z M 1.476562 -3.953125 "/>
</g>
<g id="glyph-0-1">
<path d="M 0.46875 -2.117188 L 1.453125 -2.246094 C 1.566406 -1.683594 1.757812 -1.28125 2.03125 -1.039062 C 2.300781 -0.789062 2.632812 -0.667969 3.023438 -0.671875 C 3.484375 -0.667969 3.875 -0.828125 4.195312 -1.152344 C 4.515625 -1.472656 4.675781 -1.871094 4.675781 -2.347656 C 4.675781 -2.796875 4.527344 -3.167969 4.230469 -3.464844 C 3.933594 -3.753906 3.558594 -3.902344 3.105469 -3.90625 C 2.917969 -3.902344 2.683594 -3.867188 2.410156 -3.796875 L 2.519531 -4.660156 C 2.585938 -4.648438 2.636719 -4.644531 2.679688 -4.648438 C 3.09375 -4.644531 3.472656 -4.753906 3.8125 -4.976562 C 4.144531 -5.191406 4.3125 -5.53125 4.316406 -5.988281 C 4.3125 -6.347656 4.191406 -6.644531 3.949219 -6.886719 C 3.703125 -7.121094 3.386719 -7.242188 3.003906 -7.242188 C 2.617188 -7.242188 2.296875 -7.121094 2.046875 -6.878906 C 1.789062 -6.636719 1.625 -6.273438 1.554688 -5.796875 L 0.570312 -5.972656 C 0.6875 -6.628906 0.960938 -7.140625 1.386719 -7.503906 C 1.8125 -7.867188 2.34375 -8.050781 2.980469 -8.050781 C 3.414062 -8.050781 3.816406 -7.957031 4.1875 -7.769531 C 4.554688 -7.582031 4.835938 -7.324219 5.035156 -7 C 5.226562 -6.671875 5.324219 -6.328125 5.328125 -5.964844 C 5.324219 -5.617188 5.230469 -5.300781 5.046875 -5.019531 C 4.859375 -4.734375 4.585938 -4.507812 4.222656 -4.34375 C 4.695312 -4.230469 5.0625 -4.003906 5.324219 -3.660156 C 5.585938 -3.3125 5.71875 -2.882812 5.71875 -2.367188 C 5.71875 -1.664062 5.460938 -1.070312 4.953125 -0.585938 C 4.4375 -0.101562 3.792969 0.140625 3.019531 0.140625 C 2.3125 0.140625 1.730469 -0.0664062 1.265625 -0.488281 C 0.800781 -0.902344 0.535156 -1.445312 0.46875 -2.117188 Z M 0.46875 -2.117188 "/>
</g>
<g id="glyph-0-2">
<path d="M 5.574219 -6.054688 L 4.59375 -5.976562 C 4.503906 -6.363281 4.378906 -6.644531 4.222656 -6.820312 C 3.953125 -7.101562 3.625 -7.242188 3.238281 -7.242188 C 2.921875 -7.242188 2.644531 -7.152344 2.410156 -6.976562 C 2.097656 -6.75 1.855469 -6.421875 1.675781 -5.988281 C 1.496094 -5.550781 1.402344 -4.929688 1.398438 -4.132812 C 1.632812 -4.492188 1.921875 -4.761719 2.269531 -4.9375 C 2.609375 -5.109375 2.96875 -5.195312 3.347656 -5.199219 C 4 -5.195312 4.558594 -4.953125 5.023438 -4.472656 C 5.480469 -3.988281 5.710938 -3.367188 5.714844 -2.601562 C 5.710938 -2.097656 5.601562 -1.628906 5.386719 -1.199219 C 5.167969 -0.765625 4.871094 -0.433594 4.492188 -0.207031 C 4.113281 0.0234375 3.683594 0.132812 3.203125 0.136719 C 2.378906 0.132812 1.710938 -0.164062 1.195312 -0.765625 C 0.679688 -1.367188 0.421875 -2.363281 0.421875 -3.75 C 0.421875 -5.296875 0.707031 -6.421875 1.28125 -7.132812 C 1.777344 -7.742188 2.449219 -8.050781 3.296875 -8.050781 C 3.925781 -8.050781 4.441406 -7.871094 4.847656 -7.519531 C 5.246094 -7.160156 5.488281 -6.671875 5.574219 -6.054688 Z M 1.554688 -2.597656 C 1.550781 -2.253906 1.625 -1.929688 1.769531 -1.625 C 1.910156 -1.3125 2.109375 -1.078125 2.371094 -0.914062 C 2.628906 -0.75 2.902344 -0.667969 3.1875 -0.671875 C 3.601562 -0.667969 3.957031 -0.835938 4.257812 -1.175781 C 4.554688 -1.507812 4.703125 -1.964844 4.707031 -2.542969 C 4.703125 -3.097656 4.558594 -3.53125 4.265625 -3.851562 C 3.96875 -4.167969 3.59375 -4.328125 3.148438 -4.332031 C 2.703125 -4.328125 2.328125 -4.167969 2.019531 -3.851562 C 1.707031 -3.53125 1.550781 -3.113281 1.554688 -2.597656 Z M 1.554688 -2.597656 "/>
</g>
<g id="glyph-0-3">
<path d="M 0.613281 -1.855469 L 1.558594 -1.941406 C 1.636719 -1.492188 1.789062 -1.171875 2.015625 -0.972656 C 2.242188 -0.769531 2.53125 -0.667969 2.886719 -0.671875 C 3.1875 -0.667969 3.453125 -0.738281 3.679688 -0.878906 C 3.90625 -1.019531 4.09375 -1.203125 4.242188 -1.433594 C 4.386719 -1.664062 4.507812 -1.976562 4.609375 -2.371094 C 4.707031 -2.765625 4.757812 -3.167969 4.757812 -3.578125 C 4.757812 -3.617188 4.753906 -3.683594 4.753906 -3.773438 C 4.550781 -3.460938 4.28125 -3.207031 3.945312 -3.011719 C 3.601562 -2.816406 3.234375 -2.71875 2.839844 -2.71875 C 2.171875 -2.71875 1.609375 -2.957031 1.152344 -3.4375 C 0.691406 -3.917969 0.460938 -4.554688 0.464844 -5.34375 C 0.460938 -6.15625 0.703125 -6.808594 1.183594 -7.304688 C 1.660156 -7.800781 2.257812 -8.050781 2.984375 -8.050781 C 3.503906 -8.050781 3.980469 -7.910156 4.414062 -7.628906 C 4.84375 -7.347656 5.171875 -6.945312 5.398438 -6.425781 C 5.621094 -5.90625 5.734375 -5.15625 5.738281 -4.171875 C 5.734375 -3.148438 5.625 -2.332031 5.402344 -1.726562 C 5.179688 -1.117188 4.847656 -0.65625 4.410156 -0.339844 C 3.96875 -0.0234375 3.453125 0.132812 2.867188 0.136719 C 2.234375 0.132812 1.722656 -0.0351562 1.328125 -0.382812 C 0.929688 -0.726562 0.691406 -1.21875 0.613281 -1.855469 Z M 4.644531 -5.390625 C 4.640625 -5.953125 4.488281 -6.398438 4.191406 -6.734375 C 3.886719 -7.0625 3.527344 -7.230469 3.105469 -7.234375 C 2.667969 -7.230469 2.285156 -7.050781 1.960938 -6.699219 C 1.636719 -6.339844 1.476562 -5.878906 1.476562 -5.308594 C 1.476562 -4.796875 1.628906 -4.378906 1.9375 -4.0625 C 2.246094 -3.742188 2.625 -3.585938 3.078125 -3.585938 C 3.53125 -3.585938 3.90625 -3.742188 4.203125 -4.0625 C 4.492188 -4.378906 4.640625 -4.824219 4.644531 -5.390625 Z M 4.644531 -5.390625 "/>
</g>
<g id="glyph-0-4">
<path d="M 4.171875 0 L 3.1875 0 L 3.1875 -6.273438 C 2.949219 -6.042969 2.636719 -5.816406 2.253906 -5.59375 C 1.867188 -5.363281 1.523438 -5.195312 1.21875 -5.085938 L 1.21875 -6.039062 C 1.769531 -6.292969 2.25 -6.605469 2.664062 -6.976562 C 3.074219 -7.34375 3.367188 -7.703125 3.539062 -8.050781 L 4.171875 -8.050781 Z M 4.171875 0 "/>
</g>
<g id="glyph-0-5">
<path d="M 5.636719 -0.945312 L 5.636719 0 L 0.339844 0 C 0.332031 -0.234375 0.367188 -0.460938 0.453125 -0.683594 C 0.585938 -1.042969 0.804688 -1.398438 1.101562 -1.75 C 1.398438 -2.097656 1.828125 -2.503906 2.390625 -2.964844 C 3.257812 -3.675781 3.84375 -4.238281 4.15625 -4.660156 C 4.460938 -5.074219 4.617188 -5.472656 4.617188 -5.847656 C 4.617188 -6.234375 4.476562 -6.5625 4.195312 -6.832031 C 3.914062 -7.097656 3.550781 -7.230469 3.105469 -7.234375 C 2.628906 -7.230469 2.25 -7.089844 1.96875 -6.808594 C 1.683594 -6.523438 1.539062 -6.128906 1.535156 -5.628906 L 0.523438 -5.730469 C 0.589844 -6.484375 0.851562 -7.058594 1.304688 -7.457031 C 1.753906 -7.851562 2.363281 -8.050781 3.128906 -8.050781 C 3.894531 -8.050781 4.5 -7.835938 4.953125 -7.410156 C 5.398438 -6.980469 5.625 -6.453125 5.628906 -5.824219 C 5.625 -5.503906 5.558594 -5.1875 5.429688 -4.878906 C 5.296875 -4.566406 5.078125 -4.238281 4.777344 -3.898438 C 4.46875 -3.554688 3.964844 -3.085938 3.257812 -2.488281 C 2.667969 -1.992188 2.289062 -1.65625 2.121094 -1.480469 C 1.953125 -1.300781 1.8125 -1.121094 1.707031 -0.945312 Z M 5.636719 -0.945312 "/>
</g>
<g id="glyph-0-6">
<path d="M 1.015625 0 L 1.015625 -1.121094 L 2.136719 -1.121094 L 2.136719 0 Z M 1.015625 0 "/>
</g>
<g id="glyph-0-7">
<path d="M 0.464844 -2.101562 L 1.5 -2.1875 C 1.574219 -1.679688 1.75 -1.300781 2.03125 -1.050781 C 2.308594 -0.792969 2.644531 -0.667969 3.039062 -0.671875 C 3.511719 -0.667969 3.914062 -0.847656 4.242188 -1.207031 C 4.570312 -1.566406 4.734375 -2.039062 4.734375 -2.628906 C 4.734375 -3.1875 4.574219 -3.628906 4.261719 -3.957031 C 3.941406 -4.277344 3.53125 -4.441406 3.023438 -4.445312 C 2.703125 -4.441406 2.414062 -4.371094 2.164062 -4.230469 C 1.90625 -4.085938 1.707031 -3.898438 1.5625 -3.667969 L 0.640625 -3.789062 L 1.417969 -7.90625 L 5.402344 -7.90625 L 5.402344 -6.96875 L 2.203125 -6.96875 L 1.773438 -4.8125 C 2.25 -5.144531 2.753906 -5.3125 3.285156 -5.316406 C 3.984375 -5.3125 4.574219 -5.070312 5.058594 -4.585938 C 5.535156 -4.097656 5.777344 -3.476562 5.78125 -2.71875 C 5.777344 -1.992188 5.566406 -1.363281 5.144531 -0.835938 C 4.628906 -0.1875 3.925781 0.132812 3.039062 0.136719 C 2.308594 0.132812 1.714844 -0.0664062 1.253906 -0.476562 C 0.792969 -0.882812 0.527344 -1.425781 0.464844 -2.101562 Z M 0.464844 -2.101562 "/>
</g>
<g id="glyph-0-8">
<path d="M 0.53125 -6.96875 L 0.53125 -7.914062 L 5.71875 -7.914062 L 5.71875 -7.148438 C 5.207031 -6.601562 4.699219 -5.878906 4.199219 -4.980469 C 3.695312 -4.082031 3.308594 -3.15625 3.039062 -2.203125 C 2.839844 -1.53125 2.714844 -0.796875 2.664062 0 L 1.652344 0 C 1.660156 -0.628906 1.78125 -1.390625 2.023438 -2.285156 C 2.257812 -3.175781 2.597656 -4.035156 3.042969 -4.867188 C 3.480469 -5.695312 3.953125 -6.394531 4.457031 -6.96875 Z M 0.53125 -6.96875 "/>
</g>
<g id="glyph-1-0">
<path d="M 1.109375 0 L 1.109375 -10.023438 L 8.351562 -10.023438 L 8.351562 -8.839844 L 2.433594 -8.839844 L 2.433594 -5.769531 L 7.976562 -5.769531 L 7.976562 -4.59375 L 2.433594 -4.59375 L 2.433594 -1.183594 L 8.585938 -1.183594 L 8.585938 0 Z M 1.109375 0 "/>
</g>
<g id="glyph-1-1">
<path d="M 0.429688 -2.167969 L 1.648438 -2.359375 C 1.710938 -1.867188 1.902344 -1.492188 2.21875 -1.234375 C 2.527344 -0.972656 2.964844 -0.84375 3.527344 -0.847656 C 4.089844 -0.84375 4.507812 -0.957031 4.785156 -1.191406 C 5.054688 -1.417969 5.191406 -1.691406 5.195312 -2.003906 C 5.191406 -2.28125 5.070312 -2.5 4.832031 -2.660156 C 4.660156 -2.769531 4.242188 -2.90625 3.574219 -3.078125 C 2.671875 -3.300781 2.046875 -3.5 1.699219 -3.667969 C 1.347656 -3.832031 1.082031 -4.058594 0.90625 -4.355469 C 0.722656 -4.644531 0.632812 -4.972656 0.636719 -5.332031 C 0.632812 -5.652344 0.707031 -5.949219 0.855469 -6.230469 C 1.003906 -6.503906 1.203125 -6.734375 1.460938 -6.917969 C 1.648438 -7.054688 1.910156 -7.171875 2.246094 -7.273438 C 2.574219 -7.367188 2.929688 -7.417969 3.308594 -7.421875 C 3.875 -7.417969 4.375 -7.335938 4.808594 -7.175781 C 5.234375 -7.007812 5.550781 -6.785156 5.761719 -6.507812 C 5.964844 -6.226562 6.109375 -5.851562 6.1875 -5.386719 L 4.984375 -5.222656 C 4.925781 -5.589844 4.765625 -5.882812 4.507812 -6.097656 C 4.242188 -6.304688 3.875 -6.410156 3.398438 -6.414062 C 2.832031 -6.410156 2.425781 -6.316406 2.1875 -6.132812 C 1.941406 -5.941406 1.820312 -5.722656 1.824219 -5.476562 C 1.820312 -5.3125 1.871094 -5.167969 1.976562 -5.046875 C 2.070312 -4.910156 2.226562 -4.800781 2.445312 -4.71875 C 2.566406 -4.667969 2.929688 -4.5625 3.535156 -4.402344 C 4.402344 -4.167969 5.011719 -3.980469 5.355469 -3.832031 C 5.699219 -3.683594 5.96875 -3.464844 6.164062 -3.183594 C 6.359375 -2.898438 6.457031 -2.550781 6.460938 -2.132812 C 6.457031 -1.71875 6.335938 -1.332031 6.101562 -0.972656 C 5.859375 -0.609375 5.515625 -0.328125 5.066406 -0.132812 C 4.613281 0.0664062 4.101562 0.164062 3.535156 0.164062 C 2.585938 0.164062 1.867188 -0.03125 1.375 -0.421875 C 0.878906 -0.8125 0.5625 -1.394531 0.429688 -2.167969 Z M 0.429688 -2.167969 "/>
</g>
<g id="glyph-1-2">
<path d="M 3.609375 -1.101562 L 3.789062 -0.015625 C 3.4375 0.0585938 3.128906 0.09375 2.859375 0.09375 C 2.410156 0.09375 2.0625 0.0234375 1.816406 -0.117188 C 1.570312 -0.257812 1.394531 -0.441406 1.296875 -0.671875 C 1.195312 -0.902344 1.148438 -1.386719 1.148438 -2.125 L 1.148438 -6.304688 L 0.246094 -6.304688 L 0.246094 -7.257812 L 1.148438 -7.257812 L 1.148438 -9.058594 L 2.371094 -9.796875 L 2.371094 -7.257812 L 3.609375 -7.257812 L 3.609375 -6.304688 L 2.371094 -6.304688 L 2.371094 -2.058594 C 2.367188 -1.703125 2.386719 -1.476562 2.433594 -1.378906 C 2.472656 -1.277344 2.546875 -1.199219 2.648438 -1.140625 C 2.746094 -1.082031 2.886719 -1.054688 3.070312 -1.054688 C 3.203125 -1.054688 3.382812 -1.070312 3.609375 -1.101562 Z M 3.609375 -1.101562 "/>
</g>
<g id="glyph-1-3">
<path d="M 0.929688 -8.605469 L 0.929688 -10.023438 L 2.160156 -10.023438 L 2.160156 -8.605469 Z M 0.929688 0 L 0.929688 -7.257812 L 2.160156 -7.257812 L 2.160156 0 Z M 0.929688 0 "/>
</g>
<g id="glyph-1-4">
<path d="M 0.921875 0 L 0.921875 -7.257812 L 2.023438 -7.257812 L 2.023438 -6.242188 C 2.25 -6.59375 2.554688 -6.878906 2.933594 -7.097656 C 3.308594 -7.308594 3.738281 -7.417969 4.226562 -7.421875 C 4.757812 -7.417969 5.199219 -7.304688 5.546875 -7.085938 C 5.886719 -6.859375 6.128906 -6.550781 6.273438 -6.152344 C 6.847656 -6.996094 7.59375 -7.417969 8.515625 -7.421875 C 9.234375 -7.417969 9.789062 -7.21875 10.175781 -6.824219 C 10.5625 -6.421875 10.757812 -5.808594 10.757812 -4.984375 L 10.757812 0 L 9.535156 0 L 9.535156 -4.574219 C 9.53125 -5.0625 9.492188 -5.417969 9.414062 -5.636719 C 9.332031 -5.851562 9.1875 -6.023438 8.980469 -6.160156 C 8.769531 -6.289062 8.523438 -6.355469 8.242188 -6.359375 C 7.730469 -6.355469 7.308594 -6.1875 6.972656 -5.847656 C 6.636719 -5.507812 6.46875 -4.964844 6.46875 -4.21875 L 6.46875 0 L 5.234375 0 L 5.234375 -4.71875 C 5.230469 -5.261719 5.132812 -5.671875 4.933594 -5.949219 C 4.730469 -6.21875 4.402344 -6.355469 3.953125 -6.359375 C 3.601562 -6.355469 3.28125 -6.265625 2.988281 -6.085938 C 2.695312 -5.902344 2.480469 -5.636719 2.351562 -5.285156 C 2.214844 -4.933594 2.148438 -4.425781 2.152344 -3.765625 L 2.152344 0 Z M 0.921875 0 "/>
</g>
<g id="glyph-1-5">
<path d="M 5.660156 -0.894531 C 5.203125 -0.503906 4.761719 -0.230469 4.34375 -0.0742188 C 3.917969 0.0859375 3.46875 0.164062 2.988281 0.164062 C 2.1875 0.164062 1.574219 -0.0273438 1.148438 -0.417969 C 0.71875 -0.804688 0.503906 -1.304688 0.507812 -1.914062 C 0.503906 -2.265625 0.585938 -2.589844 0.75 -2.886719 C 0.910156 -3.179688 1.121094 -3.414062 1.382812 -3.59375 C 1.644531 -3.769531 1.9375 -3.90625 2.269531 -4 C 2.507812 -4.058594 2.875 -4.121094 3.363281 -4.183594 C 4.355469 -4.300781 5.085938 -4.441406 5.558594 -4.609375 C 5.558594 -4.773438 5.558594 -4.878906 5.5625 -4.929688 C 5.558594 -5.425781 5.445312 -5.78125 5.214844 -5.988281 C 4.898438 -6.265625 4.429688 -6.402344 3.8125 -6.40625 C 3.230469 -6.402344 2.804688 -6.300781 2.53125 -6.101562 C 2.253906 -5.894531 2.050781 -5.535156 1.921875 -5.023438 L 0.71875 -5.1875 C 0.824219 -5.699219 1.003906 -6.117188 1.257812 -6.433594 C 1.503906 -6.75 1.867188 -6.992188 2.34375 -7.164062 C 2.816406 -7.332031 3.363281 -7.417969 3.992188 -7.421875 C 4.609375 -7.417969 5.113281 -7.34375 5.503906 -7.203125 C 5.886719 -7.054688 6.171875 -6.871094 6.359375 -6.652344 C 6.539062 -6.429688 6.667969 -6.152344 6.742188 -5.816406 C 6.777344 -5.605469 6.796875 -5.226562 6.800781 -4.683594 L 6.800781 -3.042969 C 6.796875 -1.894531 6.824219 -1.171875 6.878906 -0.871094 C 6.933594 -0.566406 7.035156 -0.277344 7.191406 0 L 5.90625 0 C 5.777344 -0.253906 5.695312 -0.550781 5.660156 -0.894531 Z M 5.558594 -3.644531 C 5.109375 -3.460938 4.4375 -3.304688 3.546875 -3.179688 C 3.039062 -3.105469 2.683594 -3.023438 2.472656 -2.933594 C 2.261719 -2.839844 2.097656 -2.707031 1.988281 -2.53125 C 1.871094 -2.355469 1.816406 -2.160156 1.820312 -1.949219 C 1.816406 -1.617188 1.941406 -1.34375 2.191406 -1.128906 C 2.4375 -0.90625 2.800781 -0.796875 3.28125 -0.800781 C 3.753906 -0.796875 4.175781 -0.898438 4.546875 -1.109375 C 4.914062 -1.3125 5.183594 -1.597656 5.359375 -1.960938 C 5.488281 -2.238281 5.554688 -2.648438 5.558594 -3.191406 Z M 5.558594 -3.644531 "/>
</g>
<g id="glyph-1-6">
<path d="M 0.464844 -3.628906 C 0.460938 -4.972656 0.835938 -5.96875 1.585938 -6.617188 C 2.207031 -7.148438 2.96875 -7.417969 3.867188 -7.421875 C 4.867188 -7.417969 5.683594 -7.089844 6.316406 -6.441406 C 6.949219 -5.785156 7.265625 -4.882812 7.265625 -3.734375 C 7.265625 -2.796875 7.125 -2.0625 6.84375 -1.527344 C 6.5625 -0.992188 6.152344 -0.578125 5.621094 -0.28125 C 5.082031 0.015625 4.5 0.164062 3.867188 0.164062 C 2.851562 0.164062 2.027344 -0.160156 1.402344 -0.8125 C 0.773438 -1.460938 0.460938 -2.398438 0.464844 -3.628906 Z M 1.730469 -3.628906 C 1.726562 -2.695312 1.929688 -2 2.335938 -1.539062 C 2.738281 -1.074219 3.25 -0.84375 3.867188 -0.847656 C 4.476562 -0.84375 4.984375 -1.074219 5.390625 -1.542969 C 5.796875 -2.003906 6 -2.714844 6 -3.671875 C 6 -4.566406 5.792969 -5.246094 5.386719 -5.710938 C 4.976562 -6.171875 4.472656 -6.402344 3.867188 -6.40625 C 3.25 -6.402344 2.738281 -6.171875 2.335938 -5.714844 C 1.929688 -5.25 1.726562 -4.554688 1.730469 -3.628906 Z M 1.730469 -3.628906 "/>
</g>
<g id="glyph-1-7">
<path d="M 0.921875 0 L 0.921875 -7.257812 L 2.03125 -7.257812 L 2.03125 -6.226562 C 2.558594 -7.019531 3.328125 -7.417969 4.339844 -7.421875 C 4.773438 -7.417969 5.175781 -7.339844 5.546875 -7.1875 C 5.910156 -7.027344 6.183594 -6.820312 6.371094 -6.570312 C 6.550781 -6.3125 6.679688 -6.011719 6.753906 -5.660156 C 6.796875 -5.433594 6.820312 -5.035156 6.820312 -4.464844 L 6.820312 0 L 5.59375 0 L 5.59375 -4.414062 C 5.589844 -4.914062 5.542969 -5.289062 5.449219 -5.539062 C 5.351562 -5.785156 5.179688 -5.984375 4.9375 -6.136719 C 4.691406 -6.28125 4.40625 -6.355469 4.082031 -6.359375 C 3.554688 -6.355469 3.101562 -6.191406 2.722656 -5.859375 C 2.339844 -5.523438 2.148438 -4.890625 2.152344 -3.964844 L 2.152344 0 Z M 0.921875 0 "/>
</g>
<g id="glyph-1-8">
</g>
<g id="glyph-1-9">
<path d="M 5.632812 0 L 5.632812 -0.914062 C 5.167969 -0.195312 4.492188 0.164062 3.601562 0.164062 C 3.019531 0.164062 2.488281 0.0078125 2.003906 -0.3125 C 1.519531 -0.628906 1.140625 -1.074219 0.875 -1.648438 C 0.605469 -2.21875 0.472656 -2.878906 0.476562 -3.625 C 0.472656 -4.347656 0.59375 -5.003906 0.839844 -5.59375 C 1.078125 -6.183594 1.441406 -6.636719 1.925781 -6.949219 C 2.40625 -7.261719 2.945312 -7.417969 3.546875 -7.421875 C 3.980469 -7.417969 4.371094 -7.324219 4.714844 -7.144531 C 5.054688 -6.957031 5.332031 -6.71875 5.550781 -6.425781 L 5.550781 -10.023438 L 6.773438 -10.023438 L 6.773438 0 Z M 1.742188 -3.625 C 1.738281 -2.691406 1.933594 -1.996094 2.328125 -1.535156 C 2.71875 -1.074219 3.183594 -0.84375 3.71875 -0.847656 C 4.253906 -0.84375 4.710938 -1.0625 5.085938 -1.507812 C 5.460938 -1.945312 5.648438 -2.617188 5.652344 -3.519531 C 5.648438 -4.511719 5.457031 -5.242188 5.078125 -5.707031 C 4.691406 -6.171875 4.21875 -6.402344 3.664062 -6.40625 C 3.113281 -6.402344 2.65625 -6.179688 2.292969 -5.734375 C 1.921875 -5.285156 1.738281 -4.582031 1.742188 -3.625 Z M 1.742188 -3.625 "/>
</g>
<g id="glyph-1-10">
<path d="M 5.890625 -2.335938 L 7.164062 -2.179688 C 6.960938 -1.4375 6.589844 -0.859375 6.046875 -0.449219 C 5.503906 -0.0390625 4.8125 0.164062 3.972656 0.164062 C 2.910156 0.164062 2.066406 -0.160156 1.445312 -0.816406 C 0.820312 -1.464844 0.507812 -2.382812 0.511719 -3.570312 C 0.507812 -4.785156 0.824219 -5.734375 1.453125 -6.410156 C 2.082031 -7.082031 2.898438 -7.417969 3.902344 -7.421875 C 4.871094 -7.417969 5.664062 -7.085938 6.28125 -6.429688 C 6.894531 -5.765625 7.199219 -4.839844 7.203125 -3.644531 C 7.199219 -3.570312 7.199219 -3.460938 7.199219 -3.316406 L 1.785156 -3.316406 C 1.828125 -2.515625 2.054688 -1.902344 2.460938 -1.480469 C 2.867188 -1.054688 3.371094 -0.84375 3.976562 -0.847656 C 4.425781 -0.84375 4.8125 -0.960938 5.132812 -1.203125 C 5.453125 -1.4375 5.703125 -1.816406 5.890625 -2.335938 Z M 1.851562 -4.328125 L 5.90625 -4.328125 C 5.851562 -4.933594 5.695312 -5.390625 5.441406 -5.703125 C 5.046875 -6.171875 4.539062 -6.410156 3.917969 -6.414062 C 3.351562 -6.410156 2.875 -6.21875 2.492188 -5.84375 C 2.101562 -5.460938 1.890625 -4.957031 1.851562 -4.328125 Z M 1.851562 -4.328125 "/>
</g>
<g id="glyph-1-11">
<path d="M 0.894531 0 L 0.894531 -10.023438 L 2.125 -10.023438 L 2.125 0 Z M 0.894531 0 "/>
</g>
<g id="glyph-1-12">
<path d="M 0.921875 2.78125 L 0.921875 -7.257812 L 2.042969 -7.257812 L 2.042969 -6.316406 C 2.304688 -6.683594 2.601562 -6.957031 2.9375 -7.144531 C 3.265625 -7.324219 3.671875 -7.417969 4.148438 -7.421875 C 4.765625 -7.417969 5.3125 -7.257812 5.789062 -6.945312 C 6.261719 -6.625 6.617188 -6.175781 6.863281 -5.59375 C 7.101562 -5.011719 7.222656 -4.375 7.226562 -3.683594 C 7.222656 -2.9375 7.089844 -2.269531 6.824219 -1.675781 C 6.554688 -1.082031 6.167969 -0.625 5.664062 -0.308594 C 5.152344 0.0078125 4.617188 0.164062 4.0625 0.164062 C 3.648438 0.164062 3.28125 0.078125 2.957031 -0.09375 C 2.628906 -0.265625 2.359375 -0.484375 2.152344 -0.75 L 2.152344 2.78125 Z M 2.039062 -3.589844 C 2.039062 -2.652344 2.226562 -1.960938 2.605469 -1.515625 C 2.980469 -1.066406 3.4375 -0.84375 3.976562 -0.847656 C 4.519531 -0.84375 4.988281 -1.074219 5.382812 -1.539062 C 5.769531 -2 5.964844 -2.71875 5.96875 -3.691406 C 5.964844 -4.613281 5.773438 -5.304688 5.398438 -5.769531 C 5.015625 -6.226562 4.5625 -6.457031 4.03125 -6.460938 C 3.507812 -6.457031 3.042969 -6.210938 2.640625 -5.726562 C 2.238281 -5.234375 2.039062 -4.523438 2.039062 -3.589844 Z M 2.039062 -3.589844 "/>
</g>
<g id="glyph-1-13">
<path d="M 0.929688 -6.472656 L 0.617188 -8.347656 L 0.617188 -10.023438 L 2.015625 -10.023438 L 2.015625 -8.347656 L 1.6875 -6.472656 Z M 0.929688 -6.472656 "/>
</g>
<g id="glyph-1-14">
<path d="M 5.890625 -2.335938 L 7.164062 -2.179688 C 6.960938 -1.4375 6.589844 -0.859375 6.046875 -0.449219 C 5.503906 -0.0390625 4.8125 0.164062 3.972656 0.164062 C 2.910156 0.164062 2.066406 -0.160156 1.445312 -0.816406 C 0.820312 -1.464844 0.507812 -2.382812 0.511719 -3.570312 C 0.507812 -4.785156 0.824219 -5.734375 1.453125 -6.410156 C 2.082031 -7.082031 2.898438 -7.417969 3.902344 -7.421875 C 4.871094 -7.417969 5.664062 -7.085938 6.28125 -6.429688 C 6.894531 -5.765625 7.199219 -4.839844 7.203125 -3.644531 C 7.199219 -3.570312 7.199219 -3.460938 7.199219 -3.316406 L 1.785156 -3.316406 C 1.828125 -2.515625 2.054688 -1.902344 2.460938 -1.480469 C 2.867188 -1.054688 3.371094 -0.84375 3.976562 -0.847656 C 4.425781 -0.84375 4.8125 -0.960938 5.132812 -1.203125 C 5.453125 -1.4375 5.703125 -1.816406 5.890625 -2.335938 Z M 1.851562 -4.328125 L 5.90625 -4.328125 C 5.851562 -4.933594 5.695312 -5.390625 5.441406 -5.703125 C 5.046875 -6.171875 4.539062 -6.410156 3.917969 -6.414062 C 3.351562 -6.410156 2.875 -6.21875 2.492188 -5.84375 C 2.101562 -5.460938 1.890625 -4.957031 1.851562 -4.328125 Z M 3.179688 -8.164062 L 4.085938 -10.078125 L 5.703125 -10.078125 L 4.195312 -8.164062 Z M 3.179688 -8.164062 "/>
</g>
<g id="glyph-1-15">
<path d="M 5.660156 -2.660156 L 6.871094 -2.5 C 6.734375 -1.664062 6.394531 -1.011719 5.855469 -0.542969 C 5.308594 -0.0703125 4.640625 0.164062 3.847656 0.164062 C 2.851562 0.164062 2.054688 -0.160156 1.453125 -0.808594 C 0.847656 -1.457031 0.542969 -2.386719 0.546875 -3.601562 C 0.542969 -4.382812 0.675781 -5.070312 0.9375 -5.660156 C 1.195312 -6.246094 1.589844 -6.683594 2.121094 -6.980469 C 2.652344 -7.269531 3.230469 -7.417969 3.855469 -7.421875 C 4.644531 -7.417969 5.289062 -7.21875 5.789062 -6.824219 C 6.289062 -6.421875 6.609375 -5.855469 6.753906 -5.125 L 5.558594 -4.941406 C 5.441406 -5.425781 5.238281 -5.792969 4.953125 -6.042969 C 4.660156 -6.285156 4.3125 -6.410156 3.902344 -6.414062 C 3.28125 -6.410156 2.777344 -6.1875 2.390625 -5.746094 C 2.003906 -5.296875 1.808594 -4.59375 1.8125 -3.636719 C 1.808594 -2.65625 1.996094 -1.945312 2.371094 -1.507812 C 2.742188 -1.0625 3.230469 -0.84375 3.835938 -0.847656 C 4.316406 -0.84375 4.71875 -0.992188 5.042969 -1.289062 C 5.367188 -1.585938 5.574219 -2.042969 5.660156 -2.660156 Z M 5.660156 -2.660156 "/>
</g>
<g id="glyph-1-16">
<path d="M 0.921875 0 L 0.921875 -10.023438 L 2.152344 -10.023438 L 2.152344 -6.425781 C 2.722656 -7.085938 3.449219 -7.417969 4.328125 -7.421875 C 4.863281 -7.417969 5.328125 -7.3125 5.726562 -7.105469 C 6.121094 -6.890625 6.40625 -6.597656 6.578125 -6.226562 C 6.746094 -5.851562 6.832031 -5.308594 6.835938 -4.601562 L 6.835938 0 L 5.605469 0 L 5.605469 -4.601562 C 5.601562 -5.210938 5.46875 -5.660156 5.203125 -5.941406 C 4.9375 -6.222656 4.558594 -6.363281 4.074219 -6.363281 C 3.707031 -6.363281 3.363281 -6.265625 3.042969 -6.078125 C 2.71875 -5.886719 2.492188 -5.632812 2.355469 -5.3125 C 2.21875 -4.988281 2.148438 -4.542969 2.152344 -3.972656 L 2.152344 0 Z M 0.921875 0 "/>
</g>
<g id="glyph-1-17">
<path d="M 2.058594 0 L 0.914062 0 L 0.914062 -10.023438 L 2.148438 -10.023438 L 2.148438 -6.445312 C 2.664062 -7.09375 3.328125 -7.417969 4.136719 -7.421875 C 4.582031 -7.417969 5.003906 -7.328125 5.402344 -7.152344 C 5.800781 -6.96875 6.128906 -6.714844 6.386719 -6.394531 C 6.644531 -6.066406 6.84375 -5.675781 6.992188 -5.214844 C 7.132812 -4.753906 7.207031 -4.261719 7.210938 -3.738281 C 7.207031 -2.496094 6.898438 -1.535156 6.289062 -0.855469 C 5.671875 -0.175781 4.933594 0.164062 4.074219 0.164062 C 3.214844 0.164062 2.542969 -0.191406 2.058594 -0.910156 Z M 2.042969 -3.683594 C 2.039062 -2.8125 2.15625 -2.183594 2.398438 -1.796875 C 2.78125 -1.160156 3.308594 -0.84375 3.972656 -0.847656 C 4.507812 -0.84375 4.96875 -1.078125 5.363281 -1.546875 C 5.753906 -2.015625 5.953125 -2.710938 5.953125 -3.636719 C 5.953125 -4.582031 5.765625 -5.28125 5.390625 -5.734375 C 5.015625 -6.183594 4.558594 -6.410156 4.027344 -6.414062 C 3.484375 -6.410156 3.019531 -6.175781 2.628906 -5.710938 C 2.234375 -5.242188 2.039062 -4.566406 2.042969 -3.683594 Z M 2.042969 -3.683594 "/>
</g>
<g id="glyph-1-18">
<path d="M 0.910156 0 L 0.910156 -7.257812 L 2.015625 -7.257812 L 2.015625 -6.160156 C 2.296875 -6.667969 2.554688 -7.007812 2.796875 -7.175781 C 3.03125 -7.335938 3.296875 -7.417969 3.589844 -7.421875 C 4 -7.417969 4.421875 -7.285156 4.851562 -7.027344 L 4.429688 -5.886719 C 4.125 -6.0625 3.824219 -6.152344 3.527344 -6.152344 C 3.257812 -6.152344 3.015625 -6.070312 2.800781 -5.910156 C 2.585938 -5.746094 2.433594 -5.519531 2.34375 -5.234375 C 2.207031 -4.792969 2.136719 -4.316406 2.140625 -3.800781 L 2.140625 0 Z M 0.910156 0 "/>
</g>
<g id="glyph-1-19">
<path d="M 3.273438 2.945312 C 2.59375 2.085938 2.019531 1.085938 1.550781 -0.0625 C 1.078125 -1.207031 0.84375 -2.394531 0.847656 -3.628906 C 0.84375 -4.710938 1.019531 -5.75 1.375 -6.746094 C 1.78125 -7.894531 2.414062 -9.042969 3.273438 -10.191406 L 4.15625 -10.191406 C 3.601562 -9.238281 3.238281 -8.5625 3.0625 -8.164062 C 2.78125 -7.53125 2.5625 -6.875 2.40625 -6.195312 C 2.207031 -5.335938 2.109375 -4.480469 2.113281 -3.625 C 2.109375 -1.429688 2.789062 0.757812 4.15625 2.945312 Z M 3.273438 2.945312 "/>
</g>
<g id="glyph-1-20">
<path d="M 1.730469 2.945312 L 0.847656 2.945312 C 2.207031 0.757812 2.886719 -1.429688 2.890625 -3.625 C 2.886719 -4.476562 2.789062 -5.324219 2.597656 -6.171875 C 2.441406 -6.851562 2.226562 -7.507812 1.949219 -8.140625 C 1.765625 -8.546875 1.398438 -9.230469 0.847656 -10.191406 L 1.730469 -10.191406 C 2.582031 -9.042969 3.214844 -7.894531 3.628906 -6.746094 C 3.976562 -5.75 4.152344 -4.710938 4.15625 -3.628906 C 4.152344 -2.394531 3.917969 -1.207031 3.449219 -0.0625 C 2.976562 1.085938 2.402344 2.085938 1.730469 2.945312 Z M 1.730469 2.945312 "/>
</g>
<g id="glyph-1-21">
<path d="M 1.242188 0 L 1.242188 -1.402344 L 2.644531 -1.402344 L 2.644531 0 C 2.640625 0.515625 2.550781 0.929688 2.371094 1.246094 C 2.1875 1.5625 1.898438 1.808594 1.503906 1.984375 L 1.164062 1.457031 C 1.417969 1.339844 1.609375 1.171875 1.734375 0.953125 C 1.859375 0.730469 1.925781 0.414062 1.941406 0 Z M 1.242188 0 "/>
</g>
<g id="glyph-1-22">
<path d="M 5.679688 0 L 5.679688 -1.066406 C 5.109375 -0.246094 4.34375 0.164062 3.375 0.164062 C 2.945312 0.164062 2.542969 0.0820312 2.175781 -0.0820312 C 1.800781 -0.246094 1.527344 -0.449219 1.347656 -0.699219 C 1.167969 -0.945312 1.039062 -1.25 0.96875 -1.613281 C 0.914062 -1.851562 0.890625 -2.234375 0.894531 -2.761719 L 0.894531 -7.257812 L 2.125 -7.257812 L 2.125 -3.234375 C 2.121094 -2.589844 2.148438 -2.15625 2.203125 -1.933594 C 2.277344 -1.609375 2.4375 -1.355469 2.691406 -1.171875 C 2.941406 -0.984375 3.253906 -0.890625 3.625 -0.894531 C 3.988281 -0.890625 4.332031 -0.984375 4.660156 -1.175781 C 4.980469 -1.363281 5.210938 -1.621094 5.347656 -1.949219 C 5.480469 -2.273438 5.546875 -2.746094 5.550781 -3.371094 L 5.550781 -7.257812 L 6.78125 -7.257812 L 6.78125 0 Z M 5.679688 0 "/>
</g>
<g id="glyph-1-23">
<path d="M 0.867188 2.796875 L 0.730469 1.640625 C 0.996094 1.710938 1.230469 1.746094 1.4375 1.75 C 1.703125 1.746094 1.921875 1.699219 2.089844 1.613281 C 2.25 1.519531 2.386719 1.394531 2.496094 1.230469 C 2.570312 1.105469 2.695312 0.796875 2.871094 0.3125 C 2.894531 0.242188 2.929688 0.144531 2.980469 0.015625 L 0.226562 -7.257812 L 1.550781 -7.257812 L 3.0625 -3.054688 C 3.253906 -2.519531 3.429688 -1.960938 3.589844 -1.375 C 3.726562 -1.9375 3.894531 -2.488281 4.09375 -3.027344 L 5.648438 -7.257812 L 6.875 -7.257812 L 4.117188 0.125 C 3.816406 0.917969 3.585938 1.46875 3.425781 1.769531 C 3.203125 2.175781 2.953125 2.472656 2.671875 2.660156 C 2.390625 2.847656 2.050781 2.941406 1.660156 2.945312 C 1.417969 2.941406 1.15625 2.890625 0.867188 2.796875 Z M 0.867188 2.796875 "/>
</g>
<g id="glyph-1-24">
<path d="M 0.695312 0.601562 L 1.894531 0.78125 C 1.941406 1.144531 2.082031 1.414062 2.3125 1.585938 C 2.613281 1.8125 3.03125 1.925781 3.5625 1.929688 C 4.128906 1.925781 4.566406 1.8125 4.878906 1.585938 C 5.1875 1.355469 5.398438 1.035156 5.507812 0.628906 C 5.570312 0.375 5.597656 -0.148438 5.597656 -0.949219 C 5.058594 -0.316406 4.390625 0 3.589844 0 C 2.589844 0 1.816406 -0.359375 1.273438 -1.078125 C 0.722656 -1.796875 0.449219 -2.660156 0.453125 -3.671875 C 0.449219 -4.363281 0.574219 -5.003906 0.828125 -5.589844 C 1.074219 -6.175781 1.4375 -6.625 1.917969 -6.945312 C 2.390625 -7.257812 2.949219 -7.417969 3.59375 -7.421875 C 4.449219 -7.417969 5.15625 -7.070312 5.714844 -6.382812 L 5.714844 -7.257812 L 6.851562 -7.257812 L 6.851562 -0.984375 C 6.847656 0.144531 6.734375 0.945312 6.503906 1.417969 C 6.273438 1.886719 5.90625 2.257812 5.410156 2.535156 C 4.910156 2.804688 4.296875 2.941406 3.570312 2.945312 C 2.699219 2.941406 2 2.746094 1.46875 2.359375 C 0.933594 1.96875 0.675781 1.382812 0.695312 0.601562 Z M 1.714844 -3.757812 C 1.710938 -2.804688 1.898438 -2.113281 2.28125 -1.675781 C 2.65625 -1.238281 3.132812 -1.019531 3.703125 -1.019531 C 4.269531 -1.019531 4.742188 -1.234375 5.128906 -1.671875 C 5.507812 -2.101562 5.699219 -2.785156 5.703125 -3.71875 C 5.699219 -4.605469 5.503906 -5.273438 5.109375 -5.726562 C 4.714844 -6.175781 4.238281 -6.402344 3.683594 -6.40625 C 3.132812 -6.402344 2.667969 -6.179688 2.289062 -5.738281 C 1.902344 -5.289062 1.710938 -4.628906 1.714844 -3.757812 Z M 1.714844 -3.757812 "/>
</g>
<g id="glyph-2-0">
<path d="M 0 -1.148438 L -10.023438 -1.148438 L -10.023438 -7.910156 L -8.839844 -7.910156 L -8.839844 -2.476562 L -5.734375 -2.476562 L -5.734375 -7.179688 L -4.554688 -7.179688 L -4.554688 -2.476562 L 0 -2.476562 Z M 0 -1.148438 "/>
</g>
<g id="glyph-2-1">
<path d="M 0 -0.910156 L -7.257812 -0.910156 L -7.257812 -2.015625 L -6.160156 -2.015625 C -6.667969 -2.296875 -7.007812 -2.558594 -7.175781 -2.800781 C -7.335938 -3.039062 -7.417969 -3.300781 -7.421875 -3.589844 C -7.417969 -4 -7.285156 -4.421875 -7.027344 -4.851562 L -5.886719 -4.429688 C -6.0625 -4.128906 -6.152344 -3.828125 -6.152344 -3.527344 C -6.152344 -3.257812 -6.070312 -3.015625 -5.910156 -2.800781 C -5.746094 -2.585938 -5.519531 -2.433594 -5.234375 -2.34375 C -4.792969 -2.207031 -4.316406 -2.136719 -3.800781 -2.140625 L 0 -2.140625 Z M 0 -0.910156 "/>
</g>
<g id="glyph-2-2">
<path d="M -2.335938 -5.890625 L -2.179688 -7.164062 C -1.4375 -6.960938 -0.859375 -6.589844 -0.449219 -6.046875 C -0.0390625 -5.503906 0.164062 -4.8125 0.164062 -3.972656 C 0.164062 -2.910156 -0.160156 -2.066406 -0.816406 -1.445312 C -1.464844 -0.820312 -2.382812 -0.507812 -3.570312 -0.511719 C -4.785156 -0.507812 -5.734375 -0.824219 -6.410156 -1.453125 C -7.082031 -2.082031 -7.417969 -2.898438 -7.421875 -3.902344 C -7.417969 -4.871094 -7.085938 -5.664062 -6.429688 -6.28125 C -5.765625 -6.894531 -4.839844 -7.199219 -3.644531 -7.203125 C -3.570312 -7.199219 -3.460938 -7.199219 -3.316406 -7.199219 L -3.316406 -1.785156 C -2.515625 -1.828125 -1.902344 -2.054688 -1.480469 -2.460938 C -1.054688 -2.867188 -0.84375 -3.371094 -0.847656 -3.976562 C -0.84375 -4.425781 -0.960938 -4.8125 -1.203125 -5.132812 C -1.4375 -5.453125 -1.816406 -5.703125 -2.335938 -5.890625 Z M -4.328125 -1.851562 L -4.328125 -5.90625 C -4.933594 -5.851562 -5.390625 -5.695312 -5.703125 -5.441406 C -6.171875 -5.046875 -6.410156 -4.539062 -6.414062 -3.917969 C -6.410156 -3.351562 -6.21875 -2.875 -5.84375 -2.492188 C -5.460938 -2.101562 -4.957031 -1.890625 -4.328125 -1.851562 Z M -8.164062 -3.179688 L -10.078125 -4.089844 L -10.078125 -5.703125 L -8.164062 -4.199219 Z M -8.164062 -3.179688 "/>
</g>
<g id="glyph-2-3">
<path d="M 2.78125 -5.550781 L -0.773438 -5.550781 C -0.5 -5.355469 -0.273438 -5.089844 -0.101562 -4.746094 C 0.078125 -4.402344 0.164062 -4.035156 0.164062 -3.648438 C 0.164062 -2.785156 -0.179688 -2.042969 -0.867188 -1.425781 C -1.554688 -0.800781 -2.496094 -0.492188 -3.699219 -0.492188 C -4.425781 -0.492188 -5.082031 -0.617188 -5.660156 -0.871094 C -6.238281 -1.121094 -6.675781 -1.488281 -6.972656 -1.972656 C -7.269531 -2.453125 -7.417969 -2.980469 -7.421875 -3.554688 C -7.417969 -4.449219 -7.039062 -5.15625 -6.289062 -5.671875 L -7.257812 -5.675781 L -7.257812 -6.78125 L 2.78125 -6.78125 Z M -3.648438 -1.757812 C -2.714844 -1.757812 -2.015625 -1.953125 -1.546875 -2.34375 C -1.078125 -2.734375 -0.84375 -3.203125 -0.847656 -3.753906 C -0.84375 -4.273438 -1.066406 -4.722656 -1.511719 -5.105469 C -1.957031 -5.480469 -2.632812 -5.671875 -3.539062 -5.671875 C -4.507812 -5.671875 -5.234375 -5.472656 -5.722656 -5.074219 C -6.207031 -4.675781 -6.449219 -4.207031 -6.453125 -3.671875 C -6.449219 -3.136719 -6.222656 -2.683594 -5.773438 -2.3125 C -5.316406 -1.941406 -4.609375 -1.757812 -3.648438 -1.757812 Z M -3.648438 -1.757812 "/>
</g>
<g id="glyph-2-4">
<path d="M 0 -5.679688 L -1.066406 -5.679688 C -0.246094 -5.109375 0.164062 -4.34375 0.164062 -3.375 C 0.164062 -2.945312 0.0820312 -2.542969 -0.0820312 -2.175781 C -0.246094 -1.800781 -0.449219 -1.527344 -0.699219 -1.347656 C -0.945312 -1.167969 -1.25 -1.042969 -1.613281 -0.972656 C -1.851562 -0.917969 -2.234375 -0.890625 -2.761719 -0.894531 L -7.257812 -0.894531 L -7.257812 -2.125 L -3.234375 -2.125 C -2.589844 -2.121094 -2.15625 -2.148438 -1.933594 -2.203125 C -1.609375 -2.277344 -1.355469 -2.4375 -1.171875 -2.691406 C -0.984375 -2.941406 -0.890625 -3.253906 -0.894531 -3.625 C -0.890625 -3.988281 -0.984375 -4.332031 -1.175781 -4.660156 C -1.363281 -4.980469 -1.621094 -5.210938 -1.949219 -5.347656 C -2.273438 -5.480469 -2.746094 -5.546875 -3.371094 -5.550781 L -7.257812 -5.550781 L -7.257812 -6.78125 L 0 -6.78125 Z M 0 -5.679688 "/>
</g>
<g id="glyph-2-5">
<path d="M -2.335938 -5.890625 L -2.179688 -7.164062 C -1.4375 -6.960938 -0.859375 -6.589844 -0.449219 -6.046875 C -0.0390625 -5.503906 0.164062 -4.8125 0.164062 -3.972656 C 0.164062 -2.910156 -0.160156 -2.066406 -0.816406 -1.445312 C -1.464844 -0.820312 -2.382812 -0.507812 -3.570312 -0.511719 C -4.785156 -0.507812 -5.734375 -0.824219 -6.410156 -1.453125 C -7.082031 -2.082031 -7.417969 -2.898438 -7.421875 -3.902344 C -7.417969 -4.871094 -7.085938 -5.664062 -6.429688 -6.28125 C -5.765625 -6.894531 -4.839844 -7.199219 -3.644531 -7.203125 C -3.570312 -7.199219 -3.460938 -7.199219 -3.316406 -7.199219 L -3.316406 -1.785156 C -2.515625 -1.828125 -1.902344 -2.054688 -1.480469 -2.460938 C -1.054688 -2.867188 -0.84375 -3.371094 -0.847656 -3.976562 C -0.84375 -4.425781 -0.960938 -4.8125 -1.203125 -5.132812 C -1.4375 -5.453125 -1.816406 -5.703125 -2.335938 -5.890625 Z M -4.328125 -1.851562 L -4.328125 -5.90625 C -4.933594 -5.851562 -5.390625 -5.695312 -5.703125 -5.441406 C -6.171875 -5.046875 -6.410156 -4.539062 -6.414062 -3.917969 C -6.410156 -3.351562 -6.21875 -2.875 -5.84375 -2.492188 C -5.460938 -2.101562 -4.957031 -1.890625 -4.328125 -1.851562 Z M -4.328125 -1.851562 "/>
</g>
<g id="glyph-2-6">
<path d="M 0 -0.921875 L -7.257812 -0.921875 L -7.257812 -2.03125 L -6.226562 -2.03125 C -7.019531 -2.5625 -7.417969 -3.332031 -7.421875 -4.339844 C -7.417969 -4.773438 -7.339844 -5.175781 -7.1875 -5.546875 C -7.027344 -5.910156 -6.820312 -6.183594 -6.570312 -6.371094 C -6.3125 -6.550781 -6.011719 -6.679688 -5.660156 -6.753906 C -5.433594 -6.796875 -5.035156 -6.820312 -4.464844 -6.820312 L 0 -6.820312 L 0 -5.59375 L -4.414062 -5.59375 C -4.914062 -5.589844 -5.289062 -5.542969 -5.539062 -5.449219 C -5.785156 -5.351562 -5.984375 -5.179688 -6.136719 -4.9375 C -6.28125 -4.691406 -6.355469 -4.40625 -6.359375 -4.082031 C -6.355469 -3.554688 -6.191406 -3.101562 -5.859375 -2.722656 C -5.523438 -2.339844 -4.890625 -2.148438 -3.964844 -2.152344 L 0 -2.152344 Z M 0 -0.921875 "/>
</g>
<g id="glyph-2-7">
<path d="M -2.660156 -5.660156 L -2.5 -6.871094 C -1.664062 -6.734375 -1.011719 -6.394531 -0.542969 -5.855469 C -0.0703125 -5.308594 0.164062 -4.640625 0.164062 -3.847656 C 0.164062 -2.851562 -0.160156 -2.054688 -0.808594 -1.453125 C -1.457031 -0.847656 -2.386719 -0.542969 -3.601562 -0.546875 C -4.382812 -0.542969 -5.070312 -0.675781 -5.660156 -0.9375 C -6.246094 -1.195312 -6.683594 -1.589844 -6.980469 -2.121094 C -7.269531 -2.652344 -7.417969 -3.230469 -7.421875 -3.855469 C -7.417969 -4.644531 -7.21875 -5.289062 -6.824219 -5.789062 C -6.421875 -6.289062 -5.855469 -6.609375 -5.125 -6.753906 L -4.941406 -5.558594 C -5.425781 -5.441406 -5.792969 -5.238281 -6.042969 -4.953125 C -6.285156 -4.660156 -6.410156 -4.3125 -6.414062 -3.902344 C -6.410156 -3.28125 -6.1875 -2.777344 -5.746094 -2.390625 C -5.296875 -2.003906 -4.59375 -1.808594 -3.636719 -1.8125 C -2.65625 -1.808594 -1.945312 -1.996094 -1.507812 -2.371094 C -1.0625 -2.742188 -0.84375 -3.230469 -0.847656 -3.835938 C -0.84375 -4.316406 -0.992188 -4.71875 -1.289062 -5.042969 C -1.585938 -5.367188 -2.042969 -5.574219 -2.660156 -5.660156 Z M -2.660156 -5.660156 "/>
</g>
<g id="glyph-3-0">
<path d="M 1.566406 0 L 1.566406 -12.027344 L 3.15625 -12.027344 L 3.15625 0 Z M 1.566406 0 "/>
</g>
<g id="glyph-3-1">
<path d="M 1.109375 0 L 1.109375 -8.710938 L 2.4375 -8.710938 L 2.4375 -7.472656 C 3.074219 -8.425781 3.996094 -8.90625 5.210938 -8.910156 C 5.730469 -8.90625 6.214844 -8.8125 6.65625 -8.625 C 7.09375 -8.4375 7.421875 -8.1875 7.644531 -7.882812 C 7.859375 -7.570312 8.011719 -7.207031 8.105469 -6.792969 C 8.15625 -6.515625 8.183594 -6.039062 8.1875 -5.355469 L 8.1875 0 L 6.710938 0 L 6.710938 -5.300781 C 6.707031 -5.898438 6.652344 -6.347656 6.539062 -6.648438 C 6.421875 -6.941406 6.214844 -7.179688 5.925781 -7.359375 C 5.628906 -7.539062 5.289062 -7.628906 4.898438 -7.628906 C 4.265625 -7.628906 3.722656 -7.425781 3.269531 -7.027344 C 2.8125 -6.625 2.582031 -5.871094 2.585938 -4.757812 L 2.585938 0 Z M 1.109375 0 "/>
</g>
<g id="glyph-3-2">
<path d="M 4.332031 -1.320312 L 4.542969 -0.015625 C 4.125 0.0703125 3.753906 0.109375 3.429688 0.113281 C 2.890625 0.109375 2.476562 0.0273438 2.179688 -0.140625 C 1.882812 -0.308594 1.675781 -0.53125 1.558594 -0.808594 C 1.4375 -1.082031 1.375 -1.660156 1.378906 -2.550781 L 1.378906 -7.5625 L 0.296875 -7.5625 L 0.296875 -8.710938 L 1.378906 -8.710938 L 1.378906 -10.867188 L 2.847656 -11.753906 L 2.847656 -8.710938 L 4.332031 -8.710938 L 4.332031 -7.5625 L 2.847656 -7.5625 L 2.847656 -2.46875 C 2.847656 -2.042969 2.871094 -1.773438 2.925781 -1.65625 C 2.972656 -1.535156 3.058594 -1.4375 3.179688 -1.367188 C 3.292969 -1.292969 3.460938 -1.257812 3.683594 -1.261719 C 3.84375 -1.257812 4.058594 -1.277344 4.332031 -1.320312 Z M 4.332031 -1.320312 "/>
</g>
<g id="glyph-3-3">
<path d="M 7.070312 -2.804688 L 8.597656 -2.617188 C 8.351562 -1.722656 7.90625 -1.03125 7.257812 -0.542969 C 6.605469 -0.0507812 5.773438 0.191406 4.765625 0.195312 C 3.488281 0.191406 2.480469 -0.195312 1.734375 -0.980469 C 0.988281 -1.761719 0.613281 -2.863281 0.617188 -4.28125 C 0.613281 -5.746094 0.992188 -6.882812 1.746094 -7.695312 C 2.5 -8.5 3.476562 -8.90625 4.683594 -8.910156 C 5.84375 -8.90625 6.796875 -8.507812 7.535156 -7.71875 C 8.273438 -6.921875 8.640625 -5.808594 8.644531 -4.371094 C 8.640625 -4.285156 8.640625 -4.152344 8.636719 -3.976562 L 2.140625 -3.976562 C 2.191406 -3.019531 2.464844 -2.285156 2.953125 -1.777344 C 3.4375 -1.265625 4.042969 -1.011719 4.773438 -1.015625 C 5.3125 -1.011719 5.773438 -1.15625 6.160156 -1.441406 C 6.539062 -1.726562 6.84375 -2.179688 7.070312 -2.804688 Z M 2.222656 -5.191406 L 7.085938 -5.191406 C 7.015625 -5.925781 6.832031 -6.472656 6.53125 -6.839844 C 6.058594 -7.40625 5.449219 -7.691406 4.699219 -7.695312 C 4.019531 -7.691406 3.449219 -7.464844 2.988281 -7.011719 C 2.527344 -6.554688 2.269531 -5.949219 2.222656 -5.191406 Z M 2.222656 -5.191406 "/>
</g>
<g id="glyph-3-4">
<path d="M 1.089844 0 L 1.089844 -8.710938 L 2.421875 -8.710938 L 2.421875 -7.390625 C 2.757812 -8.003906 3.070312 -8.414062 3.359375 -8.613281 C 3.640625 -8.808594 3.957031 -8.90625 4.304688 -8.910156 C 4.800781 -8.90625 5.308594 -8.746094 5.824219 -8.433594 L 5.316406 -7.0625 C 4.949219 -7.273438 4.589844 -7.382812 4.234375 -7.382812 C 3.910156 -7.382812 3.621094 -7.285156 3.363281 -7.089844 C 3.105469 -6.894531 2.921875 -6.625 2.8125 -6.285156 C 2.648438 -5.757812 2.566406 -5.183594 2.566406 -4.5625 L 2.566406 0 Z M 1.089844 0 "/>
</g>
<g id="glyph-3-5">
<path d="M 3.527344 0 L 0.214844 -8.710938 L 1.773438 -8.710938 L 3.640625 -3.496094 C 3.839844 -2.929688 4.027344 -2.34375 4.199219 -1.738281 C 4.328125 -2.195312 4.511719 -2.746094 4.75 -3.394531 L 6.6875 -8.710938 L 8.203125 -8.710938 L 4.90625 0 Z M 3.527344 0 "/>
</g>
<g id="glyph-3-6">
<path d="M 6.792969 -1.074219 C 6.242188 -0.605469 5.714844 -0.277344 5.210938 -0.0898438 C 4.703125 0.101562 4.164062 0.191406 3.585938 0.195312 C 2.625 0.191406 1.886719 -0.0390625 1.375 -0.503906 C 0.859375 -0.972656 0.601562 -1.570312 0.605469 -2.296875 C 0.601562 -2.722656 0.699219 -3.109375 0.894531 -3.464844 C 1.085938 -3.816406 1.339844 -4.101562 1.660156 -4.3125 C 1.972656 -4.523438 2.328125 -4.683594 2.722656 -4.796875 C 3.007812 -4.871094 3.445312 -4.945312 4.035156 -5.019531 C 5.226562 -5.160156 6.105469 -5.328125 6.667969 -5.527344 C 6.671875 -5.726562 6.671875 -5.855469 6.675781 -5.914062 C 6.671875 -6.511719 6.535156 -6.9375 6.257812 -7.1875 C 5.878906 -7.519531 5.316406 -7.6875 4.578125 -7.6875 C 3.878906 -7.6875 3.367188 -7.5625 3.039062 -7.320312 C 2.707031 -7.074219 2.460938 -6.644531 2.304688 -6.03125 L 0.859375 -6.226562 C 0.988281 -6.839844 1.203125 -7.339844 1.507812 -7.722656 C 1.804688 -8.101562 2.242188 -8.394531 2.8125 -8.601562 C 3.382812 -8.804688 4.039062 -8.90625 4.789062 -8.910156 C 5.53125 -8.90625 6.136719 -8.816406 6.601562 -8.644531 C 7.066406 -8.464844 7.410156 -8.246094 7.628906 -7.984375 C 7.847656 -7.714844 8 -7.378906 8.089844 -6.980469 C 8.136719 -6.722656 8.160156 -6.269531 8.164062 -5.617188 L 8.164062 -3.648438 C 8.160156 -2.273438 8.191406 -1.40625 8.257812 -1.042969 C 8.316406 -0.679688 8.441406 -0.332031 8.628906 0 L 7.085938 0 C 6.929688 -0.304688 6.832031 -0.660156 6.792969 -1.074219 Z M 6.667969 -4.371094 C 6.132812 -4.152344 5.328125 -3.964844 4.257812 -3.8125 C 3.648438 -3.722656 3.21875 -3.625 2.96875 -3.519531 C 2.714844 -3.40625 2.519531 -3.246094 2.386719 -3.039062 C 2.246094 -2.824219 2.179688 -2.589844 2.183594 -2.335938 C 2.179688 -1.941406 2.328125 -1.613281 2.628906 -1.351562 C 2.925781 -1.089844 3.363281 -0.960938 3.9375 -0.960938 C 4.503906 -0.960938 5.007812 -1.082031 5.453125 -1.332031 C 5.894531 -1.578125 6.21875 -1.921875 6.429688 -2.355469 C 6.585938 -2.6875 6.667969 -3.179688 6.667969 -3.832031 Z M 6.667969 -4.371094 "/>
</g>
<g id="glyph-3-7">
<path d="M 1.074219 0 L 1.074219 -12.027344 L 2.550781 -12.027344 L 2.550781 0 Z M 1.074219 0 "/>
</g>
<g id="glyph-3-8">
</g>
<g id="glyph-3-9">
<path d="M 6.757812 0 L 6.757812 -1.097656 C 6.203125 -0.234375 5.394531 0.191406 4.324219 0.195312 C 3.628906 0.191406 2.988281 0.00390625 2.40625 -0.378906 C 1.824219 -0.757812 1.375 -1.292969 1.054688 -1.980469 C 0.734375 -2.667969 0.574219 -3.457031 0.574219 -4.347656 C 0.574219 -5.214844 0.71875 -6.003906 1.007812 -6.714844 C 1.296875 -7.421875 1.730469 -7.964844 2.3125 -8.34375 C 2.890625 -8.71875 3.539062 -8.90625 4.257812 -8.910156 C 4.78125 -8.90625 5.25 -8.792969 5.660156 -8.574219 C 6.066406 -8.347656 6.398438 -8.0625 6.660156 -7.710938 L 6.660156 -12.027344 L 8.128906 -12.027344 L 8.128906 0 Z M 2.09375 -4.347656 C 2.089844 -3.230469 2.324219 -2.394531 2.796875 -1.84375 C 3.265625 -1.289062 3.820312 -1.011719 4.460938 -1.015625 C 5.101562 -1.011719 5.652344 -1.277344 6.105469 -1.808594 C 6.558594 -2.335938 6.785156 -3.140625 6.785156 -4.226562 C 6.785156 -5.414062 6.554688 -6.289062 6.09375 -6.847656 C 5.632812 -7.40625 5.066406 -7.6875 4.398438 -7.6875 C 3.738281 -7.6875 3.191406 -7.417969 2.753906 -6.882812 C 2.3125 -6.34375 2.089844 -5.5 2.09375 -4.347656 Z M 2.09375 -4.347656 "/>
</g>
<g id="glyph-3-10">
<path d="M 6.792969 -3.191406 L 8.242188 -3.003906 C 8.082031 -2 7.675781 -1.214844 7.027344 -0.652344 C 6.371094 -0.0859375 5.570312 0.191406 4.617188 0.195312 C 3.421875 0.191406 2.460938 -0.195312 1.742188 -0.972656 C 1.015625 -1.75 0.65625 -2.867188 0.65625 -4.324219 C 0.65625 -5.261719 0.808594 -6.082031 1.121094 -6.792969 C 1.429688 -7.496094 1.90625 -8.027344 2.546875 -8.378906 C 3.183594 -8.730469 3.875 -8.90625 4.625 -8.910156 C 5.570312 -8.90625 6.347656 -8.667969 6.949219 -8.191406 C 7.550781 -7.710938 7.933594 -7.03125 8.105469 -6.152344 L 6.667969 -5.929688 C 6.53125 -6.515625 6.289062 -6.953125 5.941406 -7.25 C 5.59375 -7.542969 5.171875 -7.691406 4.683594 -7.695312 C 3.9375 -7.691406 3.335938 -7.425781 2.871094 -6.894531 C 2.402344 -6.359375 2.167969 -5.515625 2.171875 -4.363281 C 2.167969 -3.191406 2.390625 -2.339844 2.84375 -1.8125 C 3.289062 -1.277344 3.875 -1.011719 4.601562 -1.015625 C 5.179688 -1.011719 5.664062 -1.191406 6.054688 -1.546875 C 6.4375 -1.902344 6.683594 -2.449219 6.792969 -3.191406 Z M 6.792969 -3.191406 "/>
</g>
<g id="glyph-3-11">
<path d="M 0.558594 -4.355469 C 0.554688 -5.964844 1.003906 -7.160156 1.902344 -7.941406 C 2.648438 -8.582031 3.5625 -8.90625 4.644531 -8.910156 C 5.835938 -8.90625 6.8125 -8.511719 7.578125 -7.730469 C 8.335938 -6.941406 8.71875 -5.859375 8.71875 -4.480469 C 8.71875 -3.355469 8.550781 -2.472656 8.214844 -1.832031 C 7.878906 -1.1875 7.386719 -0.6875 6.746094 -0.335938 C 6.097656 0.0195312 5.398438 0.191406 4.644531 0.195312 C 3.421875 0.191406 2.433594 -0.195312 1.683594 -0.976562 C 0.929688 -1.753906 0.554688 -2.878906 0.558594 -4.355469 Z M 2.074219 -4.355469 C 2.074219 -3.238281 2.316406 -2.402344 2.804688 -1.847656 C 3.289062 -1.289062 3.902344 -1.011719 4.644531 -1.015625 C 5.375 -1.011719 5.984375 -1.292969 6.472656 -1.851562 C 6.957031 -2.410156 7.199219 -3.261719 7.203125 -4.40625 C 7.199219 -5.480469 6.957031 -6.292969 6.46875 -6.851562 C 5.976562 -7.40625 5.367188 -7.6875 4.644531 -7.6875 C 3.902344 -7.6875 3.289062 -7.410156 2.804688 -6.859375 C 2.316406 -6.304688 2.074219 -5.46875 2.074219 -4.355469 Z M 2.074219 -4.355469 "/>
</g>
<g id="glyph-3-12">
<path d="M 1.460938 0 L 1.460938 -7.5625 L 0.15625 -7.5625 L 0.15625 -8.710938 L 1.460938 -8.710938 L 1.460938 -9.640625 C 1.457031 -10.21875 1.511719 -10.652344 1.617188 -10.941406 C 1.757812 -11.320312 2.003906 -11.632812 2.363281 -11.871094 C 2.71875 -12.109375 3.222656 -12.226562 3.871094 -12.230469 C 4.285156 -12.226562 4.746094 -12.179688 5.25 -12.082031 L 5.027344 -10.796875 C 4.722656 -10.847656 4.433594 -10.875 4.160156 -10.878906 C 3.707031 -10.875 3.386719 -10.777344 3.207031 -10.589844 C 3.019531 -10.394531 2.929688 -10.039062 2.929688 -9.515625 L 2.929688 -8.710938 L 4.625 -8.710938 L 4.625 -7.5625 L 2.929688 -7.5625 L 2.929688 0 Z M 1.460938 0 "/>
</g>
<g id="glyph-3-13">
<path d="M 1.117188 -10.328125 L 1.117188 -12.027344 L 2.59375 -12.027344 L 2.59375 -10.328125 Z M 1.117188 0 L 1.117188 -8.710938 L 2.59375 -8.710938 L 2.59375 0 Z M 1.117188 0 "/>
</g>
<g id="glyph-3-14">
<path d="M 6.792969 -1.074219 C 6.242188 -0.605469 5.714844 -0.277344 5.210938 -0.0898438 C 4.703125 0.101562 4.164062 0.191406 3.585938 0.195312 C 2.625 0.191406 1.886719 -0.0390625 1.375 -0.503906 C 0.859375 -0.972656 0.601562 -1.570312 0.605469 -2.296875 C 0.601562 -2.722656 0.699219 -3.109375 0.894531 -3.464844 C 1.085938 -3.816406 1.339844 -4.101562 1.660156 -4.3125 C 1.972656 -4.523438 2.328125 -4.683594 2.722656 -4.796875 C 3.007812 -4.871094 3.445312 -4.945312 4.035156 -5.019531 C 5.226562 -5.160156 6.105469 -5.328125 6.667969 -5.527344 C 6.671875 -5.726562 6.671875 -5.855469 6.675781 -5.914062 C 6.671875 -6.511719 6.535156 -6.9375 6.257812 -7.1875 C 5.878906 -7.519531 5.316406 -7.6875 4.578125 -7.6875 C 3.878906 -7.6875 3.367188 -7.5625 3.039062 -7.320312 C 2.707031 -7.074219 2.460938 -6.644531 2.304688 -6.03125 L 0.859375 -6.226562 C 0.988281 -6.839844 1.203125 -7.339844 1.507812 -7.722656 C 1.804688 -8.101562 2.242188 -8.394531 2.8125 -8.601562 C 3.382812 -8.804688 4.039062 -8.90625 4.789062 -8.910156 C 5.53125 -8.90625 6.136719 -8.816406 6.601562 -8.644531 C 7.066406 -8.464844 7.410156 -8.246094 7.628906 -7.984375 C 7.847656 -7.714844 8 -7.378906 8.089844 -6.980469 C 8.136719 -6.722656 8.160156 -6.269531 8.164062 -5.617188 L 8.164062 -3.648438 C 8.160156 -2.273438 8.191406 -1.40625 8.257812 -1.042969 C 8.316406 -0.679688 8.441406 -0.332031 8.628906 0 L 7.085938 0 C 6.929688 -0.304688 6.832031 -0.660156 6.792969 -1.074219 Z M 6.667969 -4.371094 C 6.132812 -4.152344 5.328125 -3.964844 4.257812 -3.8125 C 3.648438 -3.722656 3.21875 -3.625 2.96875 -3.519531 C 2.714844 -3.40625 2.519531 -3.246094 2.386719 -3.039062 C 2.246094 -2.824219 2.179688 -2.589844 2.183594 -2.335938 C 2.179688 -1.941406 2.328125 -1.613281 2.628906 -1.351562 C 2.925781 -1.089844 3.363281 -0.960938 3.9375 -0.960938 C 4.503906 -0.960938 5.007812 -1.082031 5.453125 -1.332031 C 5.894531 -1.578125 6.21875 -1.921875 6.429688 -2.355469 C 6.585938 -2.6875 6.667969 -3.179688 6.667969 -3.832031 Z M 5.867188 -9.792969 L 4.675781 -9.792969 L 2.78125 -12.089844 L 4.757812 -12.089844 Z M 5.867188 -9.792969 "/>
</g>
<g id="glyph-3-15">
<path d="M 0.917969 -2.78125 L 2.335938 -2.914062 C 2.457031 -2.242188 2.6875 -1.757812 3.027344 -1.457031 C 3.363281 -1.15625 3.796875 -1.007812 4.332031 -1.007812 C 4.78125 -1.007812 5.179688 -1.109375 5.523438 -1.320312 C 5.863281 -1.523438 6.144531 -1.800781 6.367188 -2.152344 C 6.582031 -2.496094 6.765625 -2.964844 6.914062 -3.558594 C 7.0625 -4.144531 7.136719 -4.746094 7.136719 -5.363281 C 7.136719 -5.425781 7.132812 -5.527344 7.128906 -5.660156 C 6.832031 -5.1875 6.429688 -4.804688 5.917969 -4.515625 C 5.40625 -4.222656 4.851562 -4.078125 4.257812 -4.078125 C 3.261719 -4.078125 2.417969 -4.4375 1.730469 -5.160156 C 1.035156 -5.878906 0.691406 -6.832031 0.695312 -8.015625 C 0.691406 -9.234375 1.050781 -10.214844 1.773438 -10.957031 C 2.492188 -11.699219 3.394531 -12.070312 4.480469 -12.074219 C 5.257812 -12.070312 5.972656 -11.859375 6.625 -11.441406 C 7.269531 -11.019531 7.761719 -10.417969 8.101562 -9.640625 C 8.433594 -8.859375 8.601562 -7.734375 8.605469 -6.257812 C 8.601562 -4.71875 8.433594 -3.492188 8.105469 -2.585938 C 7.769531 -1.671875 7.273438 -0.980469 6.617188 -0.507812 C 5.953125 -0.0351562 5.179688 0.199219 4.296875 0.203125 C 3.351562 0.199219 2.585938 -0.0585938 1.992188 -0.578125 C 1.394531 -1.097656 1.035156 -1.832031 0.917969 -2.78125 Z M 6.964844 -8.089844 C 6.960938 -8.933594 6.734375 -9.605469 6.285156 -10.105469 C 5.832031 -10.601562 5.289062 -10.851562 4.660156 -10.851562 C 4 -10.851562 3.429688 -10.582031 2.945312 -10.046875 C 2.457031 -9.511719 2.214844 -8.816406 2.214844 -7.964844 C 2.214844 -7.195312 2.445312 -6.574219 2.90625 -6.097656 C 3.367188 -5.617188 3.9375 -5.378906 4.617188 -5.382812 C 5.300781 -5.378906 5.863281 -5.617188 6.304688 -6.097656 C 6.742188 -6.574219 6.960938 -7.238281 6.964844 -8.089844 Z M 6.964844 -8.089844 "/>
</g>
<g id="glyph-3-16">
<path d="M 0.695312 -3.148438 L 2.246094 -3.28125 C 2.359375 -2.523438 2.628906 -1.953125 3.046875 -1.578125 C 3.464844 -1.195312 3.96875 -1.007812 4.5625 -1.007812 C 5.269531 -1.007812 5.871094 -1.273438 6.367188 -1.8125 C 6.855469 -2.34375 7.101562 -3.054688 7.105469 -3.945312 C 7.101562 -4.785156 6.863281 -5.449219 6.394531 -5.9375 C 5.917969 -6.421875 5.300781 -6.667969 4.535156 -6.667969 C 4.058594 -6.667969 3.628906 -6.558594 3.25 -6.34375 C 2.863281 -6.125 2.5625 -5.84375 2.347656 -5.503906 L 0.960938 -5.683594 L 2.125 -11.863281 L 8.105469 -11.863281 L 8.105469 -10.449219 L 3.304688 -10.449219 L 2.65625 -7.21875 C 3.375 -7.71875 4.132812 -7.96875 4.929688 -7.972656 C 5.976562 -7.96875 6.863281 -7.605469 7.585938 -6.882812 C 8.308594 -6.152344 8.671875 -5.21875 8.671875 -4.078125 C 8.671875 -2.988281 8.351562 -2.046875 7.71875 -1.253906 C 6.945312 -0.285156 5.894531 0.199219 4.5625 0.203125 C 3.464844 0.199219 2.570312 -0.105469 1.882812 -0.714844 C 1.1875 -1.324219 0.792969 -2.132812 0.695312 -3.148438 Z M 0.695312 -3.148438 "/>
</g>
<g id="glyph-3-17">
<path d="M 0.976562 -9.136719 C 0.972656 -9.992188 1.1875 -10.722656 1.625 -11.328125 C 2.054688 -11.925781 2.683594 -12.226562 3.503906 -12.230469 C 4.253906 -12.226562 4.875 -11.957031 5.375 -11.421875 C 5.867188 -10.878906 6.117188 -10.089844 6.121094 -9.046875 C 6.117188 -8.03125 5.867188 -7.246094 5.367188 -6.699219 C 4.867188 -6.144531 4.25 -5.871094 3.519531 -5.875 C 2.789062 -5.871094 2.183594 -6.140625 1.703125 -6.683594 C 1.214844 -7.222656 0.972656 -8.039062 0.976562 -9.136719 Z M 3.542969 -11.214844 C 3.171875 -11.214844 2.867188 -11.054688 2.628906 -10.738281 C 2.382812 -10.417969 2.261719 -9.835938 2.265625 -8.992188 C 2.261719 -8.21875 2.382812 -7.675781 2.632812 -7.363281 C 2.875 -7.046875 3.179688 -6.890625 3.542969 -6.890625 C 3.914062 -6.890625 4.222656 -7.046875 4.464844 -7.367188 C 4.707031 -7.679688 4.828125 -8.261719 4.832031 -9.105469 C 4.828125 -9.878906 4.703125 -10.421875 4.460938 -10.742188 C 4.210938 -11.054688 3.90625 -11.214844 3.542969 -11.214844 Z M 3.550781 0.441406 L 10.132812 -12.230469 L 11.328125 -12.230469 L 4.773438 0.441406 Z M 8.753906 -2.820312 C 8.753906 -3.679688 8.96875 -4.414062 9.398438 -5.015625 C 9.828125 -5.613281 10.457031 -5.910156 11.289062 -5.914062 C 12.039062 -5.910156 12.664062 -5.640625 13.160156 -5.105469 C 13.65625 -4.5625 13.902344 -3.773438 13.90625 -2.730469 C 13.902344 -1.714844 13.652344 -0.929688 13.152344 -0.382812 C 12.648438 0.167969 12.03125 0.4375 11.296875 0.441406 C 10.566406 0.4375 9.957031 0.171875 9.476562 -0.371094 C 8.992188 -0.910156 8.753906 -1.726562 8.753906 -2.820312 Z M 11.328125 -4.898438 C 10.953125 -4.898438 10.644531 -4.738281 10.402344 -4.421875 C 10.15625 -4.101562 10.035156 -3.519531 10.039062 -2.675781 C 10.035156 -1.90625 10.160156 -1.363281 10.40625 -1.050781 C 10.652344 -0.730469 10.957031 -0.574219 11.320312 -0.574219 C 11.695312 -0.574219 12.003906 -0.730469 12.25 -1.050781 C 12.492188 -1.363281 12.613281 -1.945312 12.617188 -2.789062 C 12.613281 -3.5625 12.492188 -4.105469 12.246094 -4.425781 C 12 -4.738281 11.691406 -4.898438 11.328125 -4.898438 Z M 11.328125 -4.898438 "/>
</g>
<g id="glyph-3-18">
<path d="M 6.816406 0 L 6.816406 -1.28125 C 6.136719 -0.296875 5.214844 0.191406 4.050781 0.195312 C 3.535156 0.191406 3.058594 0.0976562 2.613281 -0.0976562 C 2.167969 -0.292969 1.835938 -0.539062 1.621094 -0.839844 C 1.402344 -1.136719 1.25 -1.503906 1.164062 -1.9375 C 1.101562 -2.222656 1.070312 -2.679688 1.074219 -3.3125 L 1.074219 -8.710938 L 2.550781 -8.710938 L 2.550781 -3.878906 C 2.546875 -3.105469 2.578125 -2.585938 2.640625 -2.320312 C 2.730469 -1.929688 2.925781 -1.625 3.230469 -1.40625 C 3.527344 -1.183594 3.902344 -1.070312 4.347656 -1.074219 C 4.789062 -1.070312 5.203125 -1.183594 5.59375 -1.414062 C 5.980469 -1.636719 6.253906 -1.945312 6.417969 -2.339844 C 6.574219 -2.730469 6.65625 -3.300781 6.660156 -4.042969 L 6.660156 -8.710938 L 8.136719 -8.710938 L 8.136719 0 Z M 6.816406 0 "/>
</g>
<g id="glyph-3-19">
<path d="M 7.070312 -2.804688 L 8.597656 -2.617188 C 8.351562 -1.722656 7.90625 -1.03125 7.257812 -0.542969 C 6.605469 -0.0507812 5.773438 0.191406 4.765625 0.195312 C 3.488281 0.191406 2.480469 -0.195312 1.734375 -0.980469 C 0.988281 -1.761719 0.613281 -2.863281 0.617188 -4.28125 C 0.613281 -5.746094 0.992188 -6.882812 1.746094 -7.695312 C 2.5 -8.5 3.476562 -8.90625 4.683594 -8.910156 C 5.84375 -8.90625 6.796875 -8.507812 7.535156 -7.71875 C 8.273438 -6.921875 8.640625 -5.808594 8.644531 -4.371094 C 8.640625 -4.285156 8.640625 -4.152344 8.636719 -3.976562 L 2.140625 -3.976562 C 2.191406 -3.019531 2.464844 -2.285156 2.953125 -1.777344 C 3.4375 -1.265625 4.042969 -1.011719 4.773438 -1.015625 C 5.3125 -1.011719 5.773438 -1.15625 6.160156 -1.441406 C 6.539062 -1.726562 6.84375 -2.179688 7.070312 -2.804688 Z M 2.222656 -5.191406 L 7.085938 -5.191406 C 7.015625 -5.925781 6.832031 -6.472656 6.53125 -6.839844 C 6.058594 -7.40625 5.449219 -7.691406 4.699219 -7.695312 C 4.019531 -7.691406 3.449219 -7.464844 2.988281 -7.011719 C 2.527344 -6.554688 2.269531 -5.949219 2.222656 -5.191406 Z M 3.8125 -9.792969 L 4.90625 -12.089844 L 6.839844 -12.089844 L 5.035156 -9.792969 Z M 3.8125 -9.792969 "/>
</g>
<g id="glyph-3-20">
<path d="M 0.515625 -2.601562 L 1.976562 -2.828125 C 2.054688 -2.242188 2.285156 -1.792969 2.660156 -1.484375 C 3.035156 -1.167969 3.558594 -1.011719 4.234375 -1.015625 C 4.910156 -1.011719 5.414062 -1.152344 5.742188 -1.429688 C 6.070312 -1.703125 6.234375 -2.027344 6.234375 -2.402344 C 6.234375 -2.734375 6.089844 -2.996094 5.800781 -3.191406 C 5.597656 -3.320312 5.09375 -3.488281 4.289062 -3.691406 C 3.203125 -3.964844 2.449219 -4.199219 2.035156 -4.398438 C 1.613281 -4.597656 1.296875 -4.875 1.085938 -5.226562 C 0.867188 -5.578125 0.761719 -5.96875 0.761719 -6.398438 C 0.761719 -6.785156 0.847656 -7.144531 1.027344 -7.476562 C 1.203125 -7.804688 1.445312 -8.078125 1.753906 -8.300781 C 1.980469 -8.46875 2.296875 -8.613281 2.695312 -8.730469 C 3.089844 -8.847656 3.511719 -8.90625 3.96875 -8.910156 C 4.648438 -8.90625 5.25 -8.808594 5.769531 -8.613281 C 6.285156 -8.414062 6.667969 -8.144531 6.914062 -7.8125 C 7.160156 -7.472656 7.328125 -7.023438 7.421875 -6.464844 L 5.980469 -6.265625 C 5.914062 -6.710938 5.722656 -7.0625 5.410156 -7.316406 C 5.089844 -7.566406 4.648438 -7.691406 4.078125 -7.695312 C 3.398438 -7.691406 2.914062 -7.582031 2.625 -7.359375 C 2.335938 -7.132812 2.191406 -6.867188 2.191406 -6.570312 C 2.191406 -6.375 2.25 -6.203125 2.371094 -6.054688 C 2.488281 -5.890625 2.675781 -5.761719 2.9375 -5.660156 C 3.078125 -5.605469 3.515625 -5.476562 4.242188 -5.28125 C 5.285156 -5 6.011719 -4.773438 6.425781 -4.597656 C 6.835938 -4.417969 7.160156 -4.160156 7.398438 -3.820312 C 7.628906 -3.480469 7.746094 -3.058594 7.75 -2.558594 C 7.746094 -2.0625 7.601562 -1.597656 7.320312 -1.167969 C 7.03125 -0.730469 6.617188 -0.394531 6.078125 -0.160156 C 5.53125 0.078125 4.921875 0.191406 4.242188 0.195312 C 3.109375 0.191406 2.246094 -0.0390625 1.652344 -0.507812 C 1.058594 -0.976562 0.679688 -1.675781 0.515625 -2.601562 Z M 0.515625 -2.601562 "/>
</g>
<g id="glyph-3-21">
<path d="M 1.109375 0 L 1.109375 -8.710938 L 2.429688 -8.710938 L 2.429688 -7.488281 C 2.699219 -7.914062 3.0625 -8.257812 3.519531 -8.519531 C 3.96875 -8.777344 4.484375 -8.90625 5.070312 -8.910156 C 5.710938 -8.90625 6.242188 -8.773438 6.65625 -8.507812 C 7.070312 -8.238281 7.359375 -7.863281 7.53125 -7.382812 C 8.214844 -8.398438 9.113281 -8.90625 10.222656 -8.910156 C 11.082031 -8.90625 11.746094 -8.667969 12.210938 -8.191406 C 12.675781 -7.710938 12.90625 -6.972656 12.910156 -5.980469 L 12.910156 0 L 11.445312 0 L 11.445312 -5.488281 C 11.441406 -6.078125 11.394531 -6.503906 11.300781 -6.761719 C 11.203125 -7.019531 11.027344 -7.226562 10.777344 -7.390625 C 10.523438 -7.546875 10.230469 -7.628906 9.894531 -7.628906 C 9.277344 -7.628906 8.769531 -7.421875 8.367188 -7.015625 C 7.960938 -6.605469 7.757812 -5.957031 7.761719 -5.0625 L 7.761719 0 L 6.285156 0 L 6.285156 -5.660156 C 6.28125 -6.316406 6.160156 -6.808594 5.921875 -7.136719 C 5.679688 -7.464844 5.285156 -7.628906 4.742188 -7.628906 C 4.320312 -7.628906 3.9375 -7.519531 3.585938 -7.300781 C 3.234375 -7.082031 2.976562 -6.761719 2.820312 -6.339844 C 2.660156 -5.917969 2.582031 -5.308594 2.585938 -4.519531 L 2.585938 0 Z M 1.109375 0 "/>
</g>
<g id="glyph-3-22">
<path d="M 1.109375 0 L 1.109375 -12.027344 L 2.585938 -12.027344 L 2.585938 -7.710938 C 3.269531 -8.507812 4.140625 -8.90625 5.191406 -8.910156 C 5.835938 -8.90625 6.394531 -8.777344 6.871094 -8.527344 C 7.34375 -8.269531 7.683594 -7.917969 7.894531 -7.472656 C 8.097656 -7.019531 8.203125 -6.371094 8.203125 -5.519531 L 8.203125 0 L 6.726562 0 L 6.726562 -5.519531 C 6.726562 -6.257812 6.566406 -6.792969 6.246094 -7.132812 C 5.925781 -7.464844 5.472656 -7.632812 4.890625 -7.636719 C 4.449219 -7.632812 4.039062 -7.519531 3.65625 -7.296875 C 3.269531 -7.066406 2.992188 -6.761719 2.832031 -6.375 C 2.664062 -5.984375 2.582031 -5.445312 2.585938 -4.765625 L 2.585938 0 Z M 1.109375 0 "/>
</g>
</g>
<clipPath id="clip-0">
<path clip-rule="nonzero" d="M 48.390625 49.449219 L 713.023438 49.449219 L 713.023438 355.917969 L 48.390625 355.917969 Z M 48.390625 49.449219 "/>
</clipPath>
<clipPath id="clip-1">
<path clip-rule="nonzero" d="M 48.390625 306 L 713.023438 306 L 713.023438 307 L 48.390625 307 Z M 48.390625 306 "/>
</clipPath>
<clipPath id="clip-2">
<path clip-rule="nonzero" d="M 48.390625 235 L 713.023438 235 L 713.023438 237 L 48.390625 237 Z M 48.390625 235 "/>
</clipPath>
<clipPath id="clip-3">
<path clip-rule="nonzero" d="M 48.390625 164 L 713.023438 164 L 713.023438 166 L 48.390625 166 Z M 48.390625 164 "/>
</clipPath>
<clipPath id="clip-4">
<path clip-rule="nonzero" d="M 48.390625 93 L 713.023438 93 L 713.023438 95 L 48.390625 95 Z M 48.390625 93 "/>
</clipPath>
<clipPath id="clip-5">
<path clip-rule="nonzero" d="M 117 49.449219 L 119 49.449219 L 119 355.917969 L 117 355.917969 Z M 117 49.449219 "/>
</clipPath>
<clipPath id="clip-6">
<path clip-rule="nonzero" d="M 249 49.449219 L 250 49.449219 L 250 355.917969 L 249 355.917969 Z M 249 49.449219 "/>
</clipPath>
<clipPath id="clip-7">
<path clip-rule="nonzero" d="M 380 49.449219 L 382 49.449219 L 382 355.917969 L 380 355.917969 Z M 380 49.449219 "/>
</clipPath>
<clipPath id="clip-8">
<path clip-rule="nonzero" d="M 511 49.449219 L 513 49.449219 L 513 355.917969 L 511 355.917969 Z M 511 49.449219 "/>
</clipPath>
<clipPath id="clip-9">
<path clip-rule="nonzero" d="M 643 49.449219 L 644 49.449219 L 644 355.917969 L 643 355.917969 Z M 643 49.449219 "/>
</clipPath>
<clipPath id="clip-10">
<path clip-rule="nonzero" d="M 48.390625 341 L 713.023438 341 L 713.023438 343 L 48.390625 343 Z M 48.390625 341 "/>
</clipPath>
<clipPath id="clip-11">
<path clip-rule="nonzero" d="M 48.390625 270 L 713.023438 270 L 713.023438 272 L 48.390625 272 Z M 48.390625 270 "/>
</clipPath>
<clipPath id="clip-12">
<path clip-rule="nonzero" d="M 48.390625 199 L 713.023438 199 L 713.023438 202 L 48.390625 202 Z M 48.390625 199 "/>
</clipPath>
<clipPath id="clip-13">
<path clip-rule="nonzero" d="M 48.390625 128 L 713.023438 128 L 713.023438 131 L 48.390625 131 Z M 48.390625 128 "/>
</clipPath>
<clipPath id="clip-14">
<path clip-rule="nonzero" d="M 48.390625 57 L 713.023438 57 L 713.023438 60 L 48.390625 60 Z M 48.390625 57 "/>
</clipPath>
<clipPath id="clip-15">
<path clip-rule="nonzero" d="M 51 49.449219 L 54 49.449219 L 54 355.917969 L 51 355.917969 Z M 51 49.449219 "/>
</clipPath>
<clipPath id="clip-16">
<path clip-rule="nonzero" d="M 183 49.449219 L 185 49.449219 L 185 355.917969 L 183 355.917969 Z M 183 49.449219 "/>
</clipPath>
<clipPath id="clip-17">
<path clip-rule="nonzero" d="M 314 49.449219 L 316 49.449219 L 316 355.917969 L 314 355.917969 Z M 314 49.449219 "/>
</clipPath>
<clipPath id="clip-18">
<path clip-rule="nonzero" d="M 445 49.449219 L 448 49.449219 L 448 355.917969 L 445 355.917969 Z M 445 49.449219 "/>
</clipPath>
<clipPath id="clip-19">
<path clip-rule="nonzero" d="M 577 49.449219 L 579 49.449219 L 579 355.917969 L 577 355.917969 Z M 577 49.449219 "/>
</clipPath>
<clipPath id="clip-20">
<path clip-rule="nonzero" d="M 708 49.449219 L 710 49.449219 L 710 355.917969 L 708 355.917969 Z M 708 49.449219 "/>
</clipPath>
<clipPath id="clip-21">
<path clip-rule="nonzero" d="M 222 49.449219 L 224 49.449219 L 224 355.917969 L 222 355.917969 Z M 222 49.449219 "/>
</clipPath>
<clipPath id="clip-22">
<path clip-rule="nonzero" d="M 573 49.449219 L 576 49.449219 L 576 355.917969 L 573 355.917969 Z M 573 49.449219 "/>
</clipPath>
<clipPath id="clip-23">
<path clip-rule="nonzero" d="M 212 49.449219 L 214 49.449219 L 214 355.917969 L 212 355.917969 Z M 212 49.449219 "/>
</clipPath>
<clipPath id="clip-24">
<path clip-rule="nonzero" d="M 563 49.449219 L 565 49.449219 L 565 355.917969 L 563 355.917969 Z M 563 49.449219 "/>
</clipPath>
<clipPath id="clip-25">
<path clip-rule="nonzero" d="M 214 49.449219 L 217 49.449219 L 217 355.917969 L 214 355.917969 Z M 214 49.449219 "/>
</clipPath>
<clipPath id="clip-26">
<path clip-rule="nonzero" d="M 560 49.449219 L 562 49.449219 L 562 355.917969 L 560 355.917969 Z M 560 49.449219 "/>
</clipPath>
<clipPath id="clip-27">
<path clip-rule="nonzero" d="M 48.390625 49.449219 L 713.023438 49.449219 L 713.023438 355.917969 L 48.390625 355.917969 Z M 48.390625 49.449219 "/>
</clipPath>
</defs>
<rect x="-72" y="-39.6" width="864" height="475.2" fill="rgb(100%, 100%, 100%)" fill-opacity="1"/>
<rect x="-72" y="-39.6" width="864" height="475.2" fill="rgb(100%, 100%, 100%)" fill-opacity="1"/>
<path fill="none" stroke-width="1.357972" stroke-linecap="round" stroke-linejoin="round" stroke="rgb(100%, 100%, 100%)" stroke-opacity="1" stroke-miterlimit="10" d="M 0 396 L 720 396 L 720 0 L 0 0 Z M 0 396 "/>
<g clip-path="url(#clip-0)">
<path fill-rule="nonzero" fill="rgb(100%, 100%, 100%)" fill-opacity="1" d="M 48.390625 355.921875 L 713.023438 355.921875 L 713.023438 49.453125 L 48.390625 49.453125 Z M 48.390625 355.921875 "/>
</g>
<g clip-path="url(#clip-1)">
<path fill="none" stroke-width="0.678986" stroke-linecap="butt" stroke-linejoin="round" stroke="rgb(92.156863%, 92.156863%, 92.156863%)" stroke-opacity="1" stroke-miterlimit="10" d="M 48.390625 306.574219 L 713.027344 306.574219 "/>
</g>
<g clip-path="url(#clip-2)">
<path fill="none" stroke-width="0.678986" stroke-linecap="butt" stroke-linejoin="round" stroke="rgb(92.156863%, 92.156863%, 92.156863%)" stroke-opacity="1" stroke-miterlimit="10" d="M 48.390625 235.742188 L 713.027344 235.742188 "/>
</g>
<g clip-path="url(#clip-3)">
<path fill="none" stroke-width="0.678986" stroke-linecap="butt" stroke-linejoin="round" stroke="rgb(92.156863%, 92.156863%, 92.156863%)" stroke-opacity="1" stroke-miterlimit="10" d="M 48.390625 164.90625 L 713.027344 164.90625 "/>
</g>
<g clip-path="url(#clip-4)">
<path fill="none" stroke-width="0.678986" stroke-linecap="butt" stroke-linejoin="round" stroke="rgb(92.156863%, 92.156863%, 92.156863%)" stroke-opacity="1" stroke-miterlimit="10" d="M 48.390625 94.074219 L 713.027344 94.074219 "/>
</g>
<g clip-path="url(#clip-5)">
<path fill="none" stroke-width="0.678986" stroke-linecap="butt" stroke-linejoin="round" stroke="rgb(92.156863%, 92.156863%, 92.156863%)" stroke-opacity="1" stroke-miterlimit="10" d="M 118.007812 355.921875 L 118.007812 49.449219 "/>
</g>
<g clip-path="url(#clip-6)">
<path fill="none" stroke-width="0.678986" stroke-linecap="butt" stroke-linejoin="round" stroke="rgb(92.156863%, 92.156863%, 92.156863%)" stroke-opacity="1" stroke-miterlimit="10" d="M 249.359375 355.921875 L 249.359375 49.449219 "/>
</g>
<g clip-path="url(#clip-7)">
<path fill="none" stroke-width="0.678986" stroke-linecap="butt" stroke-linejoin="round" stroke="rgb(92.156863%, 92.156863%, 92.156863%)" stroke-opacity="1" stroke-miterlimit="10" d="M 380.707031 355.921875 L 380.707031 49.449219 "/>
</g>
<g clip-path="url(#clip-8)">
<path fill="none" stroke-width="0.678986" stroke-linecap="butt" stroke-linejoin="round" stroke="rgb(92.156863%, 92.156863%, 92.156863%)" stroke-opacity="1" stroke-miterlimit="10" d="M 512.058594 355.921875 L 512.058594 49.449219 "/>
</g>
<g clip-path="url(#clip-9)">
<path fill="none" stroke-width="0.678986" stroke-linecap="butt" stroke-linejoin="round" stroke="rgb(92.156863%, 92.156863%, 92.156863%)" stroke-opacity="1" stroke-miterlimit="10" d="M 643.410156 355.921875 L 643.410156 49.449219 "/>
</g>
<g clip-path="url(#clip-10)">
<path fill="none" stroke-width="1.357972" stroke-linecap="butt" stroke-linejoin="round" stroke="rgb(92.156863%, 92.156863%, 92.156863%)" stroke-opacity="1" stroke-miterlimit="10" d="M 48.390625 341.992188 L 713.027344 341.992188 "/>
</g>
<g clip-path="url(#clip-11)">
<path fill="none" stroke-width="1.357972" stroke-linecap="butt" stroke-linejoin="round" stroke="rgb(92.156863%, 92.156863%, 92.156863%)" stroke-opacity="1" stroke-miterlimit="10" d="M 48.390625 271.15625 L 713.027344 271.15625 "/>
</g>
<g clip-path="url(#clip-12)">
<path fill="none" stroke-width="1.357972" stroke-linecap="butt" stroke-linejoin="round" stroke="rgb(92.156863%, 92.156863%, 92.156863%)" stroke-opacity="1" stroke-miterlimit="10" d="M 48.390625 200.324219 L 713.027344 200.324219 "/>
</g>
<g clip-path="url(#clip-13)">
<path fill="none" stroke-width="1.357972" stroke-linecap="butt" stroke-linejoin="round" stroke="rgb(92.156863%, 92.156863%, 92.156863%)" stroke-opacity="1" stroke-miterlimit="10" d="M 48.390625 129.492188 L 713.027344 129.492188 "/>
</g>
<g clip-path="url(#clip-14)">
<path fill="none" stroke-width="1.357972" stroke-linecap="butt" stroke-linejoin="round" stroke="rgb(92.156863%, 92.156863%, 92.156863%)" stroke-opacity="1" stroke-miterlimit="10" d="M 48.390625 58.660156 L 713.027344 58.660156 "/>
</g>
<g clip-path="url(#clip-15)">
<path fill="none" stroke-width="1.357972" stroke-linecap="butt" stroke-linejoin="round" stroke="rgb(92.156863%, 92.156863%, 92.156863%)" stroke-opacity="1" stroke-miterlimit="10" d="M 52.332031 355.921875 L 52.332031 49.449219 "/>
</g>
<g clip-path="url(#clip-16)">
<path fill="none" stroke-width="1.357972" stroke-linecap="butt" stroke-linejoin="round" stroke="rgb(92.156863%, 92.156863%, 92.156863%)" stroke-opacity="1" stroke-miterlimit="10" d="M 183.683594 355.921875 L 183.683594 49.449219 "/>
</g>
<g clip-path="url(#clip-17)">
<path fill="none" stroke-width="1.357972" stroke-linecap="butt" stroke-linejoin="round" stroke="rgb(92.156863%, 92.156863%, 92.156863%)" stroke-opacity="1" stroke-miterlimit="10" d="M 315.035156 355.921875 L 315.035156 49.449219 "/>
</g>
<g clip-path="url(#clip-18)">
<path fill="none" stroke-width="1.357972" stroke-linecap="butt" stroke-linejoin="round" stroke="rgb(92.156863%, 92.156863%, 92.156863%)" stroke-opacity="1" stroke-miterlimit="10" d="M 446.382812 355.921875 L 446.382812 49.449219 "/>
</g>
<g clip-path="url(#clip-19)">
<path fill="none" stroke-width="1.357972" stroke-linecap="butt" stroke-linejoin="round" stroke="rgb(92.156863%, 92.156863%, 92.156863%)" stroke-opacity="1" stroke-miterlimit="10" d="M 577.734375 355.921875 L 577.734375 49.449219 "/>
</g>
<g clip-path="url(#clip-20)">
<path fill="none" stroke-width="1.357972" stroke-linecap="butt" stroke-linejoin="round" stroke="rgb(92.156863%, 92.156863%, 92.156863%)" stroke-opacity="1" stroke-miterlimit="10" d="M 709.085938 355.921875 L 709.085938 49.449219 "/>
</g>
<path fill-rule="nonzero" fill="rgb(13.333333%, 54.509804%, 13.333333%)" fill-opacity="1" stroke-width="1.357972" stroke-linecap="butt" stroke-linejoin="miter" stroke="rgb(100%, 100%, 100%)" stroke-opacity="1" stroke-miterlimit="10" d="M 78.601562 341.992188 L 104.871094 341.992188 L 104.871094 339.632812 L 78.601562 339.632812 Z M 78.601562 341.992188 "/>
<path fill-rule="nonzero" fill="rgb(13.333333%, 54.509804%, 13.333333%)" fill-opacity="1" stroke-width="1.357972" stroke-linecap="butt" stroke-linejoin="miter" stroke="rgb(100%, 100%, 100%)" stroke-opacity="1" stroke-miterlimit="10" d="M 104.871094 341.992188 L 131.140625 341.992188 L 131.140625 337.269531 L 104.871094 337.269531 Z M 104.871094 341.992188 "/>
<path fill-rule="nonzero" fill="rgb(13.333333%, 54.509804%, 13.333333%)" fill-opacity="1" stroke-width="1.357972" stroke-linecap="butt" stroke-linejoin="miter" stroke="rgb(100%, 100%, 100%)" stroke-opacity="1" stroke-miterlimit="10" d="M 131.144531 341.992188 L 157.414062 341.992188 L 157.414062 334.910156 L 131.144531 334.910156 Z M 131.144531 341.992188 "/>
<path fill-rule="nonzero" fill="rgb(13.333333%, 54.509804%, 13.333333%)" fill-opacity="1" stroke-width="1.357972" stroke-linecap="butt" stroke-linejoin="miter" stroke="rgb(100%, 100%, 100%)" stroke-opacity="1" stroke-miterlimit="10" d="M 157.414062 341.992188 L 183.683594 341.992188 L 183.683594 327.824219 L 157.414062 327.824219 Z M 157.414062 341.992188 "/>
<path fill-rule="nonzero" fill="rgb(13.333333%, 54.509804%, 13.333333%)" fill-opacity="1" stroke-width="1.357972" stroke-linecap="butt" stroke-linejoin="miter" stroke="rgb(100%, 100%, 100%)" stroke-opacity="1" stroke-miterlimit="10" d="M 183.683594 341.992188 L 209.953125 341.992188 L 209.953125 327.824219 L 183.683594 327.824219 Z M 183.683594 341.992188 "/>
<path fill-rule="nonzero" fill="rgb(13.333333%, 54.509804%, 13.333333%)" fill-opacity="1" stroke-width="1.357972" stroke-linecap="butt" stroke-linejoin="miter" stroke="rgb(100%, 100%, 100%)" stroke-opacity="1" stroke-miterlimit="10" d="M 209.953125 341.992188 L 236.222656 341.992188 L 236.222656 301.855469 L 209.953125 301.855469 Z M 209.953125 341.992188 "/>
<path fill-rule="nonzero" fill="rgb(13.333333%, 54.509804%, 13.333333%)" fill-opacity="1" stroke-width="1.357972" stroke-linecap="butt" stroke-linejoin="miter" stroke="rgb(100%, 100%, 100%)" stroke-opacity="1" stroke-miterlimit="10" d="M 236.222656 341.992188 L 262.492188 341.992188 L 262.492188 252.269531 L 236.222656 252.269531 Z M 236.222656 341.992188 "/>
<path fill-rule="nonzero" fill="rgb(13.333333%, 54.509804%, 13.333333%)" fill-opacity="1" stroke-width="1.357972" stroke-linecap="butt" stroke-linejoin="miter" stroke="rgb(100%, 100%, 100%)" stroke-opacity="1" stroke-miterlimit="10" d="M 262.492188 341.992188 L 288.761719 341.992188 L 288.761719 216.855469 L 262.492188 216.855469 Z M 262.492188 341.992188 "/>
<path fill-rule="nonzero" fill="rgb(13.333333%, 54.509804%, 13.333333%)" fill-opacity="1" stroke-width="1.357972" stroke-linecap="butt" stroke-linejoin="miter" stroke="rgb(100%, 100%, 100%)" stroke-opacity="1" stroke-miterlimit="10" d="M 288.761719 341.992188 L 315.03125 341.992188 L 315.03125 181.4375 L 288.761719 181.4375 Z M 288.761719 341.992188 "/>
<path fill-rule="nonzero" fill="rgb(13.333333%, 54.509804%, 13.333333%)" fill-opacity="1" stroke-width="1.357972" stroke-linecap="butt" stroke-linejoin="miter" stroke="rgb(100%, 100%, 100%)" stroke-opacity="1" stroke-miterlimit="10" d="M 315.035156 341.992188 L 341.304688 341.992188 L 341.304688 103.523438 L 315.035156 103.523438 Z M 315.035156 341.992188 "/>
<path fill-rule="nonzero" fill="rgb(13.333333%, 54.509804%, 13.333333%)" fill-opacity="1" stroke-width="1.357972" stroke-linecap="butt" stroke-linejoin="miter" stroke="rgb(100%, 100%, 100%)" stroke-opacity="1" stroke-miterlimit="10" d="M 341.304688 341.992188 L 367.574219 341.992188 L 367.574219 86.992188 L 341.304688 86.992188 Z M 341.304688 341.992188 "/>
<path fill-rule="nonzero" fill="rgb(13.333333%, 54.509804%, 13.333333%)" fill-opacity="1" stroke-width="1.357972" stroke-linecap="butt" stroke-linejoin="miter" stroke="rgb(100%, 100%, 100%)" stroke-opacity="1" stroke-miterlimit="10" d="M 367.574219 341.992188 L 393.84375 341.992188 L 393.84375 94.078125 L 367.574219 94.078125 Z M 367.574219 341.992188 "/>
<path fill-rule="nonzero" fill="rgb(13.333333%, 54.509804%, 13.333333%)" fill-opacity="1" stroke-width="1.357972" stroke-linecap="butt" stroke-linejoin="miter" stroke="rgb(100%, 100%, 100%)" stroke-opacity="1" stroke-miterlimit="10" d="M 393.84375 341.992188 L 420.113281 341.992188 L 420.113281 63.382812 L 393.84375 63.382812 Z M 393.84375 341.992188 "/>
<path fill-rule="nonzero" fill="rgb(13.333333%, 54.509804%, 13.333333%)" fill-opacity="1" stroke-width="1.357972" stroke-linecap="butt" stroke-linejoin="miter" stroke="rgb(100%, 100%, 100%)" stroke-opacity="1" stroke-miterlimit="10" d="M 420.113281 341.992188 L 446.382812 341.992188 L 446.382812 70.464844 L 420.113281 70.464844 Z M 420.113281 341.992188 "/>
<path fill-rule="nonzero" fill="rgb(13.333333%, 54.509804%, 13.333333%)" fill-opacity="1" stroke-width="1.357972" stroke-linecap="butt" stroke-linejoin="miter" stroke="rgb(100%, 100%, 100%)" stroke-opacity="1" stroke-miterlimit="10" d="M 446.382812 341.992188 L 472.652344 341.992188 L 472.652344 150.742188 L 446.382812 150.742188 Z M 446.382812 341.992188 "/>
<path fill-rule="nonzero" fill="rgb(13.333333%, 54.509804%, 13.333333%)" fill-opacity="1" stroke-width="1.357972" stroke-linecap="butt" stroke-linejoin="miter" stroke="rgb(100%, 100%, 100%)" stroke-opacity="1" stroke-miterlimit="10" d="M 472.65625 341.992188 L 498.925781 341.992188 L 498.925781 169.632812 L 472.65625 169.632812 Z M 472.65625 341.992188 "/>
<path fill-rule="nonzero" fill="rgb(13.333333%, 54.509804%, 13.333333%)" fill-opacity="1" stroke-width="1.357972" stroke-linecap="butt" stroke-linejoin="miter" stroke="rgb(100%, 100%, 100%)" stroke-opacity="1" stroke-miterlimit="10" d="M 498.925781 341.992188 L 525.195312 341.992188 L 525.195312 261.714844 L 498.925781 261.714844 Z M 498.925781 341.992188 "/>
<path fill-rule="nonzero" fill="rgb(13.333333%, 54.509804%, 13.333333%)" fill-opacity="1" stroke-width="1.357972" stroke-linecap="butt" stroke-linejoin="miter" stroke="rgb(100%, 100%, 100%)" stroke-opacity="1" stroke-miterlimit="10" d="M 525.195312 341.992188 L 551.464844 341.992188 L 551.464844 271.160156 L 525.195312 271.160156 Z M 525.195312 341.992188 "/>
<path fill-rule="nonzero" fill="rgb(13.333333%, 54.509804%, 13.333333%)" fill-opacity="1" stroke-width="1.357972" stroke-linecap="butt" stroke-linejoin="miter" stroke="rgb(100%, 100%, 100%)" stroke-opacity="1" stroke-miterlimit="10" d="M 551.464844 341.992188 L 577.734375 341.992188 L 577.734375 299.492188 L 551.464844 299.492188 Z M 551.464844 341.992188 "/>
<path fill-rule="nonzero" fill="rgb(13.333333%, 54.509804%, 13.333333%)" fill-opacity="1" stroke-width="1.357972" stroke-linecap="butt" stroke-linejoin="miter" stroke="rgb(100%, 100%, 100%)" stroke-opacity="1" stroke-miterlimit="10" d="M 577.734375 341.992188 L 604.003906 341.992188 L 604.003906 308.9375 L 577.734375 308.9375 Z M 577.734375 341.992188 "/>
<path fill-rule="nonzero" fill="rgb(13.333333%, 54.509804%, 13.333333%)" fill-opacity="1" stroke-width="1.357972" stroke-linecap="butt" stroke-linejoin="miter" stroke="rgb(100%, 100%, 100%)" stroke-opacity="1" stroke-miterlimit="10" d="M 604.003906 341.992188 L 630.273438 341.992188 L 630.273438 330.1875 L 604.003906 330.1875 Z M 604.003906 341.992188 "/>
<path fill-rule="nonzero" fill="rgb(13.333333%, 54.509804%, 13.333333%)" fill-opacity="1" stroke-width="1.357972" stroke-linecap="butt" stroke-linejoin="miter" stroke="rgb(100%, 100%, 100%)" stroke-opacity="1" stroke-miterlimit="10" d="M 630.273438 341.992188 L 656.542969 341.992188 L 656.542969 334.910156 L 630.273438 334.910156 Z M 630.273438 341.992188 "/>
<path fill-rule="nonzero" fill="rgb(13.333333%, 54.509804%, 13.333333%)" fill-opacity="1" stroke-width="1.357972" stroke-linecap="butt" stroke-linejoin="miter" stroke="rgb(100%, 100%, 100%)" stroke-opacity="1" stroke-miterlimit="10" d="M 656.546875 341.992188 L 682.816406 341.992188 L 682.816406 339.632812 L 656.546875 339.632812 Z M 656.546875 341.992188 "/>
<g clip-path="url(#clip-21)">
<path fill="none" stroke-width="1.357972" stroke-linecap="butt" stroke-linejoin="round" stroke="rgb(0%, 0%, 0%)" stroke-opacity="1" stroke-dasharray="5.43189 5.43189" stroke-miterlimit="10" d="M 222.863281 355.921875 L 222.863281 49.449219 "/>
</g>
<g clip-path="url(#clip-22)">
<path fill="none" stroke-width="1.357972" stroke-linecap="butt" stroke-linejoin="round" stroke="rgb(0%, 0%, 0%)" stroke-opacity="1" stroke-dasharray="5.43189 5.43189" stroke-miterlimit="10" d="M 574.570312 355.921875 L 574.570312 49.449219 "/>
</g>
<g clip-path="url(#clip-23)">
<path fill="none" stroke-width="1.357972" stroke-linecap="butt" stroke-linejoin="round" stroke="rgb(0%, 0%, 0%)" stroke-opacity="1" stroke-dasharray="9.505807 4.073917" stroke-miterlimit="10" d="M 212.894531 355.921875 L 212.894531 49.449219 "/>
</g>
<g clip-path="url(#clip-24)">
<path fill="none" stroke-width="1.357972" stroke-linecap="butt" stroke-linejoin="round" stroke="rgb(0%, 0%, 0%)" stroke-opacity="1" stroke-dasharray="9.505807 4.073917" stroke-miterlimit="10" d="M 563.761719 355.921875 L 563.761719 49.449219 "/>
</g>
<g clip-path="url(#clip-25)">
<path fill="none" stroke-width="1.357972" stroke-linecap="butt" stroke-linejoin="round" stroke="rgb(0%, 0%, 0%)" stroke-opacity="1" stroke-miterlimit="10" d="M 215.445312 355.921875 L 215.445312 49.449219 "/>
</g>
<g clip-path="url(#clip-26)">
<path fill="none" stroke-width="1.357972" stroke-linecap="butt" stroke-linejoin="round" stroke="rgb(0%, 0%, 0%)" stroke-opacity="1" stroke-miterlimit="10" d="M 561.230469 355.921875 L 561.230469 49.449219 "/>
</g>
<g clip-path="url(#clip-27)">
<path fill="none" stroke-width="1.357972" stroke-linecap="round" stroke-linejoin="round" stroke="rgb(20%, 20%, 20%)" stroke-opacity="1" stroke-miterlimit="10" d="M 48.390625 355.921875 L 713.023438 355.921875 L 713.023438 49.453125 L 48.390625 49.453125 Z M 48.390625 355.921875 "/>
</g>
<g fill="rgb(30.196078%, 30.196078%, 30.196078%)" fill-opacity="1">
<use xlink:href="#glyph-0-0" x="35.886719" y="346"/>
</g>
<g fill="rgb(30.196078%, 30.196078%, 30.196078%)" fill-opacity="1">
<use xlink:href="#glyph-0-1" x="29.660156" y="275.167969"/>
<use xlink:href="#glyph-0-0" x="35.889063" y="275.167969"/>
</g>
<g fill="rgb(30.196078%, 30.196078%, 30.196078%)" fill-opacity="1">
<use xlink:href="#glyph-0-2" x="29.660156" y="204.332031"/>
<use xlink:href="#glyph-0-0" x="35.889063" y="204.332031"/>
</g>
<g fill="rgb(30.196078%, 30.196078%, 30.196078%)" fill-opacity="1">
<use xlink:href="#glyph-0-3" x="29.660156" y="133.5"/>
<use xlink:href="#glyph-0-0" x="35.889063" y="133.5"/>
</g>
<g fill="rgb(30.196078%, 30.196078%, 30.196078%)" fill-opacity="1">
<use xlink:href="#glyph-0-4" x="23.429688" y="62.667969"/>
<use xlink:href="#glyph-0-5" x="29.658594" y="62.667969"/>
<use xlink:href="#glyph-0-0" x="35.8875" y="62.667969"/>
</g>
<path fill="none" stroke-width="1.357972" stroke-linecap="butt" stroke-linejoin="round" stroke="rgb(20%, 20%, 20%)" stroke-opacity="1" stroke-miterlimit="10" d="M 44.90625 341.992188 L 48.390625 341.992188 "/>
<path fill="none" stroke-width="1.357972" stroke-linecap="butt" stroke-linejoin="round" stroke="rgb(20%, 20%, 20%)" stroke-opacity="1" stroke-miterlimit="10" d="M 44.90625 271.15625 L 48.390625 271.15625 "/>
<path fill="none" stroke-width="1.357972" stroke-linecap="butt" stroke-linejoin="round" stroke="rgb(20%, 20%, 20%)" stroke-opacity="1" stroke-miterlimit="10" d="M 44.90625 200.324219 L 48.390625 200.324219 "/>
<path fill="none" stroke-width="1.357972" stroke-linecap="butt" stroke-linejoin="round" stroke="rgb(20%, 20%, 20%)" stroke-opacity="1" stroke-miterlimit="10" d="M 44.90625 129.492188 L 48.390625 129.492188 "/>
<path fill="none" stroke-width="1.357972" stroke-linecap="butt" stroke-linejoin="round" stroke="rgb(20%, 20%, 20%)" stroke-opacity="1" stroke-miterlimit="10" d="M 44.90625 58.660156 L 48.390625 58.660156 "/>
<path fill="none" stroke-width="1.357972" stroke-linecap="butt" stroke-linejoin="round" stroke="rgb(20%, 20%, 20%)" stroke-opacity="1" stroke-miterlimit="10" d="M 52.332031 359.40625 L 52.332031 355.921875 "/>
<path fill="none" stroke-width="1.357972" stroke-linecap="butt" stroke-linejoin="round" stroke="rgb(20%, 20%, 20%)" stroke-opacity="1" stroke-miterlimit="10" d="M 183.683594 359.40625 L 183.683594 355.921875 "/>
<path fill="none" stroke-width="1.357972" stroke-linecap="butt" stroke-linejoin="round" stroke="rgb(20%, 20%, 20%)" stroke-opacity="1" stroke-miterlimit="10" d="M 315.035156 359.40625 L 315.035156 355.921875 "/>
<path fill="none" stroke-width="1.357972" stroke-linecap="butt" stroke-linejoin="round" stroke="rgb(20%, 20%, 20%)" stroke-opacity="1" stroke-miterlimit="10" d="M 446.382812 359.40625 L 446.382812 355.921875 "/>
<path fill="none" stroke-width="1.357972" stroke-linecap="butt" stroke-linejoin="round" stroke="rgb(20%, 20%, 20%)" stroke-opacity="1" stroke-miterlimit="10" d="M 577.734375 359.40625 L 577.734375 355.921875 "/>
<path fill="none" stroke-width="1.357972" stroke-linecap="butt" stroke-linejoin="round" stroke="rgb(20%, 20%, 20%)" stroke-opacity="1" stroke-miterlimit="10" d="M 709.085938 359.40625 L 709.085938 355.921875 "/>
<g fill="rgb(30.196078%, 30.196078%, 30.196078%)" fill-opacity="1">
<use xlink:href="#glyph-0-5" x="44.546875" y="370.214844"/>
<use xlink:href="#glyph-0-6" x="50.775781" y="370.214844"/>
<use xlink:href="#glyph-0-7" x="53.8875" y="370.214844"/>
</g>
<g fill="rgb(30.196078%, 30.196078%, 30.196078%)" fill-opacity="1">
<use xlink:href="#glyph-0-7" x="175.898438" y="370.214844"/>
<use xlink:href="#glyph-0-6" x="182.127344" y="370.214844"/>
<use xlink:href="#glyph-0-0" x="185.239062" y="370.214844"/>
</g>
<g fill="rgb(30.196078%, 30.196078%, 30.196078%)" fill-opacity="1">
<use xlink:href="#glyph-0-8" x="307.25" y="370.214844"/>
<use xlink:href="#glyph-0-6" x="313.478906" y="370.214844"/>
<use xlink:href="#glyph-0-7" x="316.590625" y="370.214844"/>
</g>
<g fill="rgb(30.196078%, 30.196078%, 30.196078%)" fill-opacity="1">
<use xlink:href="#glyph-0-4" x="435.484375" y="370.214844"/>
<use xlink:href="#glyph-0-0" x="441.713281" y="370.214844"/>
<use xlink:href="#glyph-0-6" x="447.942188" y="370.214844"/>
<use xlink:href="#glyph-0-0" x="451.053906" y="370.214844"/>
</g>
<g fill="rgb(30.196078%, 30.196078%, 30.196078%)" fill-opacity="1">
<use xlink:href="#glyph-0-4" x="566.835938" y="370.214844"/>
<use xlink:href="#glyph-0-5" x="573.064844" y="370.214844"/>
<use xlink:href="#glyph-0-6" x="579.29375" y="370.214844"/>
<use xlink:href="#glyph-0-7" x="582.405469" y="370.214844"/>
</g>
<g fill="rgb(30.196078%, 30.196078%, 30.196078%)" fill-opacity="1">
<use xlink:href="#glyph-0-4" x="698.1875" y="370.214844"/>
<use xlink:href="#glyph-0-7" x="704.416406" y="370.214844"/>
<use xlink:href="#glyph-0-6" x="710.645313" y="370.214844"/>
<use xlink:href="#glyph-0-0" x="713.757031" y="370.214844"/>
</g>
<g fill="rgb(0%, 0%, 0%)" fill-opacity="1">
<use xlink:href="#glyph-1-0" x="232.273438" y="386.078125"/>
<use xlink:href="#glyph-1-1" x="241.611328" y="386.078125"/>
<use xlink:href="#glyph-1-2" x="248.611328" y="386.078125"/>
<use xlink:href="#glyph-1-3" x="252.500977" y="386.078125"/>
<use xlink:href="#glyph-1-4" x="255.611328" y="386.078125"/>
<use xlink:href="#glyph-1-5" x="267.273438" y="386.078125"/>
<use xlink:href="#glyph-1-2" x="275.05957" y="386.078125"/>
<use xlink:href="#glyph-1-3" x="278.949219" y="386.078125"/>
<use xlink:href="#glyph-1-6" x="282.05957" y="386.078125"/>
<use xlink:href="#glyph-1-7" x="289.845703" y="386.078125"/>
<use xlink:href="#glyph-1-8" x="297.631836" y="386.078125"/>
<use xlink:href="#glyph-1-9" x="301.521484" y="386.078125"/>
<use xlink:href="#glyph-1-10" x="309.307617" y="386.078125"/>
<use xlink:href="#glyph-1-8" x="317.09375" y="386.078125"/>
<use xlink:href="#glyph-1-11" x="320.983398" y="386.078125"/>
<use xlink:href="#glyph-1-5" x="324.09375" y="386.078125"/>
<use xlink:href="#glyph-1-8" x="331.879883" y="386.078125"/>
<use xlink:href="#glyph-1-12" x="335.769531" y="386.078125"/>
<use xlink:href="#glyph-1-10" x="343.555664" y="386.078125"/>
<use xlink:href="#glyph-1-7" x="351.341797" y="386.078125"/>
<use xlink:href="#glyph-1-2" x="359.12793" y="386.078125"/>
<use xlink:href="#glyph-1-10" x="363.017578" y="386.078125"/>
<use xlink:href="#glyph-1-8" x="370.803711" y="386.078125"/>
<use xlink:href="#glyph-1-9" x="374.693359" y="386.078125"/>
<use xlink:href="#glyph-1-10" x="382.479492" y="386.078125"/>
<use xlink:href="#glyph-1-8" x="390.265625" y="386.078125"/>
<use xlink:href="#glyph-1-11" x="394.155273" y="386.078125"/>
<use xlink:href="#glyph-1-13" x="397.265625" y="386.078125"/>
<use xlink:href="#glyph-1-14" x="399.938477" y="386.078125"/>
<use xlink:href="#glyph-1-15" x="407.724609" y="386.078125"/>
<use xlink:href="#glyph-1-16" x="414.724609" y="386.078125"/>
<use xlink:href="#glyph-1-5" x="422.510742" y="386.078125"/>
<use xlink:href="#glyph-1-7" x="430.296875" y="386.078125"/>
<use xlink:href="#glyph-1-2" x="438.083008" y="386.078125"/>
<use xlink:href="#glyph-1-3" x="441.972656" y="386.078125"/>
<use xlink:href="#glyph-1-11" x="445.083008" y="386.078125"/>
<use xlink:href="#glyph-1-11" x="448.193359" y="386.078125"/>
<use xlink:href="#glyph-1-6" x="451.303711" y="386.078125"/>
<use xlink:href="#glyph-1-7" x="459.089844" y="386.078125"/>
<use xlink:href="#glyph-1-8" x="466.875977" y="386.078125"/>
<use xlink:href="#glyph-1-17" x="470.765625" y="386.078125"/>
<use xlink:href="#glyph-1-6" x="478.551758" y="386.078125"/>
<use xlink:href="#glyph-1-6" x="486.337891" y="386.078125"/>
<use xlink:href="#glyph-1-2" x="494.124023" y="386.078125"/>
<use xlink:href="#glyph-1-1" x="498.013672" y="386.078125"/>
<use xlink:href="#glyph-1-2" x="505.013672" y="386.078125"/>
<use xlink:href="#glyph-1-18" x="508.90332" y="386.078125"/>
<use xlink:href="#glyph-1-5" x="513.56543" y="386.078125"/>
<use xlink:href="#glyph-1-12" x="521.351562" y="386.078125"/>
</g>
<g fill="rgb(0%, 0%, 0%)" fill-opacity="1">
<use xlink:href="#glyph-2-0" x="16.996094" y="236.152344"/>
<use xlink:href="#glyph-2-1" x="16.996094" y="227.600586"/>
<use xlink:href="#glyph-2-2" x="16.996094" y="222.938477"/>
<use xlink:href="#glyph-2-3" x="16.996094" y="215.152344"/>
<use xlink:href="#glyph-2-4" x="16.996094" y="207.366211"/>
<use xlink:href="#glyph-2-5" x="16.996094" y="199.580078"/>
<use xlink:href="#glyph-2-6" x="16.996094" y="191.793945"/>
<use xlink:href="#glyph-2-7" x="16.996094" y="184.007812"/>
<use xlink:href="#glyph-2-5" x="16.996094" y="177.007812"/>
</g>
<g fill="rgb(0%, 0%, 0%)" fill-opacity="1">
<use xlink:href="#glyph-1-12" x="48.390625" y="39.53125"/>
<use xlink:href="#glyph-1-10" x="56.176758" y="39.53125"/>
<use xlink:href="#glyph-1-18" x="63.962891" y="39.53125"/>
<use xlink:href="#glyph-1-15" x="68.625" y="39.53125"/>
<use xlink:href="#glyph-1-10" x="75.625" y="39.53125"/>
<use xlink:href="#glyph-1-7" x="83.411133" y="39.53125"/>
<use xlink:href="#glyph-1-2" x="91.197266" y="39.53125"/>
<use xlink:href="#glyph-1-3" x="95.086914" y="39.53125"/>
<use xlink:href="#glyph-1-11" x="98.197266" y="39.53125"/>
<use xlink:href="#glyph-1-10" x="101.307617" y="39.53125"/>
<use xlink:href="#glyph-1-8" x="109.09375" y="39.53125"/>
<use xlink:href="#glyph-1-19" x="112.983398" y="39.53125"/>
<use xlink:href="#glyph-1-2" x="117.645508" y="39.53125"/>
<use xlink:href="#glyph-1-3" x="121.535156" y="39.53125"/>
<use xlink:href="#glyph-1-18" x="124.645508" y="39.53125"/>
<use xlink:href="#glyph-1-10" x="129.307617" y="39.53125"/>
<use xlink:href="#glyph-1-2" x="137.09375" y="39.53125"/>
<use xlink:href="#glyph-1-1" x="140.983398" y="39.53125"/>
<use xlink:href="#glyph-1-20" x="147.983398" y="39.53125"/>
<use xlink:href="#glyph-1-21" x="152.645508" y="39.53125"/>
<use xlink:href="#glyph-1-8" x="156.535156" y="39.53125"/>
<use xlink:href="#glyph-1-10" x="160.424805" y="39.53125"/>
<use xlink:href="#glyph-1-18" x="168.210938" y="39.53125"/>
<use xlink:href="#glyph-1-18" x="172.873047" y="39.53125"/>
<use xlink:href="#glyph-1-10" x="177.535156" y="39.53125"/>
<use xlink:href="#glyph-1-22" x="185.321289" y="39.53125"/>
<use xlink:href="#glyph-1-18" x="193.107422" y="39.53125"/>
<use xlink:href="#glyph-1-8" x="197.769531" y="39.53125"/>
<use xlink:href="#glyph-1-2" x="201.65918" y="39.53125"/>
<use xlink:href="#glyph-1-23" x="205.548828" y="39.53125"/>
<use xlink:href="#glyph-1-12" x="212.548828" y="39.53125"/>
<use xlink:href="#glyph-1-10" x="220.334961" y="39.53125"/>
<use xlink:href="#glyph-1-8" x="228.121094" y="39.53125"/>
<use xlink:href="#glyph-1-19" x="232.010742" y="39.53125"/>
<use xlink:href="#glyph-1-2" x="236.672852" y="39.53125"/>
<use xlink:href="#glyph-1-3" x="240.5625" y="39.53125"/>
<use xlink:href="#glyph-1-18" x="243.672852" y="39.53125"/>
<use xlink:href="#glyph-1-10" x="248.334961" y="39.53125"/>
<use xlink:href="#glyph-1-2" x="256.121094" y="39.53125"/>
<use xlink:href="#glyph-1-1" x="260.010742" y="39.53125"/>
<use xlink:href="#glyph-1-8" x="267.010742" y="39.53125"/>
<use xlink:href="#glyph-1-11" x="270.900391" y="39.53125"/>
<use xlink:href="#glyph-1-6" x="274.010742" y="39.53125"/>
<use xlink:href="#glyph-1-7" x="281.796875" y="39.53125"/>
<use xlink:href="#glyph-1-24" x="289.583008" y="39.53125"/>
<use xlink:href="#glyph-1-1" x="297.369141" y="39.53125"/>
<use xlink:href="#glyph-1-20" x="304.369141" y="39.53125"/>
<use xlink:href="#glyph-1-8" x="309.03125" y="39.53125"/>
<use xlink:href="#glyph-1-10" x="312.920898" y="39.53125"/>
<use xlink:href="#glyph-1-2" x="320.707031" y="39.53125"/>
<use xlink:href="#glyph-1-8" x="324.59668" y="39.53125"/>
<use xlink:href="#glyph-1-2" x="328.486328" y="39.53125"/>
<use xlink:href="#glyph-1-16" x="332.375977" y="39.53125"/>
<use xlink:href="#glyph-1-14" x="340.162109" y="39.53125"/>
<use xlink:href="#glyph-1-6" x="347.948242" y="39.53125"/>
<use xlink:href="#glyph-1-18" x="355.734375" y="39.53125"/>
<use xlink:href="#glyph-1-3" x="360.396484" y="39.53125"/>
<use xlink:href="#glyph-1-10" x="363.506836" y="39.53125"/>
<use xlink:href="#glyph-1-8" x="371.292969" y="39.53125"/>
<use xlink:href="#glyph-1-19" x="375.182617" y="39.53125"/>
<use xlink:href="#glyph-1-2" x="379.844727" y="39.53125"/>
<use xlink:href="#glyph-1-18" x="383.734375" y="39.53125"/>
<use xlink:href="#glyph-1-5" x="388.396484" y="39.53125"/>
<use xlink:href="#glyph-1-3" x="396.182617" y="39.53125"/>
<use xlink:href="#glyph-1-2" x="399.292969" y="39.53125"/>
<use xlink:href="#glyph-1-8" x="403.182617" y="39.53125"/>
<use xlink:href="#glyph-1-12" x="407.072266" y="39.53125"/>
<use xlink:href="#glyph-1-11" x="414.858398" y="39.53125"/>
<use xlink:href="#glyph-1-10" x="417.96875" y="39.53125"/>
<use xlink:href="#glyph-1-3" x="425.754883" y="39.53125"/>
<use xlink:href="#glyph-1-7" x="428.865234" y="39.53125"/>
<use xlink:href="#glyph-1-20" x="436.651367" y="39.53125"/>
</g>
<g fill="rgb(0%, 0%, 0%)" fill-opacity="1">
<use xlink:href="#glyph-3-0" x="48.390625" y="19"/>
<use xlink:href="#glyph-3-1" x="53.058203" y="19"/>
<use xlink:href="#glyph-3-2" x="62.401562" y="19"/>
<use xlink:href="#glyph-3-3" x="67.069141" y="19"/>
<use xlink:href="#glyph-3-4" x="76.4125" y="19"/>
<use xlink:href="#glyph-3-5" x="82.007031" y="19"/>
<use xlink:href="#glyph-3-6" x="90.407031" y="19"/>
<use xlink:href="#glyph-3-7" x="99.750391" y="19"/>
<use xlink:href="#glyph-3-7" x="103.482813" y="19"/>
<use xlink:href="#glyph-3-3" x="107.215234" y="19"/>
<use xlink:href="#glyph-3-8" x="116.558594" y="19"/>
<use xlink:href="#glyph-3-9" x="121.226172" y="19"/>
<use xlink:href="#glyph-3-3" x="130.569531" y="19"/>
<use xlink:href="#glyph-3-8" x="139.912891" y="19"/>
<use xlink:href="#glyph-3-10" x="144.580469" y="19"/>
<use xlink:href="#glyph-3-11" x="152.980469" y="19"/>
<use xlink:href="#glyph-3-1" x="162.323828" y="19"/>
<use xlink:href="#glyph-3-12" x="171.667188" y="19"/>
<use xlink:href="#glyph-3-13" x="176.334766" y="19"/>
<use xlink:href="#glyph-3-6" x="180.067188" y="19"/>
<use xlink:href="#glyph-3-1" x="189.410547" y="19"/>
<use xlink:href="#glyph-3-10" x="198.753906" y="19"/>
<use xlink:href="#glyph-3-3" x="207.153906" y="19"/>
<use xlink:href="#glyph-3-8" x="216.497266" y="19"/>
<use xlink:href="#glyph-3-14" x="221.164844" y="19"/>
<use xlink:href="#glyph-3-8" x="230.508203" y="19"/>
<use xlink:href="#glyph-3-15" x="235.175781" y="19"/>
<use xlink:href="#glyph-3-16" x="244.519141" y="19"/>
<use xlink:href="#glyph-3-17" x="253.8625" y="19"/>
<use xlink:href="#glyph-3-8" x="268.800391" y="19"/>
<use xlink:href="#glyph-3-10" x="273.467969" y="19"/>
<use xlink:href="#glyph-3-6" x="281.867969" y="19"/>
<use xlink:href="#glyph-3-7" x="291.211328" y="19"/>
<use xlink:href="#glyph-3-10" x="294.94375" y="19"/>
<use xlink:href="#glyph-3-18" x="303.34375" y="19"/>
<use xlink:href="#glyph-3-7" x="312.687109" y="19"/>
<use xlink:href="#glyph-3-19" x="316.419531" y="19"/>
<use xlink:href="#glyph-3-8" x="325.762891" y="19"/>
<use xlink:href="#glyph-3-20" x="330.430469" y="19"/>
<use xlink:href="#glyph-3-3" x="338.830469" y="19"/>
<use xlink:href="#glyph-3-7" x="348.173828" y="19"/>
<use xlink:href="#glyph-3-11" x="351.90625" y="19"/>
<use xlink:href="#glyph-3-1" x="361.249609" y="19"/>
<use xlink:href="#glyph-3-8" x="370.592969" y="19"/>
<use xlink:href="#glyph-3-9" x="375.260547" y="19"/>
<use xlink:href="#glyph-3-13" x="384.603906" y="19"/>
<use xlink:href="#glyph-3-12" x="388.336328" y="19"/>
<use xlink:href="#glyph-3-12" x="393.003906" y="19"/>
<use xlink:href="#glyph-3-19" x="397.671484" y="19"/>
<use xlink:href="#glyph-3-4" x="407.014844" y="19"/>
<use xlink:href="#glyph-3-3" x="412.609375" y="19"/>
<use xlink:href="#glyph-3-1" x="421.952734" y="19"/>
<use xlink:href="#glyph-3-2" x="431.296094" y="19"/>
<use xlink:href="#glyph-3-3" x="435.963672" y="19"/>
<use xlink:href="#glyph-3-20" x="445.307031" y="19"/>
<use xlink:href="#glyph-3-8" x="453.707031" y="19"/>
<use xlink:href="#glyph-3-21" x="458.374609" y="19"/>
<use xlink:href="#glyph-3-19" x="472.369141" y="19"/>
<use xlink:href="#glyph-3-2" x="481.7125" y="19"/>
<use xlink:href="#glyph-3-22" x="486.380078" y="19"/>
<use xlink:href="#glyph-3-11" x="495.723437" y="19"/>
<use xlink:href="#glyph-3-9" x="505.066797" y="19"/>
<use xlink:href="#glyph-3-3" x="514.410156" y="19"/>
<use xlink:href="#glyph-3-20" x="523.753516" y="19"/>
</g>
</svg>
