<?xml version="1.0" encoding="UTF-8"?>
<svg xmlns="http://www.w3.org/2000/svg" xmlns:xlink="http://www.w3.org/1999/xlink" width="576pt" height="342pt" viewBox="0 0 576 342">
<defs>
<g>
<g id="glyph-0-0">
<path d="M 0.464844 -3.953125 C 0.460938 -4.898438 0.558594 -5.660156 0.757812 -6.242188 C 0.949219 -6.816406 1.238281 -7.261719 1.625 -7.578125 C 2.007812 -7.890625 2.492188 -8.050781 3.078125 -8.050781 C 3.503906 -8.050781 3.882812 -7.960938 4.210938 -7.789062 C 4.535156 -7.613281 4.804688 -7.363281 5.015625 -7.039062 C 5.226562 -6.710938 5.390625 -6.316406 5.511719 -5.847656 C 5.628906 -5.378906 5.6875 -4.746094 5.691406 -3.953125 C 5.6875 -3.011719 5.59375 -2.253906 5.402344 -1.675781 C 5.207031 -1.097656 4.917969 -0.648438 4.535156 -0.335938 C 4.152344 -0.0195312 3.664062 0.132812 3.078125 0.136719 C 2.300781 0.132812 1.695312 -0.140625 1.257812 -0.695312 C 0.726562 -1.359375 0.460938 -2.445312 0.464844 -3.953125 Z M 1.476562 -3.953125 C 1.476562 -2.636719 1.628906 -1.761719 1.9375 -1.324219 C 2.246094 -0.886719 2.625 -0.667969 3.078125 -0.671875 C 3.527344 -0.667969 3.910156 -0.886719 4.21875 -1.328125 C 4.523438 -1.761719 4.675781 -2.636719 4.679688 -3.953125 C 4.675781 -5.269531 4.523438 -6.144531 4.21875 -6.582031 C 3.910156 -7.011719 3.523438 -7.230469 3.066406 -7.234375 C 2.613281 -7.230469 2.253906 -7.039062 1.984375 -6.660156 C 1.644531 -6.171875 1.476562 -5.269531 1.476562 -3.953125 Z M 1.476562 -3.953125 "/>
</g>
<g id="glyph-0-1">
<path d="M 0.464844 -2.101562 L 1.5 -2.1875 C 1.574219 -1.679688 1.75 -1.300781 2.03125 -1.050781 C 2.308594 -0.792969 2.644531 -0.667969 3.039062 -0.671875 C 3.511719 -0.667969 3.914062 -0.847656 4.242188 -1.207031 C 4.570312 -1.566406 4.734375 -2.039062 4.734375 -2.628906 C 4.734375 -3.1875 4.574219 -3.628906 4.261719 -3.957031 C 3.941406 -4.277344 3.53125 -4.441406 3.023438 -4.445312 C 2.703125 -4.441406 2.414062 -4.371094 2.164062 -4.230469 C 1.90625 -4.085938 1.707031 -3.898438 1.5625 -3.667969 L 0.640625 -3.789062 L 1.417969 -7.90625 L 5.402344 -7.90625 L 5.402344 -6.96875 L 2.203125 -6.96875 L 1.773438 -4.8125 C 2.25 -5.144531 2.753906 -5.3125 3.285156 -5.316406 C 3.984375 -5.3125 4.574219 -5.070312 5.058594 -4.585938 C 5.535156 -4.097656 5.777344 -3.476562 5.78125 -2.71875 C 5.777344 -1.992188 5.566406 -1.363281 5.144531 -0.835938 C 4.628906 -0.1875 3.925781 0.132812 3.039062 0.136719 C 2.308594 0.132812 1.714844 -0.0664062 1.253906 -0.476562 C 0.792969 -0.882812 0.527344 -1.425781 0.464844 -2.101562 Z M 0.464844 -2.101562 "/>
</g>
<g id="glyph-0-2">
<path d="M 4.171875 0 L 3.1875 0 L 3.1875 -6.273438 C 2.949219 -6.042969 2.636719 -5.816406 2.253906 -5.59375 C 1.867188 -5.363281 1.523438 -5.195312 1.21875 -5.085938 L 1.21875 -6.039062 C 1.769531 -6.292969 2.25 -6.605469 2.664062 -6.976562 C 3.074219 -7.34375 3.367188 -7.703125 3.539062 -8.050781 L 4.171875 -8.050781 Z M 4.171875 0 "/>
</g>
<g id="glyph-0-3">
<path d="M 1.015625 0 L 1.015625 -1.121094 L 2.136719 -1.121094 L 2.136719 0 Z M 1.015625 0 "/>
</g>
<g id="glyph-0-4">
<path d="M 0.46875 -2.117188 L 1.453125 -2.246094 C 1.566406 -1.683594 1.757812 -1.28125 2.03125 -1.039062 C 2.300781 -0.789062 2.632812 -0.667969 3.023438 -0.671875 C 3.484375 -0.667969 3.875 -0.828125 4.195312 -1.152344 C 4.515625 -1.472656 4.675781 -1.871094 4.675781 -2.347656 C 4.675781 -2.796875 4.527344 -3.167969 4.230469 -3.464844 C 3.933594 -3.753906 3.558594 -3.902344 3.105469 -3.90625 C 2.917969 -3.902344 2.683594 -3.867188 2.410156 -3.796875 L 2.519531 -4.660156 C 2.585938 -4.648438 2.636719 -4.644531 2.679688 -4.648438 C 3.09375 -4.644531 3.472656 -4.753906 3.8125 -4.976562 C 4.144531 -5.191406 4.3125 -5.53125 4.316406 -5.988281 C 4.3125 -6.347656 4.191406 -6.644531 3.949219 -6.886719 C 3.703125 -7.121094 3.386719 -7.242188 3.003906 -7.242188 C 2.617188 -7.242188 2.296875 -7.121094 2.046875 -6.878906 C 1.789062 -6.636719 1.625 -6.273438 1.554688 -5.796875 L 0.570312 -5.972656 C 0.6875 -6.628906 0.960938 -7.140625 1.386719 -7.503906 C 1.8125 -7.867188 2.34375 -8.050781 2.980469 -8.050781 C 3.414062 -8.050781 3.816406 -7.957031 4.1875 -7.769531 C 4.554688 -7.582031 4.835938 -7.324219 5.035156 -7 C 5.226562 -6.671875 5.324219 -6.328125 5.328125 -5.964844 C 5.324219 -5.617188 5.230469 -5.300781 5.046875 -5.019531 C 4.859375 -4.734375 4.585938 -4.507812 4.222656 -4.34375 C 4.695312 -4.230469 5.0625 -4.003906 5.324219 -3.660156 C 5.585938 -3.3125 5.71875 -2.882812 5.71875 -2.367188 C 5.71875 -1.664062 5.460938 -1.070312 4.953125 -0.585938 C 4.4375 -0.101562 3.792969 0.140625 3.019531 0.140625 C 2.3125 0.140625 1.730469 -0.0664062 1.265625 -0.488281 C 0.800781 -0.902344 0.535156 -1.445312 0.46875 -2.117188 Z M 0.46875 -2.117188 "/>
</g>
<g id="glyph-0-5">
<path d="M 3.621094 0 L 3.621094 -1.917969 L 0.140625 -1.917969 L 0.140625 -2.820312 L 3.800781 -8.015625 L 4.605469 -8.015625 L 4.605469 -2.820312 L 5.6875 -2.820312 L 5.6875 -1.917969 L 4.605469 -1.917969 L 4.605469 0 Z M 3.621094 -2.820312 L 3.621094 -6.4375 L 1.109375 -2.820312 Z M 3.621094 -2.820312 "/>
</g>
<g id="glyph-0-6">
<path d="M 5.574219 -6.054688 L 4.59375 -5.976562 C 4.503906 -6.363281 4.378906 -6.644531 4.222656 -6.820312 C 3.953125 -7.101562 3.625 -7.242188 3.238281 -7.242188 C 2.921875 -7.242188 2.644531 -7.152344 2.410156 -6.976562 C 2.097656 -6.75 1.855469 -6.421875 1.675781 -5.988281 C 1.496094 -5.550781 1.402344 -4.929688 1.398438 -4.132812 C 1.632812 -4.492188 1.921875 -4.761719 2.269531 -4.9375 C 2.609375 -5.109375 2.96875 -5.195312 3.347656 -5.199219 C 4 -5.195312 4.558594 -4.953125 5.023438 -4.472656 C 5.480469 -3.988281 5.710938 -3.367188 5.714844 -2.601562 C 5.710938 -2.097656 5.601562 -1.628906 5.386719 -1.199219 C 5.167969 -0.765625 4.871094 -0.433594 4.492188 -0.207031 C 4.113281 0.0234375 3.683594 0.132812 3.203125 0.136719 C 2.378906 0.132812 1.710938 -0.164062 1.195312 -0.765625 C 0.679688 -1.367188 0.421875 -2.363281 0.421875 -3.75 C 0.421875 -5.296875 0.707031 -6.421875 1.28125 -7.132812 C 1.777344 -7.742188 2.449219 -8.050781 3.296875 -8.050781 C 3.925781 -8.050781 4.441406 -7.871094 4.847656 -7.519531 C 5.246094 -7.160156 5.488281 -6.671875 5.574219 -6.054688 Z M 1.554688 -2.597656 C 1.550781 -2.253906 1.625 -1.929688 1.769531 -1.625 C 1.910156 -1.3125 2.109375 -1.078125 2.371094 -0.914062 C 2.628906 -0.75 2.902344 -0.667969 3.1875 -0.671875 C 3.601562 -0.667969 3.957031 -0.835938 4.257812 -1.175781 C 4.554688 -1.507812 4.703125 -1.964844 4.707031 -2.542969 C 4.703125 -3.097656 4.558594 -3.53125 4.265625 -3.851562 C 3.96875 -4.167969 3.59375 -4.328125 3.148438 -4.332031 C 2.703125 -4.328125 2.328125 -4.167969 2.019531 -3.851562 C 1.707031 -3.53125 1.550781 -3.113281 1.554688 -2.597656 Z M 1.554688 -2.597656 "/>
</g>
<g id="glyph-0-7">
<path d="M 0.53125 -6.96875 L 0.53125 -7.914062 L 5.71875 -7.914062 L 5.71875 -7.148438 C 5.207031 -6.601562 4.699219 -5.878906 4.199219 -4.980469 C 3.695312 -4.082031 3.308594 -3.15625 3.039062 -2.203125 C 2.839844 -1.53125 2.714844 -0.796875 2.664062 0 L 1.652344 0 C 1.660156 -0.628906 1.78125 -1.390625 2.023438 -2.285156 C 2.257812 -3.175781 2.597656 -4.035156 3.042969 -4.867188 C 3.480469 -5.695312 3.953125 -6.394531 4.457031 -6.96875 Z M 0.53125 -6.96875 "/>
</g>
<g id="glyph-1-0">
<path d="M 1.078125 0 L 1.078125 -10.023438 L 4.859375 -10.023438 C 5.523438 -10.019531 6.03125 -9.988281 6.382812 -9.925781 C 6.875 -9.84375 7.289062 -9.6875 7.621094 -9.457031 C 7.953125 -9.226562 8.222656 -8.902344 8.425781 -8.488281 C 8.628906 -8.070312 8.730469 -7.617188 8.730469 -7.125 C 8.730469 -6.269531 8.457031 -5.546875 7.914062 -4.957031 C 7.371094 -4.367188 6.390625 -4.070312 4.976562 -4.074219 L 2.40625 -4.074219 L 2.40625 0 Z M 2.40625 -5.257812 L 4.996094 -5.257812 C 5.851562 -5.253906 6.460938 -5.414062 6.820312 -5.734375 C 7.179688 -6.050781 7.359375 -6.5 7.363281 -7.082031 C 7.359375 -7.5 7.253906 -7.859375 7.042969 -8.15625 C 6.832031 -8.453125 6.550781 -8.648438 6.207031 -8.75 C 5.980469 -8.804688 5.570312 -8.835938 4.96875 -8.839844 L 2.40625 -8.839844 Z M 2.40625 -5.257812 "/>
</g>
<g id="glyph-1-1">
<path d="M 0.910156 0 L 0.910156 -7.257812 L 2.015625 -7.257812 L 2.015625 -6.160156 C 2.296875 -6.667969 2.554688 -7.007812 2.796875 -7.175781 C 3.03125 -7.335938 3.296875 -7.417969 3.589844 -7.421875 C 4 -7.417969 4.421875 -7.285156 4.851562 -7.027344 L 4.429688 -5.886719 C 4.125 -6.0625 3.824219 -6.152344 3.527344 -6.152344 C 3.257812 -6.152344 3.015625 -6.070312 2.800781 -5.910156 C 2.585938 -5.746094 2.433594 -5.519531 2.34375 -5.234375 C 2.207031 -4.792969 2.136719 -4.316406 2.140625 -3.800781 L 2.140625 0 Z M 0.910156 0 "/>
</g>
<g id="glyph-1-2">
<path d="M 0.464844 -3.628906 C 0.460938 -4.972656 0.835938 -5.96875 1.585938 -6.617188 C 2.207031 -7.148438 2.96875 -7.417969 3.867188 -7.421875 C 4.867188 -7.417969 5.683594 -7.089844 6.316406 -6.441406 C 6.949219 -5.785156 7.265625 -4.882812 7.265625 -3.734375 C 7.265625 -2.796875 7.125 -2.0625 6.84375 -1.527344 C 6.5625 -0.992188 6.152344 -0.578125 5.621094 -0.28125 C 5.082031 0.015625 4.5 0.164062 3.867188 0.164062 C 2.851562 0.164062 2.027344 -0.160156 1.402344 -0.8125 C 0.773438 -1.460938 0.460938 -2.398438 0.464844 -3.628906 Z M 1.730469 -3.628906 C 1.726562 -2.695312 1.929688 -2 2.335938 -1.539062 C 2.738281 -1.074219 3.25 -0.84375 3.867188 -0.847656 C 4.476562 -0.84375 4.984375 -1.074219 5.390625 -1.542969 C 5.796875 -2.003906 6 -2.714844 6 -3.671875 C 6 -4.566406 5.792969 -5.246094 5.386719 -5.710938 C 4.976562 -6.171875 4.472656 -6.402344 3.867188 -6.40625 C 3.25 -6.402344 2.738281 -6.171875 2.335938 -5.714844 C 1.929688 -5.25 1.726562 -4.554688 1.730469 -3.628906 Z M 1.730469 -3.628906 "/>
</g>
<g id="glyph-1-3">
<path d="M 0.921875 2.78125 L 0.921875 -7.257812 L 2.042969 -7.257812 L 2.042969 -6.316406 C 2.304688 -6.683594 2.601562 -6.957031 2.9375 -7.144531 C 3.265625 -7.324219 3.671875 -7.417969 4.148438 -7.421875 C 4.765625 -7.417969 5.3125 -7.257812 5.789062 -6.945312 C 6.261719 -6.625 6.617188 -6.175781 6.863281 -5.59375 C 7.101562 -5.011719 7.222656 -4.375 7.226562 -3.683594 C 7.222656 -2.9375 7.089844 -2.269531 6.824219 -1.675781 C 6.554688 -1.082031 6.167969 -0.625 5.664062 -0.308594 C 5.152344 0.0078125 4.617188 0.164062 4.0625 0.164062 C 3.648438 0.164062 3.28125 0.078125 2.957031 -0.09375 C 2.628906 -0.265625 2.359375 -0.484375 2.152344 -0.75 L 2.152344 2.78125 Z M 2.039062 -3.589844 C 2.039062 -2.652344 2.226562 -1.960938 2.605469 -1.515625 C 2.980469 -1.066406 3.4375 -0.84375 3.976562 -0.847656 C 4.519531 -0.84375 4.988281 -1.074219 5.382812 -1.539062 C 5.769531 -2 5.964844 -2.71875 5.96875 -3.691406 C 5.964844 -4.613281 5.773438 -5.304688 5.398438 -5.769531 C 5.015625 -6.226562 4.5625 -6.457031 4.03125 -6.460938 C 3.507812 -6.457031 3.042969 -6.210938 2.640625 -5.726562 C 2.238281 -5.234375 2.039062 -4.523438 2.039062 -3.589844 Z M 2.039062 -3.589844 "/>
</g>
<g id="glyph-1-4">
<path d="M 3.609375 -1.101562 L 3.789062 -0.015625 C 3.4375 0.0585938 3.128906 0.09375 2.859375 0.09375 C 2.410156 0.09375 2.0625 0.0234375 1.816406 -0.117188 C 1.570312 -0.257812 1.394531 -0.441406 1.296875 -0.671875 C 1.195312 -0.902344 1.148438 -1.386719 1.148438 -2.125 L 1.148438 -6.304688 L 0.246094 -6.304688 L 0.246094 -7.257812 L 1.148438 -7.257812 L 1.148438 -9.058594 L 2.371094 -9.796875 L 2.371094 -7.257812 L 3.609375 -7.257812 L 3.609375 -6.304688 L 2.371094 -6.304688 L 2.371094 -2.058594 C 2.367188 -1.703125 2.386719 -1.476562 2.433594 -1.378906 C 2.472656 -1.277344 2.546875 -1.199219 2.648438 -1.140625 C 2.746094 -1.082031 2.886719 -1.054688 3.070312 -1.054688 C 3.203125 -1.054688 3.382812 -1.070312 3.609375 -1.101562 Z M 3.609375 -1.101562 "/>
</g>
<g id="glyph-1-5">
<path d="M 0.929688 -8.605469 L 0.929688 -10.023438 L 2.160156 -10.023438 L 2.160156 -8.605469 Z M 0.929688 0 L 0.929688 -7.257812 L 2.160156 -7.257812 L 2.160156 0 Z M 0.929688 0 "/>
</g>
<g id="glyph-1-6">
<path d="M 0.921875 0 L 0.921875 -7.257812 L 2.03125 -7.257812 L 2.03125 -6.226562 C 2.558594 -7.019531 3.328125 -7.417969 4.339844 -7.421875 C 4.773438 -7.417969 5.175781 -7.339844 5.546875 -7.1875 C 5.910156 -7.027344 6.183594 -6.820312 6.371094 -6.570312 C 6.550781 -6.3125 6.679688 -6.011719 6.753906 -5.660156 C 6.796875 -5.433594 6.820312 -5.035156 6.820312 -4.464844 L 6.820312 0 L 5.59375 0 L 5.59375 -4.414062 C 5.589844 -4.914062 5.542969 -5.289062 5.449219 -5.539062 C 5.351562 -5.785156 5.179688 -5.984375 4.9375 -6.136719 C 4.691406 -6.28125 4.40625 -6.355469 4.082031 -6.359375 C 3.554688 -6.355469 3.101562 -6.191406 2.722656 -5.859375 C 2.339844 -5.523438 2.148438 -4.890625 2.152344 -3.964844 L 2.152344 0 Z M 0.921875 0 "/>
</g>
<g id="glyph-1-7">
</g>
<g id="glyph-1-8">
<path d="M 1.21875 0 L 1.21875 -6.304688 L 0.128906 -6.304688 L 0.128906 -7.257812 L 1.21875 -7.257812 L 1.21875 -8.03125 C 1.21875 -8.519531 1.261719 -8.882812 1.347656 -9.117188 C 1.464844 -9.4375 1.671875 -9.695312 1.972656 -9.894531 C 2.269531 -10.089844 2.6875 -10.1875 3.226562 -10.191406 C 3.570312 -10.1875 3.953125 -10.148438 4.375 -10.070312 L 4.191406 -8.996094 C 3.933594 -9.035156 3.691406 -9.058594 3.464844 -9.0625 C 3.089844 -9.058594 2.828125 -8.980469 2.671875 -8.824219 C 2.515625 -8.664062 2.4375 -8.363281 2.441406 -7.929688 L 2.441406 -7.257812 L 3.855469 -7.257812 L 3.855469 -6.304688 L 2.441406 -6.304688 L 2.441406 0 Z M 1.21875 0 "/>
</g>
<g id="glyph-1-9">
<path d="M 0.695312 0.601562 L 1.894531 0.78125 C 1.941406 1.144531 2.082031 1.414062 2.3125 1.585938 C 2.613281 1.8125 3.03125 1.925781 3.5625 1.929688 C 4.128906 1.925781 4.566406 1.8125 4.878906 1.585938 C 5.1875 1.355469 5.398438 1.035156 5.507812 0.628906 C 5.570312 0.375 5.597656 -0.148438 5.597656 -0.949219 C 5.058594 -0.316406 4.390625 0 3.589844 0 C 2.589844 0 1.816406 -0.359375 1.273438 -1.078125 C 0.722656 -1.796875 0.449219 -2.660156 0.453125 -3.671875 C 0.449219 -4.363281 0.574219 -5.003906 0.828125 -5.589844 C 1.074219 -6.175781 1.4375 -6.625 1.917969 -6.945312 C 2.390625 -7.257812 2.949219 -7.417969 3.59375 -7.421875 C 4.449219 -7.417969 5.15625 -7.070312 5.714844 -6.382812 L 5.714844 -7.257812 L 6.851562 -7.257812 L 6.851562 -0.984375 C 6.847656 0.144531 6.734375 0.945312 6.503906 1.417969 C 6.273438 1.886719 5.90625 2.257812 5.410156 2.535156 C 4.910156 2.804688 4.296875 2.941406 3.570312 2.945312 C 2.699219 2.941406 2 2.746094 1.46875 2.359375 C 0.933594 1.96875 0.675781 1.382812 0.695312 0.601562 Z M 1.714844 -3.757812 C 1.710938 -2.804688 1.898438 -2.113281 2.28125 -1.675781 C 2.65625 -1.238281 3.132812 -1.019531 3.703125 -1.019531 C 4.269531 -1.019531 4.742188 -1.234375 5.128906 -1.671875 C 5.507812 -2.101562 5.699219 -2.785156 5.703125 -3.71875 C 5.699219 -4.605469 5.503906 -5.273438 5.109375 -5.726562 C 4.714844 -6.175781 4.238281 -6.402344 3.683594 -6.40625 C 3.132812 -6.402344 2.667969 -6.179688 2.289062 -5.738281 C 1.902344 -5.289062 1.710938 -4.628906 1.714844 -3.757812 Z M 1.714844 -3.757812 "/>
</g>
<g id="glyph-1-10">
<path d="M 5.890625 -2.335938 L 7.164062 -2.179688 C 6.960938 -1.4375 6.589844 -0.859375 6.046875 -0.449219 C 5.503906 -0.0390625 4.8125 0.164062 3.972656 0.164062 C 2.910156 0.164062 2.066406 -0.160156 1.445312 -0.816406 C 0.820312 -1.464844 0.507812 -2.382812 0.511719 -3.570312 C 0.507812 -4.785156 0.824219 -5.734375 1.453125 -6.410156 C 2.082031 -7.082031 2.898438 -7.417969 3.902344 -7.421875 C 4.871094 -7.417969 5.664062 -7.085938 6.28125 -6.429688 C 6.894531 -5.765625 7.199219 -4.839844 7.203125 -3.644531 C 7.199219 -3.570312 7.199219 -3.460938 7.199219 -3.316406 L 1.785156 -3.316406 C 1.828125 -2.515625 2.054688 -1.902344 2.460938 -1.480469 C 2.867188 -1.054688 3.371094 -0.84375 3.976562 -0.847656 C 4.425781 -0.84375 4.8125 -0.960938 5.132812 -1.203125 C 5.453125 -1.4375 5.703125 -1.816406 5.890625 -2.335938 Z M 1.851562 -4.328125 L 5.90625 -4.328125 C 5.851562 -4.933594 5.695312 -5.390625 5.441406 -5.703125 C 5.046875 -6.171875 4.539062 -6.410156 3.917969 -6.414062 C 3.351562 -6.410156 2.875 -6.21875 2.492188 -5.84375 C 2.101562 -5.460938 1.890625 -4.957031 1.851562 -4.328125 Z M 1.851562 -4.328125 "/>
</g>
<g id="glyph-1-11">
<path d="M 5.660156 -0.894531 C 5.203125 -0.503906 4.761719 -0.230469 4.34375 -0.0742188 C 3.917969 0.0859375 3.46875 0.164062 2.988281 0.164062 C 2.1875 0.164062 1.574219 -0.0273438 1.148438 -0.417969 C 0.71875 -0.804688 0.503906 -1.304688 0.507812 -1.914062 C 0.503906 -2.265625 0.585938 -2.589844 0.75 -2.886719 C 0.910156 -3.179688 1.121094 -3.414062 1.382812 -3.59375 C 1.644531 -3.769531 1.9375 -3.90625 2.269531 -4 C 2.507812 -4.058594 2.875 -4.121094 3.363281 -4.183594 C 4.355469 -4.300781 5.085938 -4.441406 5.558594 -4.609375 C 5.558594 -4.773438 5.558594 -4.878906 5.5625 -4.929688 C 5.558594 -5.425781 5.445312 -5.78125 5.214844 -5.988281 C 4.898438 -6.265625 4.429688 -6.402344 3.8125 -6.40625 C 3.230469 -6.402344 2.804688 -6.300781 2.53125 -6.101562 C 2.253906 -5.894531 2.050781 -5.535156 1.921875 -5.023438 L 0.71875 -5.1875 C 0.824219 -5.699219 1.003906 -6.117188 1.257812 -6.433594 C 1.503906 -6.75 1.867188 -6.992188 2.34375 -7.164062 C 2.816406 -7.332031 3.363281 -7.417969 3.992188 -7.421875 C 4.609375 -7.417969 5.113281 -7.34375 5.503906 -7.203125 C 5.886719 -7.054688 6.171875 -6.871094 6.359375 -6.652344 C 6.539062 -6.429688 6.667969 -6.152344 6.742188 -5.816406 C 6.777344 -5.605469 6.796875 -5.226562 6.800781 -4.683594 L 6.800781 -3.042969 C 6.796875 -1.894531 6.824219 -1.171875 6.878906 -0.871094 C 6.933594 -0.566406 7.035156 -0.277344 7.191406 0 L 5.90625 0 C 5.777344 -0.253906 5.695312 -0.550781 5.660156 -0.894531 Z M 5.558594 -3.644531 C 5.109375 -3.460938 4.4375 -3.304688 3.546875 -3.179688 C 3.039062 -3.105469 2.683594 -3.023438 2.472656 -2.933594 C 2.261719 -2.839844 2.097656 -2.707031 1.988281 -2.53125 C 1.871094 -2.355469 1.816406 -2.160156 1.820312 -1.949219 C 1.816406 -1.617188 1.941406 -1.34375 2.191406 -1.128906 C 2.4375 -0.90625 2.800781 -0.796875 3.28125 -0.800781 C 3.753906 -0.796875 4.175781 -0.898438 4.546875 -1.109375 C 4.914062 -1.3125 5.183594 -1.597656 5.359375 -1.960938 C 5.488281 -2.238281 5.554688 -2.648438 5.558594 -3.191406 Z M 5.558594 -3.644531 "/>
</g>
<g id="glyph-1-12">
<path d="M 0.429688 -2.167969 L 1.648438 -2.359375 C 1.710938 -1.867188 1.902344 -1.492188 2.21875 -1.234375 C 2.527344 -0.972656 2.964844 -0.84375 3.527344 -0.847656 C 4.089844 -0.84375 4.507812 -0.957031 4.785156 -1.191406 C 5.054688 -1.417969 5.191406 -1.691406 5.195312 -2.003906 C 5.191406 -2.28125 5.070312 -2.5 4.832031 -2.660156 C 4.660156 -2.769531 4.242188 -2.90625 3.574219 -3.078125 C 2.671875 -3.300781 2.046875 -3.5 1.699219 -3.667969 C 1.347656 -3.832031 1.082031 -4.058594 0.90625 -4.355469 C 0.722656 -4.644531 0.632812 -4.972656 0.636719 -5.332031 C 0.632812 -5.652344 0.707031 -5.949219 0.855469 -6.230469 C 1.003906 -6.503906 1.203125 -6.734375 1.460938 -6.917969 C 1.648438 -7.054688 1.910156 -7.171875 2.246094 -7.273438 C 2.574219 -7.367188 2.929688 -7.417969 3.308594 -7.421875 C 3.875 -7.417969 4.375 -7.335938 4.808594 -7.175781 C 5.234375 -7.007812 5.550781 -6.785156 5.761719 -6.507812 C 5.964844 -6.226562 6.109375 -5.851562 6.1875 -5.386719 L 4.984375 -5.222656 C 4.925781 -5.589844 4.765625 -5.882812 4.507812 -6.097656 C 4.242188 -6.304688 3.875 -6.410156 3.398438 -6.414062 C 2.832031 -6.410156 2.425781 -6.316406 2.1875 -6.132812 C 1.941406 -5.941406 1.820312 -5.722656 1.824219 -5.476562 C 1.820312 -5.3125 1.871094 -5.167969 1.976562 -5.046875 C 2.070312 -4.910156 2.226562 -4.800781 2.445312 -4.71875 C 2.566406 -4.667969 2.929688 -4.5625 3.535156 -4.402344 C 4.402344 -4.167969 5.011719 -3.980469 5.355469 -3.832031 C 5.699219 -3.683594 5.96875 -3.464844 6.164062 -3.183594 C 6.359375 -2.898438 6.457031 -2.550781 6.460938 -2.132812 C 6.457031 -1.71875 6.335938 -1.332031 6.101562 -0.972656 C 5.859375 -0.609375 5.515625 -0.328125 5.066406 -0.132812 C 4.613281 0.0664062 4.101562 0.164062 3.535156 0.164062 C 2.585938 0.164062 1.867188 -0.03125 1.375 -0.421875 C 0.878906 -0.8125 0.5625 -1.394531 0.429688 -2.167969 Z M 0.429688 -2.167969 "/>
</g>
<g id="glyph-2-0">
<path d="M 0 -1.148438 L -10.023438 -1.148438 L -10.023438 -7.910156 L -8.839844 -7.910156 L -8.839844 -2.476562 L -5.734375 -2.476562 L -5.734375 -7.179688 L -4.554688 -7.179688 L -4.554688 -2.476562 L 0 -2.476562 Z M 0 -1.148438 "/>
</g>
<g id="glyph-2-1">
<path d="M 0 -0.910156 L -7.257812 -0.910156 L -7.257812 -2.015625 L -6.160156 -2.015625 C -6.667969 -2.296875 -7.007812 -2.558594 -7.175781 -2.800781 C -7.335938 -3.039062 -7.417969 -3.300781 -7.421875 -3.589844 C -7.417969 -4 -7.285156 -4.421875 -7.027344 -4.851562 L -5.886719 -4.429688 C -6.0625 -4.128906 -6.152344 -3.828125 -6.152344 -3.527344 C -6.152344 -3.257812 -6.070312 -3.015625 -5.910156 -2.800781 C -5.746094 -2.585938 -5.519531 -2.433594 -5.234375 -2.34375 C -4.792969 -2.207031 -4.316406 -2.136719 -3.800781 -2.140625 L 0 -2.140625 Z M 0 -0.910156 "/>
</g>
<g id="glyph-2-2">
<path d="M -2.335938 -5.890625 L -2.179688 -7.164062 C -1.4375 -6.960938 -0.859375 -6.589844 -0.449219 -6.046875 C -0.0390625 -5.503906 0.164062 -4.8125 0.164062 -3.972656 C 0.164062 -2.910156 -0.160156 -2.066406 -0.816406 -1.445312 C -1.464844 -0.820312 -2.382812 -0.507812 -3.570312 -0.511719 C -4.785156 -0.507812 -5.734375 -0.824219 -6.410156 -1.453125 C -7.082031 -2.082031 -7.417969 -2.898438 -7.421875 -3.902344 C -7.417969 -4.871094 -7.085938 -5.664062 -6.429688 -6.28125 C -5.765625 -6.894531 -4.839844 -7.199219 -3.644531 -7.203125 C -3.570312 -7.199219 -3.460938 -7.199219 -3.316406 -7.199219 L -3.316406 -1.785156 C -2.515625 -1.828125 -1.902344 -2.054688 -1.480469 -2.460938 C -1.054688 -2.867188 -0.84375 -3.371094 -0.847656 -3.976562 C -0.84375 -4.425781 -0.960938 -4.8125 -1.203125 -5.132812 C -1.4375 -5.453125 -1.816406 -5.703125 -2.335938 -5.890625 Z M -4.328125 -1.851562 L -4.328125 -5.90625 C -4.933594 -5.851562 -5.390625 -5.695312 -5.703125 -5.441406 C -6.171875 -5.046875 -6.410156 -4.539062 -6.414062 -3.917969 C -6.410156 -3.351562 -6.21875 -2.875 -5.84375 -2.492188 C -5.460938 -2.101562 -4.957031 -1.890625 -4.328125 -1.851562 Z M -4.328125 -1.851562 "/>
</g>
<g id="glyph-2-3">
<path d="M 2.78125 -5.550781 L -0.773438 -5.550781 C -0.5 -5.355469 -0.273438 -5.089844 -0.101562 -4.746094 C 0.078125 -4.402344 0.164062 -4.035156 0.164062 -3.648438 C 0.164062 -2.785156 -0.179688 -2.042969 -0.867188 -1.425781 C -1.554688 -0.800781 -2.496094 -0.492188 -3.699219 -0.492188 C -4.425781 -0.492188 -5.082031 -0.617188 -5.660156 -0.871094 C -6.238281 -1.121094 -6.675781 -1.488281 -6.972656 -1.972656 C -7.269531 -2.453125 -7.417969 -2.980469 -7.421875 -3.554688 C -7.417969 -4.449219 -7.039062 -5.15625 -6.289062 -5.671875 L -7.257812 -5.675781 L -7.257812 -6.78125 L 2.78125 -6.78125 Z M -3.648438 -1.757812 C -2.714844 -1.757812 -2.015625 -1.953125 -1.546875 -2.34375 C -1.078125 -2.734375 -0.84375 -3.203125 -0.847656 -3.753906 C -0.84375 -4.273438 -1.066406 -4.722656 -1.511719 -5.105469 C -1.957031 -5.480469 -2.632812 -5.671875 -3.539062 -5.671875 C -4.507812 -5.671875 -5.234375 -5.472656 -5.722656 -5.074219 C -6.207031 -4.675781 -6.449219 -4.207031 -6.453125 -3.671875 C -6.449219 -3.136719 -6.222656 -2.683594 -5.773438 -2.3125 C -5.316406 -1.941406 -4.609375 -1.757812 -3.648438 -1.757812 Z M -3.648438 -1.757812 "/>
</g>
<g id="glyph-2-4">
<path d="M 0 -5.679688 L -1.066406 -5.679688 C -0.246094 -5.109375 0.164062 -4.34375 0.164062 -3.375 C 0.164062 -2.945312 0.0820312 -2.542969 -0.0820312 -2.175781 C -0.246094 -1.800781 -0.449219 -1.527344 -0.699219 -1.347656 C -0.945312 -1.167969 -1.25 -1.042969 -1.613281 -0.972656 C -1.851562 -0.917969 -2.234375 -0.890625 -2.761719 -0.894531 L -7.257812 -0.894531 L -7.257812 -2.125 L -3.234375 -2.125 C -2.589844 -2.121094 -2.15625 -2.148438 -1.933594 -2.203125 C -1.609375 -2.277344 -1.355469 -2.4375 -1.171875 -2.691406 C -0.984375 -2.941406 -0.890625 -3.253906 -0.894531 -3.625 C -0.890625 -3.988281 -0.984375 -4.332031 -1.175781 -4.660156 C -1.363281 -4.980469 -1.621094 -5.210938 -1.949219 -5.347656 C -2.273438 -5.480469 -2.746094 -5.546875 -3.371094 -5.550781 L -7.257812 -5.550781 L -7.257812 -6.78125 L 0 -6.78125 Z M 0 -5.679688 "/>
</g>
<g id="glyph-2-5">
<path d="M 0 -0.921875 L -7.257812 -0.921875 L -7.257812 -2.03125 L -6.226562 -2.03125 C -7.019531 -2.5625 -7.417969 -3.332031 -7.421875 -4.339844 C -7.417969 -4.773438 -7.339844 -5.175781 -7.1875 -5.546875 C -7.027344 -5.910156 -6.820312 -6.183594 -6.570312 -6.371094 C -6.3125 -6.550781 -6.011719 -6.679688 -5.660156 -6.753906 C -5.433594 -6.796875 -5.035156 -6.820312 -4.464844 -6.820312 L 0 -6.820312 L 0 -5.59375 L -4.414062 -5.59375 C -4.914062 -5.589844 -5.289062 -5.542969 -5.539062 -5.449219 C -5.785156 -5.351562 -5.984375 -5.179688 -6.136719 -4.9375 C -6.28125 -4.691406 -6.355469 -4.40625 -6.359375 -4.082031 C -6.355469 -3.554688 -6.191406 -3.101562 -5.859375 -2.722656 C -5.523438 -2.339844 -4.890625 -2.148438 -3.964844 -2.152344 L 0 -2.152344 Z M 0 -0.921875 "/>
</g>
<g id="glyph-2-6">
<path d="M -2.660156 -5.660156 L -2.5 -6.871094 C -1.664062 -6.734375 -1.011719 -6.394531 -0.542969 -5.855469 C -0.0703125 -5.308594 0.164062 -4.640625 0.164062 -3.847656 C 0.164062 -2.851562 -0.160156 -2.054688 -0.808594 -1.453125 C -1.457031 -0.847656 -2.386719 -0.542969 -3.601562 -0.546875 C -4.382812 -0.542969 -5.070312 -0.675781 -5.660156 -0.9375 C -6.246094 -1.195312 -6.683594 -1.589844 -6.980469 -2.121094 C -7.269531 -2.652344 -7.417969 -3.230469 -7.421875 -3.855469 C -7.417969 -4.644531 -7.21875 -5.289062 -6.824219 -5.789062 C -6.421875 -6.289062 -5.855469 -6.609375 -5.125 -6.753906 L -4.941406 -5.558594 C -5.425781 -5.441406 -5.792969 -5.238281 -6.042969 -4.953125 C -6.285156 -4.660156 -6.410156 -4.3125 -6.414062 -3.902344 C -6.410156 -3.28125 -6.1875 -2.777344 -5.746094 -2.390625 C -5.296875 -2.003906 -4.59375 -1.808594 -3.636719 -1.8125 C -2.65625 -1.808594 -1.945312 -1.996094 -1.507812 -2.371094 C -1.0625 -2.742188 -0.84375 -3.230469 -0.847656 -3.835938 C -0.84375 -4.316406 -0.992188 -4.71875 -1.289062 -5.042969 C -1.585938 -5.367188 -2.042969 -5.574219 -2.660156 -5.660156 Z M -2.660156 -5.660156 "/>
</g>
<g id="glyph-2-7">
<path d="M 2.796875 -0.867188 L 1.640625 -0.730469 C 1.710938 -0.996094 1.746094 -1.230469 1.75 -1.4375 C 1.746094 -1.703125 1.699219 -1.921875 1.613281 -2.089844 C 1.519531 -2.25 1.394531 -2.386719 1.230469 -2.496094 C 1.105469 -2.570312 0.800781 -2.695312 0.316406 -2.871094 C 0.246094 -2.894531 0.144531 -2.929688 0.015625 -2.980469 L -7.257812 -0.226562 L -7.257812 -1.550781 L -3.054688 -3.0625 C -2.519531 -3.253906 -1.960938 -3.429688 -1.375 -3.589844 C -1.9375 -3.726562 -2.488281 -3.894531 -3.027344 -4.09375 L -7.257812 -5.648438 L -7.257812 -6.878906 L 0.125 -4.117188 C 0.917969 -3.816406 1.46875 -3.585938 1.769531 -3.425781 C 2.175781 -3.203125 2.472656 -2.953125 2.660156 -2.671875 C 2.847656 -2.390625 2.941406 -2.050781 2.945312 -1.660156 C 2.941406 -1.417969 2.890625 -1.15625 2.796875 -0.867188 Z M 2.796875 -0.867188 "/>
</g>
</g>
<clipPath id="clip-0">
<path clip-rule="nonzero" d="M 48.390625 6.972656 L 569.023438 6.972656 L 569.023438 301.917969 L 48.390625 301.917969 Z M 48.390625 6.972656 "/>
</clipPath>
<clipPath id="clip-1">
<path clip-rule="nonzero" d="M 48.390625 235 L 569.023438 235 L 569.023438 237 L 48.390625 237 Z M 48.390625 235 "/>
</clipPath>
<clipPath id="clip-2">
<path clip-rule="nonzero" d="M 48.390625 129 L 569.023438 129 L 569.023438 131 L 48.390625 131 Z M 48.390625 129 "/>
</clipPath>
<clipPath id="clip-3">
<path clip-rule="nonzero" d="M 48.390625 24 L 569.023438 24 L 569.023438 25 L 48.390625 25 Z M 48.390625 24 "/>
</clipPath>
<clipPath id="clip-4">
<path clip-rule="nonzero" d="M 90 6.972656 L 92 6.972656 L 92 301.917969 L 90 301.917969 Z M 90 6.972656 "/>
</clipPath>
<clipPath id="clip-5">
<path clip-rule="nonzero" d="M 185 6.972656 L 186 6.972656 L 186 301.917969 L 185 301.917969 Z M 185 6.972656 "/>
</clipPath>
<clipPath id="clip-6">
<path clip-rule="nonzero" d="M 279 6.972656 L 281 6.972656 L 281 301.917969 L 279 301.917969 Z M 279 6.972656 "/>
</clipPath>
<clipPath id="clip-7">
<path clip-rule="nonzero" d="M 374 6.972656 L 376 6.972656 L 376 301.917969 L 374 301.917969 Z M 374 6.972656 "/>
</clipPath>
<clipPath id="clip-8">
<path clip-rule="nonzero" d="M 469 6.972656 L 470 6.972656 L 470 301.917969 L 469 301.917969 Z M 469 6.972656 "/>
</clipPath>
<clipPath id="clip-9">
<path clip-rule="nonzero" d="M 563 6.972656 L 565 6.972656 L 565 301.917969 L 563 301.917969 Z M 563 6.972656 "/>
</clipPath>
<clipPath id="clip-10">
<path clip-rule="nonzero" d="M 48.390625 287 L 569.023438 287 L 569.023438 290 L 48.390625 290 Z M 48.390625 287 "/>
</clipPath>
<clipPath id="clip-11">
<path clip-rule="nonzero" d="M 48.390625 182 L 569.023438 182 L 569.023438 184 L 48.390625 184 Z M 48.390625 182 "/>
</clipPath>
<clipPath id="clip-12">
<path clip-rule="nonzero" d="M 48.390625 76 L 569.023438 76 L 569.023438 79 L 48.390625 79 Z M 48.390625 76 "/>
</clipPath>
<clipPath id="clip-13">
<path clip-rule="nonzero" d="M 137 6.972656 L 139 6.972656 L 139 301.917969 L 137 301.917969 Z M 137 6.972656 "/>
</clipPath>
<clipPath id="clip-14">
<path clip-rule="nonzero" d="M 232 6.972656 L 234 6.972656 L 234 301.917969 L 232 301.917969 Z M 232 6.972656 "/>
</clipPath>
<clipPath id="clip-15">
<path clip-rule="nonzero" d="M 326 6.972656 L 329 6.972656 L 329 301.917969 L 326 301.917969 Z M 326 6.972656 "/>
</clipPath>
<clipPath id="clip-16">
<path clip-rule="nonzero" d="M 421 6.972656 L 423 6.972656 L 423 301.917969 L 421 301.917969 Z M 421 6.972656 "/>
</clipPath>
<clipPath id="clip-17">
<path clip-rule="nonzero" d="M 516 6.972656 L 518 6.972656 L 518 301.917969 L 516 301.917969 Z M 516 6.972656 "/>
</clipPath>
<clipPath id="clip-18">
<path clip-rule="nonzero" d="M 48.390625 6.972656 L 569.023438 6.972656 L 569.023438 301.917969 L 48.390625 301.917969 Z M 48.390625 6.972656 "/>
</clipPath>
</defs>
<rect x="-57.6" y="-34.2" width="691.2" height="410.4" fill="rgb(100%, 100%, 100%)" fill-opacity="1"/>
<rect x="-57.6" y="-34.2" width="691.2" height="410.4" fill="rgb(100%, 100%, 100%)" fill-opacity="1"/>
<path fill="none" stroke-width="1.357972" stroke-linecap="round" stroke-linejoin="round" stroke="rgb(100%, 100%, 100%)" stroke-opacity="1" stroke-miterlimit="10" d="M 0 342 L 576 342 L 576 0 L 0 0 Z M 0 342 "/>
<g clip-path="url(#clip-0)">
<path fill-rule="nonzero" fill="rgb(100%, 100%, 100%)" fill-opacity="1" d="M 48.390625 301.921875 L 569.023438 301.921875 L 569.023438 6.976562 L 48.390625 6.976562 Z M 48.390625 301.921875 "/>
</g>
<g clip-path="url(#clip-1)">
<path fill="none" stroke-width="0.678986" stroke-linecap="butt" stroke-linejoin="round" stroke="rgb(92.156863%, 92.156863%, 92.156863%)" stroke-opacity="1" stroke-miterlimit="10" d="M 48.390625 235.730469 L 569.027344 235.730469 "/>
</g>
<g clip-path="url(#clip-2)">
<path fill="none" stroke-width="0.678986" stroke-linecap="butt" stroke-linejoin="round" stroke="rgb(92.156863%, 92.156863%, 92.156863%)" stroke-opacity="1" stroke-miterlimit="10" d="M 48.390625 130.167969 L 569.027344 130.167969 "/>
</g>
<g clip-path="url(#clip-3)">
<path fill="none" stroke-width="0.678986" stroke-linecap="butt" stroke-linejoin="round" stroke="rgb(92.156863%, 92.156863%, 92.156863%)" stroke-opacity="1" stroke-miterlimit="10" d="M 48.390625 24.601562 L 569.027344 24.601562 "/>
</g>
<g clip-path="url(#clip-4)">
<path fill="none" stroke-width="0.678986" stroke-linecap="butt" stroke-linejoin="round" stroke="rgb(92.156863%, 92.156863%, 92.156863%)" stroke-opacity="1" stroke-miterlimit="10" d="M 90.988281 301.921875 L 90.988281 6.972656 "/>
</g>
<g clip-path="url(#clip-5)">
<path fill="none" stroke-width="0.678986" stroke-linecap="butt" stroke-linejoin="round" stroke="rgb(92.156863%, 92.156863%, 92.156863%)" stroke-opacity="1" stroke-miterlimit="10" d="M 185.648438 301.921875 L 185.648438 6.972656 "/>
</g>
<g clip-path="url(#clip-6)">
<path fill="none" stroke-width="0.678986" stroke-linecap="butt" stroke-linejoin="round" stroke="rgb(92.156863%, 92.156863%, 92.156863%)" stroke-opacity="1" stroke-miterlimit="10" d="M 280.3125 301.921875 L 280.3125 6.972656 "/>
</g>
<g clip-path="url(#clip-7)">
<path fill="none" stroke-width="0.678986" stroke-linecap="butt" stroke-linejoin="round" stroke="rgb(92.156863%, 92.156863%, 92.156863%)" stroke-opacity="1" stroke-miterlimit="10" d="M 374.972656 301.921875 L 374.972656 6.972656 "/>
</g>
<g clip-path="url(#clip-8)">
<path fill="none" stroke-width="0.678986" stroke-linecap="butt" stroke-linejoin="round" stroke="rgb(92.156863%, 92.156863%, 92.156863%)" stroke-opacity="1" stroke-miterlimit="10" d="M 469.632812 301.921875 L 469.632812 6.972656 "/>
</g>
<g clip-path="url(#clip-9)">
<path fill="none" stroke-width="0.678986" stroke-linecap="butt" stroke-linejoin="round" stroke="rgb(92.156863%, 92.156863%, 92.156863%)" stroke-opacity="1" stroke-miterlimit="10" d="M 564.292969 301.921875 L 564.292969 6.972656 "/>
</g>
<g clip-path="url(#clip-10)">
<path fill="none" stroke-width="1.357972" stroke-linecap="butt" stroke-linejoin="round" stroke="rgb(92.156863%, 92.156863%, 92.156863%)" stroke-opacity="1" stroke-miterlimit="10" d="M 48.390625 288.515625 L 569.027344 288.515625 "/>
</g>
<g clip-path="url(#clip-11)">
<path fill="none" stroke-width="1.357972" stroke-linecap="butt" stroke-linejoin="round" stroke="rgb(92.156863%, 92.156863%, 92.156863%)" stroke-opacity="1" stroke-miterlimit="10" d="M 48.390625 182.949219 L 569.027344 182.949219 "/>
</g>
<g clip-path="url(#clip-12)">
<path fill="none" stroke-width="1.357972" stroke-linecap="butt" stroke-linejoin="round" stroke="rgb(92.156863%, 92.156863%, 92.156863%)" stroke-opacity="1" stroke-miterlimit="10" d="M 48.390625 77.386719 L 569.027344 77.386719 "/>
</g>
<g clip-path="url(#clip-13)">
<path fill="none" stroke-width="1.357972" stroke-linecap="butt" stroke-linejoin="round" stroke="rgb(92.156863%, 92.156863%, 92.156863%)" stroke-opacity="1" stroke-miterlimit="10" d="M 138.320312 301.921875 L 138.320312 6.972656 "/>
</g>
<g clip-path="url(#clip-14)">
<path fill="none" stroke-width="1.357972" stroke-linecap="butt" stroke-linejoin="round" stroke="rgb(92.156863%, 92.156863%, 92.156863%)" stroke-opacity="1" stroke-miterlimit="10" d="M 232.980469 301.921875 L 232.980469 6.972656 "/>
</g>
<g clip-path="url(#clip-15)">
<path fill="none" stroke-width="1.357972" stroke-linecap="butt" stroke-linejoin="round" stroke="rgb(92.156863%, 92.156863%, 92.156863%)" stroke-opacity="1" stroke-miterlimit="10" d="M 327.640625 301.921875 L 327.640625 6.972656 "/>
</g>
<g clip-path="url(#clip-16)">
<path fill="none" stroke-width="1.357972" stroke-linecap="butt" stroke-linejoin="round" stroke="rgb(92.156863%, 92.156863%, 92.156863%)" stroke-opacity="1" stroke-miterlimit="10" d="M 422.300781 301.921875 L 422.300781 6.972656 "/>
</g>
<g clip-path="url(#clip-17)">
<path fill="none" stroke-width="1.357972" stroke-linecap="butt" stroke-linejoin="round" stroke="rgb(92.156863%, 92.156863%, 92.156863%)" stroke-opacity="1" stroke-miterlimit="10" d="M 516.960938 301.921875 L 516.960938 6.972656 "/>
</g>
<path fill-rule="nonzero" fill="rgb(0%, 39.215686%, 0%)" fill-opacity="1" stroke-width="1.357972" stroke-linecap="butt" stroke-linejoin="miter" stroke="rgb(100%, 100%, 100%)" stroke-opacity="1" stroke-miterlimit="10" d="M 72.058594 288.515625 L 90.992188 288.515625 L 90.992188 286.40625 L 72.058594 286.40625 Z M 72.058594 288.515625 "/>
<path fill="none" stroke-width="1.357972" stroke-linecap="butt" stroke-linejoin="miter" stroke="rgb(100%, 100%, 100%)" stroke-opacity="1" stroke-miterlimit="10" d="M 90.988281 288.515625 L 109.921875 288.515625 Z M 90.988281 288.515625 "/>
<path fill-rule="nonzero" fill="rgb(0%, 39.215686%, 0%)" fill-opacity="1" stroke-width="1.357972" stroke-linecap="butt" stroke-linejoin="miter" stroke="rgb(100%, 100%, 100%)" stroke-opacity="1" stroke-miterlimit="10" d="M 109.921875 288.515625 L 128.855469 288.515625 L 128.855469 280.070312 L 109.921875 280.070312 Z M 109.921875 288.515625 "/>
<path fill-rule="nonzero" fill="rgb(0%, 39.215686%, 0%)" fill-opacity="1" stroke-width="1.357972" stroke-linecap="butt" stroke-linejoin="miter" stroke="rgb(100%, 100%, 100%)" stroke-opacity="1" stroke-miterlimit="10" d="M 128.851562 288.515625 L 147.785156 288.515625 L 147.785156 271.625 L 128.851562 271.625 Z M 128.851562 288.515625 "/>
<path fill-rule="nonzero" fill="rgb(0%, 39.215686%, 0%)" fill-opacity="1" stroke-width="1.357972" stroke-linecap="butt" stroke-linejoin="miter" stroke="rgb(100%, 100%, 100%)" stroke-opacity="1" stroke-miterlimit="10" d="M 147.785156 288.515625 L 166.71875 288.515625 L 166.71875 256.847656 L 147.785156 256.847656 Z M 147.785156 288.515625 "/>
<path fill-rule="nonzero" fill="rgb(0%, 39.215686%, 0%)" fill-opacity="1" stroke-width="1.357972" stroke-linecap="butt" stroke-linejoin="miter" stroke="rgb(100%, 100%, 100%)" stroke-opacity="1" stroke-miterlimit="10" d="M 166.71875 288.515625 L 185.652344 288.515625 L 185.652344 227.289062 L 166.71875 227.289062 Z M 166.71875 288.515625 "/>
<path fill-rule="nonzero" fill="rgb(0%, 39.215686%, 0%)" fill-opacity="1" stroke-width="1.357972" stroke-linecap="butt" stroke-linejoin="miter" stroke="rgb(100%, 100%, 100%)" stroke-opacity="1" stroke-miterlimit="10" d="M 185.648438 288.515625 L 204.582031 288.515625 L 204.582031 187.171875 L 185.648438 187.171875 Z M 185.648438 288.515625 "/>
<path fill-rule="nonzero" fill="rgb(0%, 39.215686%, 0%)" fill-opacity="1" stroke-width="1.357972" stroke-linecap="butt" stroke-linejoin="miter" stroke="rgb(100%, 100%, 100%)" stroke-opacity="1" stroke-miterlimit="10" d="M 204.582031 288.515625 L 223.515625 288.515625 L 223.515625 166.0625 L 204.582031 166.0625 Z M 204.582031 288.515625 "/>
<path fill-rule="nonzero" fill="rgb(0%, 39.215686%, 0%)" fill-opacity="1" stroke-width="1.357972" stroke-linecap="butt" stroke-linejoin="miter" stroke="rgb(100%, 100%, 100%)" stroke-opacity="1" stroke-miterlimit="10" d="M 223.515625 288.515625 L 242.449219 288.515625 L 242.449219 117.5 L 223.515625 117.5 Z M 223.515625 288.515625 "/>
<path fill-rule="nonzero" fill="rgb(0%, 39.215686%, 0%)" fill-opacity="1" stroke-width="1.357972" stroke-linecap="butt" stroke-linejoin="miter" stroke="rgb(100%, 100%, 100%)" stroke-opacity="1" stroke-miterlimit="10" d="M 242.445312 288.515625 L 261.378906 288.515625 L 261.378906 58.386719 L 242.445312 58.386719 Z M 242.445312 288.515625 "/>
<path fill-rule="nonzero" fill="rgb(0%, 39.215686%, 0%)" fill-opacity="1" stroke-width="1.357972" stroke-linecap="butt" stroke-linejoin="miter" stroke="rgb(100%, 100%, 100%)" stroke-opacity="1" stroke-miterlimit="10" d="M 261.378906 288.515625 L 280.3125 288.515625 L 280.3125 66.832031 L 261.378906 66.832031 Z M 261.378906 288.515625 "/>
<path fill-rule="nonzero" fill="rgb(0%, 39.215686%, 0%)" fill-opacity="1" stroke-width="1.357972" stroke-linecap="butt" stroke-linejoin="miter" stroke="rgb(100%, 100%, 100%)" stroke-opacity="1" stroke-miterlimit="10" d="M 280.3125 288.515625 L 299.246094 288.515625 L 299.246094 20.382812 L 280.3125 20.382812 Z M 280.3125 288.515625 "/>
<path fill-rule="nonzero" fill="rgb(0%, 39.215686%, 0%)" fill-opacity="1" stroke-width="1.357972" stroke-linecap="butt" stroke-linejoin="miter" stroke="rgb(100%, 100%, 100%)" stroke-opacity="1" stroke-miterlimit="10" d="M 299.242188 288.515625 L 318.175781 288.515625 L 318.175781 49.941406 L 299.242188 49.941406 Z M 299.242188 288.515625 "/>
<path fill-rule="nonzero" fill="rgb(0%, 39.215686%, 0%)" fill-opacity="1" stroke-width="1.357972" stroke-linecap="butt" stroke-linejoin="miter" stroke="rgb(100%, 100%, 100%)" stroke-opacity="1" stroke-miterlimit="10" d="M 318.175781 288.515625 L 337.109375 288.515625 L 337.109375 100.609375 L 318.175781 100.609375 Z M 318.175781 288.515625 "/>
<path fill-rule="nonzero" fill="rgb(0%, 39.215686%, 0%)" fill-opacity="1" stroke-width="1.357972" stroke-linecap="butt" stroke-linejoin="miter" stroke="rgb(100%, 100%, 100%)" stroke-opacity="1" stroke-miterlimit="10" d="M 337.105469 288.515625 L 356.039062 288.515625 L 356.039062 151.28125 L 337.105469 151.28125 Z M 337.105469 288.515625 "/>
<path fill-rule="nonzero" fill="rgb(0%, 39.215686%, 0%)" fill-opacity="1" stroke-width="1.357972" stroke-linecap="butt" stroke-linejoin="miter" stroke="rgb(100%, 100%, 100%)" stroke-opacity="1" stroke-miterlimit="10" d="M 356.039062 288.515625 L 374.972656 288.515625 L 374.972656 153.394531 L 356.039062 153.394531 Z M 356.039062 288.515625 "/>
<path fill-rule="nonzero" fill="rgb(0%, 39.215686%, 0%)" fill-opacity="1" stroke-width="1.357972" stroke-linecap="butt" stroke-linejoin="miter" stroke="rgb(100%, 100%, 100%)" stroke-opacity="1" stroke-miterlimit="10" d="M 374.972656 288.515625 L 393.90625 288.515625 L 393.90625 231.511719 L 374.972656 231.511719 Z M 374.972656 288.515625 "/>
<path fill-rule="nonzero" fill="rgb(0%, 39.215686%, 0%)" fill-opacity="1" stroke-width="1.357972" stroke-linecap="butt" stroke-linejoin="miter" stroke="rgb(100%, 100%, 100%)" stroke-opacity="1" stroke-miterlimit="10" d="M 393.902344 288.515625 L 412.835938 288.515625 L 412.835938 231.511719 L 393.902344 231.511719 Z M 393.902344 288.515625 "/>
<path fill-rule="nonzero" fill="rgb(0%, 39.215686%, 0%)" fill-opacity="1" stroke-width="1.357972" stroke-linecap="butt" stroke-linejoin="miter" stroke="rgb(100%, 100%, 100%)" stroke-opacity="1" stroke-miterlimit="10" d="M 412.835938 288.515625 L 431.769531 288.515625 L 431.769531 261.070312 L 412.835938 261.070312 Z M 412.835938 288.515625 "/>
<path fill-rule="nonzero" fill="rgb(0%, 39.215686%, 0%)" fill-opacity="1" stroke-width="1.357972" stroke-linecap="butt" stroke-linejoin="miter" stroke="rgb(100%, 100%, 100%)" stroke-opacity="1" stroke-miterlimit="10" d="M 431.769531 288.515625 L 450.703125 288.515625 L 450.703125 271.625 L 431.769531 271.625 Z M 431.769531 288.515625 "/>
<path fill-rule="nonzero" fill="rgb(0%, 39.215686%, 0%)" fill-opacity="1" stroke-width="1.357972" stroke-linecap="butt" stroke-linejoin="miter" stroke="rgb(100%, 100%, 100%)" stroke-opacity="1" stroke-miterlimit="10" d="M 450.699219 288.515625 L 469.632812 288.515625 L 469.632812 284.292969 L 450.699219 284.292969 Z M 450.699219 288.515625 "/>
<path fill-rule="nonzero" fill="rgb(0%, 39.215686%, 0%)" fill-opacity="1" stroke-width="1.357972" stroke-linecap="butt" stroke-linejoin="miter" stroke="rgb(100%, 100%, 100%)" stroke-opacity="1" stroke-miterlimit="10" d="M 469.632812 288.515625 L 488.566406 288.515625 L 488.566406 277.960938 L 469.632812 277.960938 Z M 469.632812 288.515625 "/>
<path fill-rule="nonzero" fill="rgb(0%, 39.215686%, 0%)" fill-opacity="1" stroke-width="1.357972" stroke-linecap="butt" stroke-linejoin="miter" stroke="rgb(100%, 100%, 100%)" stroke-opacity="1" stroke-miterlimit="10" d="M 488.566406 288.515625 L 507.5 288.515625 L 507.5 286.40625 L 488.566406 286.40625 Z M 488.566406 288.515625 "/>
<path fill="none" stroke-width="1.357972" stroke-linecap="butt" stroke-linejoin="miter" stroke="rgb(100%, 100%, 100%)" stroke-opacity="1" stroke-miterlimit="10" d="M 507.496094 288.515625 L 526.429688 288.515625 Z M 507.496094 288.515625 "/>
<path fill-rule="nonzero" fill="rgb(0%, 39.215686%, 0%)" fill-opacity="1" stroke-width="1.357972" stroke-linecap="butt" stroke-linejoin="miter" stroke="rgb(100%, 100%, 100%)" stroke-opacity="1" stroke-miterlimit="10" d="M 526.429688 288.515625 L 545.363281 288.515625 L 545.363281 286.40625 L 526.429688 286.40625 Z M 526.429688 288.515625 "/>
<g clip-path="url(#clip-18)">
<path fill="none" stroke-width="1.357972" stroke-linecap="round" stroke-linejoin="round" stroke="rgb(20%, 20%, 20%)" stroke-opacity="1" stroke-miterlimit="10" d="M 48.390625 301.921875 L 569.023438 301.921875 L 569.023438 6.976562 L 48.390625 6.976562 Z M 48.390625 301.921875 "/>
</g>
<g fill="rgb(30.196078%, 30.196078%, 30.196078%)" fill-opacity="1">
<use xlink:href="#glyph-0-0" x="35.886719" y="292.523438"/>
</g>
<g fill="rgb(30.196078%, 30.196078%, 30.196078%)" fill-opacity="1">
<use xlink:href="#glyph-0-1" x="29.660156" y="186.957031"/>
<use xlink:href="#glyph-0-0" x="35.889063" y="186.957031"/>
</g>
<g fill="rgb(30.196078%, 30.196078%, 30.196078%)" fill-opacity="1">
<use xlink:href="#glyph-0-2" x="23.429688" y="81.394531"/>
<use xlink:href="#glyph-0-0" x="29.658594" y="81.394531"/>
<use xlink:href="#glyph-0-0" x="35.8875" y="81.394531"/>
</g>
<path fill="none" stroke-width="1.357972" stroke-linecap="butt" stroke-linejoin="round" stroke="rgb(20%, 20%, 20%)" stroke-opacity="1" stroke-miterlimit="10" d="M 44.90625 288.515625 L 48.390625 288.515625 "/>
<path fill="none" stroke-width="1.357972" stroke-linecap="butt" stroke-linejoin="round" stroke="rgb(20%, 20%, 20%)" stroke-opacity="1" stroke-miterlimit="10" d="M 44.90625 182.949219 L 48.390625 182.949219 "/>
<path fill="none" stroke-width="1.357972" stroke-linecap="butt" stroke-linejoin="round" stroke="rgb(20%, 20%, 20%)" stroke-opacity="1" stroke-miterlimit="10" d="M 44.90625 77.386719 L 48.390625 77.386719 "/>
<path fill="none" stroke-width="1.357972" stroke-linecap="butt" stroke-linejoin="round" stroke="rgb(20%, 20%, 20%)" stroke-opacity="1" stroke-miterlimit="10" d="M 138.320312 305.40625 L 138.320312 301.921875 "/>
<path fill="none" stroke-width="1.357972" stroke-linecap="butt" stroke-linejoin="round" stroke="rgb(20%, 20%, 20%)" stroke-opacity="1" stroke-miterlimit="10" d="M 232.980469 305.40625 L 232.980469 301.921875 "/>
<path fill="none" stroke-width="1.357972" stroke-linecap="butt" stroke-linejoin="round" stroke="rgb(20%, 20%, 20%)" stroke-opacity="1" stroke-miterlimit="10" d="M 327.640625 305.40625 L 327.640625 301.921875 "/>
<path fill="none" stroke-width="1.357972" stroke-linecap="butt" stroke-linejoin="round" stroke="rgb(20%, 20%, 20%)" stroke-opacity="1" stroke-miterlimit="10" d="M 422.300781 305.40625 L 422.300781 301.921875 "/>
<path fill="none" stroke-width="1.357972" stroke-linecap="butt" stroke-linejoin="round" stroke="rgb(20%, 20%, 20%)" stroke-opacity="1" stroke-miterlimit="10" d="M 516.960938 305.40625 L 516.960938 301.921875 "/>
<g fill="rgb(30.196078%, 30.196078%, 30.196078%)" fill-opacity="1">
<use xlink:href="#glyph-0-0" x="130.535156" y="316.214844"/>
<use xlink:href="#glyph-0-3" x="136.764062" y="316.214844"/>
<use xlink:href="#glyph-0-4" x="139.875781" y="316.214844"/>
</g>
<g fill="rgb(30.196078%, 30.196078%, 30.196078%)" fill-opacity="1">
<use xlink:href="#glyph-0-0" x="225.195312" y="316.214844"/>
<use xlink:href="#glyph-0-3" x="231.424219" y="316.214844"/>
<use xlink:href="#glyph-0-5" x="234.535937" y="316.214844"/>
</g>
<g fill="rgb(30.196078%, 30.196078%, 30.196078%)" fill-opacity="1">
<use xlink:href="#glyph-0-0" x="319.855469" y="316.214844"/>
<use xlink:href="#glyph-0-3" x="326.084375" y="316.214844"/>
<use xlink:href="#glyph-0-1" x="329.196094" y="316.214844"/>
</g>
<g fill="rgb(30.196078%, 30.196078%, 30.196078%)" fill-opacity="1">
<use xlink:href="#glyph-0-0" x="414.515625" y="316.214844"/>
<use xlink:href="#glyph-0-3" x="420.744531" y="316.214844"/>
<use xlink:href="#glyph-0-6" x="423.85625" y="316.214844"/>
</g>
<g fill="rgb(30.196078%, 30.196078%, 30.196078%)" fill-opacity="1">
<use xlink:href="#glyph-0-0" x="509.175781" y="316.214844"/>
<use xlink:href="#glyph-0-3" x="515.404688" y="316.214844"/>
<use xlink:href="#glyph-0-7" x="518.516406" y="316.214844"/>
</g>
<g fill="rgb(0%, 0%, 0%)" fill-opacity="1">
<use xlink:href="#glyph-1-0" x="229.710938" y="332.078125"/>
<use xlink:href="#glyph-1-1" x="239.048828" y="332.078125"/>
<use xlink:href="#glyph-1-2" x="243.710938" y="332.078125"/>
<use xlink:href="#glyph-1-3" x="251.49707" y="332.078125"/>
<use xlink:href="#glyph-1-2" x="259.283203" y="332.078125"/>
<use xlink:href="#glyph-1-1" x="267.069336" y="332.078125"/>
<use xlink:href="#glyph-1-4" x="271.731445" y="332.078125"/>
<use xlink:href="#glyph-1-5" x="275.621094" y="332.078125"/>
<use xlink:href="#glyph-1-2" x="278.731445" y="332.078125"/>
<use xlink:href="#glyph-1-6" x="286.517578" y="332.078125"/>
<use xlink:href="#glyph-1-7" x="294.303711" y="332.078125"/>
<use xlink:href="#glyph-1-2" x="298.193359" y="332.078125"/>
<use xlink:href="#glyph-1-8" x="305.979492" y="332.078125"/>
<use xlink:href="#glyph-1-7" x="309.869141" y="332.078125"/>
<use xlink:href="#glyph-1-9" x="313.758789" y="332.078125"/>
<use xlink:href="#glyph-1-1" x="321.544922" y="332.078125"/>
<use xlink:href="#glyph-1-10" x="326.207031" y="332.078125"/>
<use xlink:href="#glyph-1-10" x="333.993164" y="332.078125"/>
<use xlink:href="#glyph-1-6" x="341.779297" y="332.078125"/>
<use xlink:href="#glyph-1-7" x="349.56543" y="332.078125"/>
<use xlink:href="#glyph-1-3" x="353.455078" y="332.078125"/>
<use xlink:href="#glyph-1-11" x="361.241211" y="332.078125"/>
<use xlink:href="#glyph-1-12" x="369.027344" y="332.078125"/>
<use xlink:href="#glyph-1-4" x="376.027344" y="332.078125"/>
<use xlink:href="#glyph-1-11" x="379.916992" y="332.078125"/>
</g>
<g fill="rgb(0%, 0%, 0%)" fill-opacity="1">
<use xlink:href="#glyph-2-0" x="16.996094" y="187.519531"/>
<use xlink:href="#glyph-2-1" x="16.996094" y="178.967773"/>
<use xlink:href="#glyph-2-2" x="16.996094" y="174.305664"/>
<use xlink:href="#glyph-2-3" x="16.996094" y="166.519531"/>
<use xlink:href="#glyph-2-4" x="16.996094" y="158.733398"/>
<use xlink:href="#glyph-2-2" x="16.996094" y="150.947266"/>
<use xlink:href="#glyph-2-5" x="16.996094" y="143.161133"/>
<use xlink:href="#glyph-2-6" x="16.996094" y="135.375"/>
<use xlink:href="#glyph-2-7" x="16.996094" y="128.375"/>
</g>
</svg>
