<?xml version="1.0" encoding="UTF-8"?>
<svg xmlns="http://www.w3.org/2000/svg" xmlns:xlink="http://www.w3.org/1999/xlink" width="576pt" height="342pt" viewBox="0 0 576 342">
<defs>
<g>
<g id="glyph-0-0">
<path d="M 2.949219 0 L 2.949219 -7.183594 L 0.265625 -7.183594 L 0.265625 -8.148438 L 6.722656 -8.148438 L 6.722656 -7.183594 L 4.027344 -7.183594 L 4.027344 0 Z M 2.949219 0 "/>
</g>
<g id="glyph-0-1">
<path d="M 4.789062 -1.902344 L 5.824219 -1.773438 C 5.660156 -1.167969 5.355469 -0.699219 4.917969 -0.367188 C 4.472656 -0.0351562 3.910156 0.128906 3.230469 0.132812 C 2.363281 0.128906 1.679688 -0.132812 1.175781 -0.664062 C 0.667969 -1.191406 0.414062 -1.9375 0.417969 -2.902344 C 0.414062 -3.890625 0.671875 -4.660156 1.183594 -5.210938 C 1.691406 -5.757812 2.351562 -6.035156 3.171875 -6.035156 C 3.957031 -6.035156 4.601562 -5.765625 5.105469 -5.226562 C 5.601562 -4.6875 5.851562 -3.929688 5.855469 -2.960938 C 5.851562 -2.898438 5.851562 -2.8125 5.851562 -2.695312 L 1.449219 -2.695312 C 1.484375 -2.046875 1.667969 -1.546875 2 -1.203125 C 2.328125 -0.855469 2.742188 -0.683594 3.234375 -0.6875 C 3.601562 -0.683594 3.914062 -0.78125 4.171875 -0.976562 C 4.429688 -1.167969 4.632812 -1.476562 4.789062 -1.902344 Z M 1.507812 -3.519531 L 4.800781 -3.519531 C 4.753906 -4.011719 4.628906 -4.382812 4.421875 -4.632812 C 4.101562 -5.015625 3.6875 -5.207031 3.183594 -5.210938 C 2.722656 -5.207031 2.335938 -5.054688 2.023438 -4.75 C 1.707031 -4.441406 1.535156 -4.03125 1.507812 -3.519531 Z M 1.507812 -3.519531 "/>
</g>
<g id="glyph-0-2">
<path d="M 0.351562 -1.761719 L 1.339844 -1.917969 C 1.390625 -1.519531 1.542969 -1.214844 1.800781 -1.003906 C 2.050781 -0.789062 2.40625 -0.683594 2.867188 -0.6875 C 3.320312 -0.683594 3.660156 -0.777344 3.886719 -0.96875 C 4.105469 -1.152344 4.21875 -1.375 4.222656 -1.628906 C 4.21875 -1.855469 4.121094 -2.03125 3.929688 -2.160156 C 3.789062 -2.25 3.449219 -2.363281 2.90625 -2.5 C 2.171875 -2.683594 1.660156 -2.84375 1.378906 -2.980469 C 1.09375 -3.113281 0.878906 -3.300781 0.734375 -3.542969 C 0.585938 -3.78125 0.515625 -4.046875 0.515625 -4.335938 C 0.515625 -4.597656 0.574219 -4.839844 0.695312 -5.066406 C 0.816406 -5.289062 0.980469 -5.476562 1.1875 -5.625 C 1.339844 -5.738281 1.550781 -5.832031 1.824219 -5.914062 C 2.089844 -5.992188 2.378906 -6.035156 2.691406 -6.035156 C 3.148438 -6.035156 3.554688 -5.96875 3.90625 -5.835938 C 4.253906 -5.703125 4.511719 -5.519531 4.683594 -5.292969 C 4.847656 -5.0625 4.964844 -4.757812 5.027344 -4.378906 L 4.050781 -4.246094 C 4.003906 -4.546875 3.875 -4.785156 3.664062 -4.957031 C 3.445312 -5.125 3.144531 -5.207031 2.761719 -5.210938 C 2.300781 -5.207031 1.972656 -5.132812 1.777344 -4.984375 C 1.578125 -4.832031 1.480469 -4.65625 1.484375 -4.453125 C 1.480469 -4.320312 1.523438 -4.203125 1.605469 -4.101562 C 1.683594 -3.992188 1.808594 -3.902344 1.988281 -3.835938 C 2.085938 -3.792969 2.382812 -3.707031 2.875 -3.578125 C 3.578125 -3.386719 4.070312 -3.230469 4.351562 -3.113281 C 4.628906 -2.988281 4.847656 -2.816406 5.011719 -2.589844 C 5.167969 -2.359375 5.25 -2.074219 5.25 -1.734375 C 5.25 -1.398438 5.152344 -1.082031 4.957031 -0.792969 C 4.761719 -0.496094 4.480469 -0.269531 4.117188 -0.109375 C 3.746094 0.0507812 3.332031 0.128906 2.875 0.132812 C 2.105469 0.128906 1.519531 -0.0273438 1.117188 -0.34375 C 0.714844 -0.660156 0.460938 -1.132812 0.351562 -1.761719 Z M 0.351562 -1.761719 "/>
</g>
<g id="glyph-0-3">
<path d="M 2.933594 -0.894531 L 3.078125 -0.0117188 C 2.792969 0.046875 2.542969 0.0742188 2.324219 0.078125 C 1.957031 0.0742188 1.675781 0.0195312 1.476562 -0.09375 C 1.277344 -0.207031 1.136719 -0.355469 1.054688 -0.546875 C 0.972656 -0.730469 0.929688 -1.125 0.933594 -1.726562 L 0.933594 -5.125 L 0.199219 -5.125 L 0.199219 -5.902344 L 0.933594 -5.902344 L 0.933594 -7.363281 L 1.929688 -7.964844 L 1.929688 -5.902344 L 2.933594 -5.902344 L 2.933594 -5.125 L 1.929688 -5.125 L 1.929688 -1.671875 C 1.925781 -1.382812 1.945312 -1.199219 1.980469 -1.121094 C 2.015625 -1.035156 2.070312 -0.972656 2.152344 -0.925781 C 2.230469 -0.878906 2.347656 -0.855469 2.496094 -0.855469 C 2.605469 -0.855469 2.75 -0.867188 2.933594 -0.894531 Z M 2.933594 -0.894531 "/>
</g>
<g id="glyph-0-4">
</g>
<g id="glyph-0-5">
<path d="M 4.601562 -0.726562 C 4.226562 -0.410156 3.871094 -0.1875 3.53125 -0.0585938 C 3.183594 0.0664062 2.816406 0.128906 2.429688 0.132812 C 1.777344 0.128906 1.277344 -0.0273438 0.933594 -0.339844 C 0.582031 -0.65625 0.410156 -1.058594 0.410156 -1.554688 C 0.410156 -1.839844 0.472656 -2.105469 0.605469 -2.347656 C 0.734375 -2.585938 0.910156 -2.777344 1.125 -2.921875 C 1.335938 -3.066406 1.574219 -3.175781 1.84375 -3.25 C 2.039062 -3.300781 2.335938 -3.351562 2.734375 -3.402344 C 3.539062 -3.496094 4.132812 -3.609375 4.519531 -3.746094 C 4.519531 -3.878906 4.523438 -3.96875 4.523438 -4.007812 C 4.523438 -4.414062 4.425781 -4.699219 4.238281 -4.867188 C 3.980469 -5.089844 3.601562 -5.203125 3.101562 -5.207031 C 2.625 -5.203125 2.277344 -5.121094 2.058594 -4.957031 C 1.832031 -4.792969 1.667969 -4.5 1.5625 -4.085938 L 0.582031 -4.21875 C 0.667969 -4.636719 0.816406 -4.972656 1.023438 -5.230469 C 1.222656 -5.484375 1.515625 -5.683594 1.90625 -5.824219 C 2.289062 -5.964844 2.738281 -6.035156 3.246094 -6.035156 C 3.746094 -6.035156 4.152344 -5.972656 4.472656 -5.855469 C 4.785156 -5.734375 5.019531 -5.585938 5.167969 -5.410156 C 5.316406 -5.226562 5.417969 -5 5.480469 -4.730469 C 5.511719 -4.554688 5.53125 -4.25 5.53125 -3.808594 L 5.53125 -2.472656 C 5.53125 -1.542969 5.550781 -0.953125 5.59375 -0.707031 C 5.632812 -0.460938 5.71875 -0.226562 5.847656 0 L 4.800781 0 C 4.691406 -0.207031 4.625 -0.449219 4.601562 -0.726562 Z M 4.519531 -2.960938 C 4.152344 -2.808594 3.609375 -2.683594 2.882812 -2.585938 C 2.46875 -2.523438 2.175781 -2.457031 2.011719 -2.382812 C 1.839844 -2.308594 1.710938 -2.199219 1.617188 -2.058594 C 1.523438 -1.910156 1.476562 -1.753906 1.476562 -1.582031 C 1.476562 -1.316406 1.574219 -1.09375 1.777344 -0.914062 C 1.976562 -0.734375 2.273438 -0.644531 2.667969 -0.648438 C 3.050781 -0.644531 3.394531 -0.730469 3.695312 -0.902344 C 3.992188 -1.070312 4.210938 -1.300781 4.355469 -1.59375 C 4.460938 -1.820312 4.515625 -2.152344 4.519531 -2.59375 Z M 4.519531 -2.960938 "/>
</g>
<g id="glyph-0-6">
<path d="M 1.035156 0 L 1.035156 -1.140625 L 2.171875 -1.140625 L 2.171875 0 Z M 1.035156 0 "/>
</g>
<g id="glyph-0-7">
<path d="M 0.378906 -2.949219 C 0.375 -4.039062 0.679688 -4.851562 1.289062 -5.378906 C 1.796875 -5.816406 2.414062 -6.035156 3.144531 -6.035156 C 3.953125 -6.035156 4.617188 -5.769531 5.132812 -5.238281 C 5.648438 -4.707031 5.90625 -3.972656 5.90625 -3.035156 C 5.90625 -2.273438 5.789062 -1.675781 5.5625 -1.242188 C 5.332031 -0.804688 5.003906 -0.464844 4.570312 -0.226562 C 4.132812 0.0117188 3.65625 0.128906 3.144531 0.132812 C 2.316406 0.128906 1.648438 -0.132812 1.140625 -0.660156 C 0.628906 -1.1875 0.375 -1.949219 0.378906 -2.949219 Z M 1.40625 -2.949219 C 1.40625 -2.191406 1.570312 -1.625 1.898438 -1.25 C 2.226562 -0.871094 2.640625 -0.683594 3.144531 -0.6875 C 3.640625 -0.683594 4.054688 -0.875 4.382812 -1.253906 C 4.710938 -1.632812 4.875 -2.207031 4.878906 -2.984375 C 4.875 -3.710938 4.707031 -4.265625 4.378906 -4.640625 C 4.042969 -5.015625 3.632812 -5.203125 3.144531 -5.207031 C 2.640625 -5.203125 2.226562 -5.015625 1.898438 -4.644531 C 1.570312 -4.269531 1.40625 -3.703125 1.40625 -2.949219 Z M 1.40625 -2.949219 "/>
</g>
<g id="glyph-0-8">
<path d="M 1.671875 0 L 0.746094 0 L 0.746094 -8.148438 L 1.746094 -8.148438 L 1.746094 -5.242188 C 2.167969 -5.769531 2.707031 -6.035156 3.363281 -6.035156 C 3.722656 -6.035156 4.0625 -5.960938 4.390625 -5.816406 C 4.710938 -5.667969 4.980469 -5.460938 5.191406 -5.199219 C 5.402344 -4.929688 5.566406 -4.609375 5.683594 -4.238281 C 5.800781 -3.863281 5.859375 -3.464844 5.863281 -3.039062 C 5.859375 -2.027344 5.609375 -1.246094 5.113281 -0.695312 C 4.609375 -0.144531 4.007812 0.128906 3.3125 0.132812 C 2.609375 0.128906 2.0625 -0.160156 1.671875 -0.738281 Z M 1.660156 -2.996094 C 1.65625 -2.285156 1.753906 -1.773438 1.949219 -1.460938 C 2.261719 -0.941406 2.6875 -0.683594 3.230469 -0.6875 C 3.660156 -0.683594 4.039062 -0.875 4.359375 -1.257812 C 4.679688 -1.636719 4.839844 -2.203125 4.839844 -2.957031 C 4.839844 -3.726562 4.683594 -4.292969 4.378906 -4.660156 C 4.070312 -5.023438 3.703125 -5.207031 3.273438 -5.210938 C 2.832031 -5.207031 2.453125 -5.019531 2.136719 -4.640625 C 1.816406 -4.261719 1.65625 -3.710938 1.660156 -2.996094 Z M 1.660156 -2.996094 "/>
</g>
<g id="glyph-0-9">
<path d="M 0.738281 0 L 0.738281 -5.902344 L 1.640625 -5.902344 L 1.640625 -5.007812 C 1.867188 -5.425781 2.078125 -5.703125 2.273438 -5.835938 C 2.46875 -5.96875 2.683594 -6.035156 2.917969 -6.035156 C 3.253906 -6.035156 3.59375 -5.925781 3.945312 -5.710938 L 3.601562 -4.785156 C 3.355469 -4.925781 3.109375 -4.996094 2.867188 -5 C 2.644531 -4.996094 2.449219 -4.929688 2.277344 -4.800781 C 2.101562 -4.667969 1.976562 -4.488281 1.90625 -4.257812 C 1.789062 -3.898438 1.734375 -3.507812 1.738281 -3.089844 L 1.738281 0 Z M 0.738281 0 "/>
</g>
<g id="glyph-0-10">
<path d="M 2.390625 0 L 0.144531 -5.902344 L 1.199219 -5.902344 L 2.46875 -2.367188 C 2.601562 -1.984375 2.726562 -1.585938 2.84375 -1.179688 C 2.929688 -1.484375 3.054688 -1.859375 3.21875 -2.300781 L 4.527344 -5.902344 L 5.558594 -5.902344 L 3.324219 0 Z M 2.390625 0 "/>
</g>
<g id="glyph-0-11">
<path d="M 4.789062 -1.902344 L 5.824219 -1.773438 C 5.660156 -1.167969 5.355469 -0.699219 4.917969 -0.367188 C 4.472656 -0.0351562 3.910156 0.128906 3.230469 0.132812 C 2.363281 0.128906 1.679688 -0.132812 1.175781 -0.664062 C 0.667969 -1.191406 0.414062 -1.9375 0.417969 -2.902344 C 0.414062 -3.890625 0.671875 -4.660156 1.183594 -5.210938 C 1.691406 -5.757812 2.351562 -6.035156 3.171875 -6.035156 C 3.957031 -6.035156 4.601562 -5.765625 5.105469 -5.226562 C 5.601562 -4.6875 5.851562 -3.929688 5.855469 -2.960938 C 5.851562 -2.898438 5.851562 -2.8125 5.851562 -2.695312 L 1.449219 -2.695312 C 1.484375 -2.046875 1.667969 -1.546875 2 -1.203125 C 2.328125 -0.855469 2.742188 -0.683594 3.234375 -0.6875 C 3.601562 -0.683594 3.914062 -0.78125 4.171875 -0.976562 C 4.429688 -1.167969 4.632812 -1.476562 4.789062 -1.902344 Z M 1.507812 -3.519531 L 4.800781 -3.519531 C 4.753906 -4.011719 4.628906 -4.382812 4.421875 -4.632812 C 4.101562 -5.015625 3.6875 -5.207031 3.183594 -5.210938 C 2.722656 -5.207031 2.335938 -5.054688 2.023438 -4.75 C 1.707031 -4.441406 1.535156 -4.03125 1.507812 -3.519531 Z M 2.585938 -6.636719 L 3.324219 -8.191406 L 4.632812 -8.191406 L 3.410156 -6.636719 Z M 2.585938 -6.636719 "/>
</g>
<g id="glyph-1-0">
<path d="M 0.464844 -3.953125 C 0.460938 -4.898438 0.558594 -5.660156 0.757812 -6.242188 C 0.949219 -6.816406 1.238281 -7.261719 1.625 -7.578125 C 2.007812 -7.890625 2.492188 -8.050781 3.078125 -8.050781 C 3.503906 -8.050781 3.882812 -7.960938 4.210938 -7.789062 C 4.535156 -7.613281 4.804688 -7.363281 5.015625 -7.039062 C 5.226562 -6.710938 5.390625 -6.316406 5.511719 -5.847656 C 5.628906 -5.378906 5.6875 -4.746094 5.691406 -3.953125 C 5.6875 -3.011719 5.59375 -2.253906 5.402344 -1.675781 C 5.207031 -1.097656 4.917969 -0.648438 4.535156 -0.335938 C 4.152344 -0.0195312 3.664062 0.132812 3.078125 0.136719 C 2.300781 0.132812 1.695312 -0.140625 1.257812 -0.695312 C 0.726562 -1.359375 0.460938 -2.445312 0.464844 -3.953125 Z M 1.476562 -3.953125 C 1.476562 -2.636719 1.628906 -1.761719 1.9375 -1.324219 C 2.246094 -0.886719 2.625 -0.667969 3.078125 -0.671875 C 3.527344 -0.667969 3.910156 -0.886719 4.21875 -1.328125 C 4.523438 -1.761719 4.675781 -2.636719 4.679688 -3.953125 C 4.675781 -5.269531 4.523438 -6.144531 4.21875 -6.582031 C 3.910156 -7.011719 3.523438 -7.230469 3.066406 -7.234375 C 2.613281 -7.230469 2.253906 -7.039062 1.984375 -6.660156 C 1.644531 -6.171875 1.476562 -5.269531 1.476562 -3.953125 Z M 1.476562 -3.953125 "/>
</g>
<g id="glyph-1-1">
<path d="M 4.171875 0 L 3.1875 0 L 3.1875 -6.273438 C 2.949219 -6.042969 2.636719 -5.816406 2.253906 -5.59375 C 1.867188 -5.363281 1.523438 -5.195312 1.21875 -5.085938 L 1.21875 -6.039062 C 1.769531 -6.292969 2.25 -6.605469 2.664062 -6.976562 C 3.074219 -7.34375 3.367188 -7.703125 3.539062 -8.050781 L 4.171875 -8.050781 Z M 4.171875 0 "/>
</g>
<g id="glyph-1-2">
<path d="M 5.636719 -0.945312 L 5.636719 0 L 0.339844 0 C 0.332031 -0.234375 0.367188 -0.460938 0.453125 -0.683594 C 0.585938 -1.042969 0.804688 -1.398438 1.101562 -1.75 C 1.398438 -2.097656 1.828125 -2.503906 2.390625 -2.964844 C 3.257812 -3.675781 3.84375 -4.238281 4.15625 -4.660156 C 4.460938 -5.074219 4.617188 -5.472656 4.617188 -5.847656 C 4.617188 -6.234375 4.476562 -6.5625 4.195312 -6.832031 C 3.914062 -7.097656 3.550781 -7.230469 3.105469 -7.234375 C 2.628906 -7.230469 2.25 -7.089844 1.96875 -6.808594 C 1.683594 -6.523438 1.539062 -6.128906 1.535156 -5.628906 L 0.523438 -5.730469 C 0.589844 -6.484375 0.851562 -7.058594 1.304688 -7.457031 C 1.753906 -7.851562 2.363281 -8.050781 3.128906 -8.050781 C 3.894531 -8.050781 4.5 -7.835938 4.953125 -7.410156 C 5.398438 -6.980469 5.625 -6.453125 5.628906 -5.824219 C 5.625 -5.503906 5.558594 -5.1875 5.429688 -4.878906 C 5.296875 -4.566406 5.078125 -4.238281 4.777344 -3.898438 C 4.46875 -3.554688 3.964844 -3.085938 3.257812 -2.488281 C 2.667969 -1.992188 2.289062 -1.65625 2.121094 -1.480469 C 1.953125 -1.300781 1.8125 -1.121094 1.707031 -0.945312 Z M 5.636719 -0.945312 "/>
</g>
<g id="glyph-1-3">
<path d="M 0.46875 -2.117188 L 1.453125 -2.246094 C 1.566406 -1.683594 1.757812 -1.28125 2.03125 -1.039062 C 2.300781 -0.789062 2.632812 -0.667969 3.023438 -0.671875 C 3.484375 -0.667969 3.875 -0.828125 4.195312 -1.152344 C 4.515625 -1.472656 4.675781 -1.871094 4.675781 -2.347656 C 4.675781 -2.796875 4.527344 -3.167969 4.230469 -3.464844 C 3.933594 -3.753906 3.558594 -3.902344 3.105469 -3.90625 C 2.917969 -3.902344 2.683594 -3.867188 2.410156 -3.796875 L 2.519531 -4.660156 C 2.585938 -4.648438 2.636719 -4.644531 2.679688 -4.648438 C 3.09375 -4.644531 3.472656 -4.753906 3.8125 -4.976562 C 4.144531 -5.191406 4.3125 -5.53125 4.316406 -5.988281 C 4.3125 -6.347656 4.191406 -6.644531 3.949219 -6.886719 C 3.703125 -7.121094 3.386719 -7.242188 3.003906 -7.242188 C 2.617188 -7.242188 2.296875 -7.121094 2.046875 -6.878906 C 1.789062 -6.636719 1.625 -6.273438 1.554688 -5.796875 L 0.570312 -5.972656 C 0.6875 -6.628906 0.960938 -7.140625 1.386719 -7.503906 C 1.8125 -7.867188 2.34375 -8.050781 2.980469 -8.050781 C 3.414062 -8.050781 3.816406 -7.957031 4.1875 -7.769531 C 4.554688 -7.582031 4.835938 -7.324219 5.035156 -7 C 5.226562 -6.671875 5.324219 -6.328125 5.328125 -5.964844 C 5.324219 -5.617188 5.230469 -5.300781 5.046875 -5.019531 C 4.859375 -4.734375 4.585938 -4.507812 4.222656 -4.34375 C 4.695312 -4.230469 5.0625 -4.003906 5.324219 -3.660156 C 5.585938 -3.3125 5.71875 -2.882812 5.71875 -2.367188 C 5.71875 -1.664062 5.460938 -1.070312 4.953125 -0.585938 C 4.4375 -0.101562 3.792969 0.140625 3.019531 0.140625 C 2.3125 0.140625 1.730469 -0.0664062 1.265625 -0.488281 C 0.800781 -0.902344 0.535156 -1.445312 0.46875 -2.117188 Z M 0.46875 -2.117188 "/>
</g>
<g id="glyph-1-4">
<path d="M 3.621094 0 L 3.621094 -1.917969 L 0.140625 -1.917969 L 0.140625 -2.820312 L 3.800781 -8.015625 L 4.605469 -8.015625 L 4.605469 -2.820312 L 5.6875 -2.820312 L 5.6875 -1.917969 L 4.605469 -1.917969 L 4.605469 0 Z M 3.621094 -2.820312 L 3.621094 -6.4375 L 1.109375 -2.820312 Z M 3.621094 -2.820312 "/>
</g>
<g id="glyph-1-5">
<path d="M 0.464844 -2.101562 L 1.5 -2.1875 C 1.574219 -1.679688 1.75 -1.300781 2.03125 -1.050781 C 2.308594 -0.792969 2.644531 -0.667969 3.039062 -0.671875 C 3.511719 -0.667969 3.914062 -0.847656 4.242188 -1.207031 C 4.570312 -1.566406 4.734375 -2.039062 4.734375 -2.628906 C 4.734375 -3.1875 4.574219 -3.628906 4.261719 -3.957031 C 3.941406 -4.277344 3.53125 -4.441406 3.023438 -4.445312 C 2.703125 -4.441406 2.414062 -4.371094 2.164062 -4.230469 C 1.90625 -4.085938 1.707031 -3.898438 1.5625 -3.667969 L 0.640625 -3.789062 L 1.417969 -7.90625 L 5.402344 -7.90625 L 5.402344 -6.96875 L 2.203125 -6.96875 L 1.773438 -4.8125 C 2.25 -5.144531 2.753906 -5.3125 3.285156 -5.316406 C 3.984375 -5.3125 4.574219 -5.070312 5.058594 -4.585938 C 5.535156 -4.097656 5.777344 -3.476562 5.78125 -2.71875 C 5.777344 -1.992188 5.566406 -1.363281 5.144531 -0.835938 C 4.628906 -0.1875 3.925781 0.132812 3.039062 0.136719 C 2.308594 0.132812 1.714844 -0.0664062 1.253906 -0.476562 C 0.792969 -0.882812 0.527344 -1.425781 0.464844 -2.101562 Z M 0.464844 -2.101562 "/>
</g>
<g id="glyph-1-6">
<path d="M 0.355469 -2.40625 L 0.355469 -3.394531 L 3.378906 -3.394531 L 3.378906 -2.40625 Z M 0.355469 -2.40625 "/>
</g>
<g id="glyph-1-7">
<path d="M 1.015625 0 L 1.015625 -1.121094 L 2.136719 -1.121094 L 2.136719 0 Z M 1.015625 0 "/>
</g>
<g id="glyph-2-0">
<path d="M 1.078125 0 L 1.078125 -10.023438 L 4.53125 -10.023438 C 5.308594 -10.019531 5.90625 -9.972656 6.316406 -9.878906 C 6.890625 -9.746094 7.378906 -9.503906 7.785156 -9.160156 C 8.3125 -8.710938 8.707031 -8.140625 8.972656 -7.449219 C 9.230469 -6.75 9.363281 -5.957031 9.367188 -5.066406 C 9.363281 -4.300781 9.273438 -3.625 9.097656 -3.039062 C 8.917969 -2.449219 8.691406 -1.964844 8.414062 -1.582031 C 8.136719 -1.195312 7.832031 -0.890625 7.503906 -0.671875 C 7.171875 -0.449219 6.773438 -0.28125 6.304688 -0.171875 C 5.835938 -0.0546875 5.296875 0 4.695312 0 Z M 2.40625 -1.183594 L 4.546875 -1.183594 C 5.207031 -1.183594 5.722656 -1.242188 6.101562 -1.367188 C 6.472656 -1.484375 6.773438 -1.660156 7 -1.886719 C 7.3125 -2.199219 7.558594 -2.621094 7.734375 -3.15625 C 7.910156 -3.683594 7.996094 -4.328125 8 -5.085938 C 7.996094 -6.132812 7.824219 -6.9375 7.480469 -7.5 C 7.132812 -8.0625 6.714844 -8.4375 6.226562 -8.632812 C 5.871094 -8.765625 5.300781 -8.835938 4.511719 -8.839844 L 2.40625 -8.839844 Z M 2.40625 -1.183594 "/>
</g>
<g id="glyph-2-1">
<path d="M 0.929688 -8.605469 L 0.929688 -10.023438 L 2.160156 -10.023438 L 2.160156 -8.605469 Z M 0.929688 0 L 0.929688 -7.257812 L 2.160156 -7.257812 L 2.160156 0 Z M 0.929688 0 "/>
</g>
<g id="glyph-2-2">
<path d="M 1.21875 0 L 1.21875 -6.304688 L 0.128906 -6.304688 L 0.128906 -7.257812 L 1.21875 -7.257812 L 1.21875 -8.03125 C 1.21875 -8.519531 1.261719 -8.882812 1.347656 -9.117188 C 1.464844 -9.4375 1.671875 -9.695312 1.972656 -9.894531 C 2.269531 -10.089844 2.6875 -10.1875 3.226562 -10.191406 C 3.570312 -10.1875 3.953125 -10.148438 4.375 -10.070312 L 4.191406 -8.996094 C 3.933594 -9.035156 3.691406 -9.058594 3.464844 -9.0625 C 3.089844 -9.058594 2.828125 -8.980469 2.671875 -8.824219 C 2.515625 -8.664062 2.4375 -8.363281 2.441406 -7.929688 L 2.441406 -7.257812 L 3.855469 -7.257812 L 3.855469 -6.304688 L 2.441406 -6.304688 L 2.441406 0 Z M 1.21875 0 "/>
</g>
<g id="glyph-2-3">
<path d="M 5.890625 -2.335938 L 7.164062 -2.179688 C 6.960938 -1.4375 6.589844 -0.859375 6.046875 -0.449219 C 5.503906 -0.0390625 4.8125 0.164062 3.972656 0.164062 C 2.910156 0.164062 2.066406 -0.160156 1.445312 -0.816406 C 0.820312 -1.464844 0.507812 -2.382812 0.511719 -3.570312 C 0.507812 -4.785156 0.824219 -5.734375 1.453125 -6.410156 C 2.082031 -7.082031 2.898438 -7.417969 3.902344 -7.421875 C 4.871094 -7.417969 5.664062 -7.085938 6.28125 -6.429688 C 6.894531 -5.765625 7.199219 -4.839844 7.203125 -3.644531 C 7.199219 -3.570312 7.199219 -3.460938 7.199219 -3.316406 L 1.785156 -3.316406 C 1.828125 -2.515625 2.054688 -1.902344 2.460938 -1.480469 C 2.867188 -1.054688 3.371094 -0.84375 3.976562 -0.847656 C 4.425781 -0.84375 4.8125 -0.960938 5.132812 -1.203125 C 5.453125 -1.4375 5.703125 -1.816406 5.890625 -2.335938 Z M 1.851562 -4.328125 L 5.90625 -4.328125 C 5.851562 -4.933594 5.695312 -5.390625 5.441406 -5.703125 C 5.046875 -6.171875 4.539062 -6.410156 3.917969 -6.414062 C 3.351562 -6.410156 2.875 -6.21875 2.492188 -5.84375 C 2.101562 -5.460938 1.890625 -4.957031 1.851562 -4.328125 Z M 3.179688 -8.164062 L 4.085938 -10.078125 L 5.703125 -10.078125 L 4.195312 -8.164062 Z M 3.179688 -8.164062 "/>
</g>
<g id="glyph-2-4">
<path d="M 0.910156 0 L 0.910156 -7.257812 L 2.015625 -7.257812 L 2.015625 -6.160156 C 2.296875 -6.667969 2.554688 -7.007812 2.796875 -7.175781 C 3.03125 -7.335938 3.296875 -7.417969 3.589844 -7.421875 C 4 -7.417969 4.421875 -7.285156 4.851562 -7.027344 L 4.429688 -5.886719 C 4.125 -6.0625 3.824219 -6.152344 3.527344 -6.152344 C 3.257812 -6.152344 3.015625 -6.070312 2.800781 -5.910156 C 2.585938 -5.746094 2.433594 -5.519531 2.34375 -5.234375 C 2.207031 -4.792969 2.136719 -4.316406 2.140625 -3.800781 L 2.140625 0 Z M 0.910156 0 "/>
</g>
<g id="glyph-2-5">
<path d="M 5.890625 -2.335938 L 7.164062 -2.179688 C 6.960938 -1.4375 6.589844 -0.859375 6.046875 -0.449219 C 5.503906 -0.0390625 4.8125 0.164062 3.972656 0.164062 C 2.910156 0.164062 2.066406 -0.160156 1.445312 -0.816406 C 0.820312 -1.464844 0.507812 -2.382812 0.511719 -3.570312 C 0.507812 -4.785156 0.824219 -5.734375 1.453125 -6.410156 C 2.082031 -7.082031 2.898438 -7.417969 3.902344 -7.421875 C 4.871094 -7.417969 5.664062 -7.085938 6.28125 -6.429688 C 6.894531 -5.765625 7.199219 -4.839844 7.203125 -3.644531 C 7.199219 -3.570312 7.199219 -3.460938 7.199219 -3.316406 L 1.785156 -3.316406 C 1.828125 -2.515625 2.054688 -1.902344 2.460938 -1.480469 C 2.867188 -1.054688 3.371094 -0.84375 3.976562 -0.847656 C 4.425781 -0.84375 4.8125 -0.960938 5.132812 -1.203125 C 5.453125 -1.4375 5.703125 -1.816406 5.890625 -2.335938 Z M 1.851562 -4.328125 L 5.90625 -4.328125 C 5.851562 -4.933594 5.695312 -5.390625 5.441406 -5.703125 C 5.046875 -6.171875 4.539062 -6.410156 3.917969 -6.414062 C 3.351562 -6.410156 2.875 -6.21875 2.492188 -5.84375 C 2.101562 -5.460938 1.890625 -4.957031 1.851562 -4.328125 Z M 1.851562 -4.328125 "/>
</g>
<g id="glyph-2-6">
<path d="M 0.921875 0 L 0.921875 -7.257812 L 2.03125 -7.257812 L 2.03125 -6.226562 C 2.558594 -7.019531 3.328125 -7.417969 4.339844 -7.421875 C 4.773438 -7.417969 5.175781 -7.339844 5.546875 -7.1875 C 5.910156 -7.027344 6.183594 -6.820312 6.371094 -6.570312 C 6.550781 -6.3125 6.679688 -6.011719 6.753906 -5.660156 C 6.796875 -5.433594 6.820312 -5.035156 6.820312 -4.464844 L 6.820312 0 L 5.59375 0 L 5.59375 -4.414062 C 5.589844 -4.914062 5.542969 -5.289062 5.449219 -5.539062 C 5.351562 -5.785156 5.179688 -5.984375 4.9375 -6.136719 C 4.691406 -6.28125 4.40625 -6.355469 4.082031 -6.359375 C 3.554688 -6.355469 3.101562 -6.191406 2.722656 -5.859375 C 2.339844 -5.523438 2.148438 -4.890625 2.152344 -3.964844 L 2.152344 0 Z M 0.921875 0 "/>
</g>
<g id="glyph-2-7">
<path d="M 5.660156 -2.660156 L 6.871094 -2.5 C 6.734375 -1.664062 6.394531 -1.011719 5.855469 -0.542969 C 5.308594 -0.0703125 4.640625 0.164062 3.847656 0.164062 C 2.851562 0.164062 2.054688 -0.160156 1.453125 -0.808594 C 0.847656 -1.457031 0.542969 -2.386719 0.546875 -3.601562 C 0.542969 -4.382812 0.675781 -5.070312 0.9375 -5.660156 C 1.195312 -6.246094 1.589844 -6.683594 2.121094 -6.980469 C 2.652344 -7.269531 3.230469 -7.417969 3.855469 -7.421875 C 4.644531 -7.417969 5.289062 -7.21875 5.789062 -6.824219 C 6.289062 -6.421875 6.609375 -5.855469 6.753906 -5.125 L 5.558594 -4.941406 C 5.441406 -5.425781 5.238281 -5.792969 4.953125 -6.042969 C 4.660156 -6.285156 4.3125 -6.410156 3.902344 -6.414062 C 3.28125 -6.410156 2.777344 -6.1875 2.390625 -5.746094 C 2.003906 -5.296875 1.808594 -4.59375 1.8125 -3.636719 C 1.808594 -2.65625 1.996094 -1.945312 2.371094 -1.507812 C 2.742188 -1.0625 3.230469 -0.84375 3.835938 -0.847656 C 4.316406 -0.84375 4.71875 -0.992188 5.042969 -1.289062 C 5.367188 -1.585938 5.574219 -2.042969 5.660156 -2.660156 Z M 5.660156 -2.660156 "/>
</g>
<g id="glyph-2-8">
</g>
<g id="glyph-2-9">
<path d="M 5.632812 0 L 5.632812 -0.914062 C 5.167969 -0.195312 4.492188 0.164062 3.601562 0.164062 C 3.019531 0.164062 2.488281 0.0078125 2.003906 -0.3125 C 1.519531 -0.628906 1.140625 -1.074219 0.875 -1.648438 C 0.605469 -2.21875 0.472656 -2.878906 0.476562 -3.625 C 0.472656 -4.347656 0.59375 -5.003906 0.839844 -5.59375 C 1.078125 -6.183594 1.441406 -6.636719 1.925781 -6.949219 C 2.40625 -7.261719 2.945312 -7.417969 3.546875 -7.421875 C 3.980469 -7.417969 4.371094 -7.324219 4.714844 -7.144531 C 5.054688 -6.957031 5.332031 -6.71875 5.550781 -6.425781 L 5.550781 -10.023438 L 6.773438 -10.023438 L 6.773438 0 Z M 1.742188 -3.625 C 1.738281 -2.691406 1.933594 -1.996094 2.328125 -1.535156 C 2.71875 -1.074219 3.183594 -0.84375 3.71875 -0.847656 C 4.253906 -0.84375 4.710938 -1.0625 5.085938 -1.507812 C 5.460938 -1.945312 5.648438 -2.617188 5.652344 -3.519531 C 5.648438 -4.511719 5.457031 -5.242188 5.078125 -5.707031 C 4.691406 -6.171875 4.21875 -6.402344 3.664062 -6.40625 C 3.113281 -6.402344 2.65625 -6.179688 2.292969 -5.734375 C 1.921875 -5.285156 1.738281 -4.582031 1.742188 -3.625 Z M 1.742188 -3.625 "/>
</g>
<g id="glyph-2-10">
<path d="M 5.660156 -0.894531 C 5.203125 -0.503906 4.761719 -0.230469 4.34375 -0.0742188 C 3.917969 0.0859375 3.46875 0.164062 2.988281 0.164062 C 2.1875 0.164062 1.574219 -0.0273438 1.148438 -0.417969 C 0.71875 -0.804688 0.503906 -1.304688 0.507812 -1.914062 C 0.503906 -2.265625 0.585938 -2.589844 0.75 -2.886719 C 0.910156 -3.179688 1.121094 -3.414062 1.382812 -3.59375 C 1.644531 -3.769531 1.9375 -3.90625 2.269531 -4 C 2.507812 -4.058594 2.875 -4.121094 3.363281 -4.183594 C 4.355469 -4.300781 5.085938 -4.441406 5.558594 -4.609375 C 5.558594 -4.773438 5.558594 -4.878906 5.5625 -4.929688 C 5.558594 -5.425781 5.445312 -5.78125 5.214844 -5.988281 C 4.898438 -6.265625 4.429688 -6.402344 3.8125 -6.40625 C 3.230469 -6.402344 2.804688 -6.300781 2.53125 -6.101562 C 2.253906 -5.894531 2.050781 -5.535156 1.921875 -5.023438 L 0.71875 -5.1875 C 0.824219 -5.699219 1.003906 -6.117188 1.257812 -6.433594 C 1.503906 -6.75 1.867188 -6.992188 2.34375 -7.164062 C 2.816406 -7.332031 3.363281 -7.417969 3.992188 -7.421875 C 4.609375 -7.417969 5.113281 -7.34375 5.503906 -7.203125 C 5.886719 -7.054688 6.171875 -6.871094 6.359375 -6.652344 C 6.539062 -6.429688 6.667969 -6.152344 6.742188 -5.816406 C 6.777344 -5.605469 6.796875 -5.226562 6.800781 -4.683594 L 6.800781 -3.042969 C 6.796875 -1.894531 6.824219 -1.171875 6.878906 -0.871094 C 6.933594 -0.566406 7.035156 -0.277344 7.191406 0 L 5.90625 0 C 5.777344 -0.253906 5.695312 -0.550781 5.660156 -0.894531 Z M 5.558594 -3.644531 C 5.109375 -3.460938 4.4375 -3.304688 3.546875 -3.179688 C 3.039062 -3.105469 2.683594 -3.023438 2.472656 -2.933594 C 2.261719 -2.839844 2.097656 -2.707031 1.988281 -2.53125 C 1.871094 -2.355469 1.816406 -2.160156 1.820312 -1.949219 C 1.816406 -1.617188 1.941406 -1.34375 2.191406 -1.128906 C 2.4375 -0.90625 2.800781 -0.796875 3.28125 -0.800781 C 3.753906 -0.796875 4.175781 -0.898438 4.546875 -1.109375 C 4.914062 -1.3125 5.183594 -1.597656 5.359375 -1.960938 C 5.488281 -2.238281 5.554688 -2.648438 5.558594 -3.191406 Z M 5.558594 -3.644531 "/>
</g>
<g id="glyph-2-11">
<path d="M 0.429688 -2.167969 L 1.648438 -2.359375 C 1.710938 -1.867188 1.902344 -1.492188 2.21875 -1.234375 C 2.527344 -0.972656 2.964844 -0.84375 3.527344 -0.847656 C 4.089844 -0.84375 4.507812 -0.957031 4.785156 -1.191406 C 5.054688 -1.417969 5.191406 -1.691406 5.195312 -2.003906 C 5.191406 -2.28125 5.070312 -2.5 4.832031 -2.660156 C 4.660156 -2.769531 4.242188 -2.90625 3.574219 -3.078125 C 2.671875 -3.300781 2.046875 -3.5 1.699219 -3.667969 C 1.347656 -3.832031 1.082031 -4.058594 0.90625 -4.355469 C 0.722656 -4.644531 0.632812 -4.972656 0.636719 -5.332031 C 0.632812 -5.652344 0.707031 -5.949219 0.855469 -6.230469 C 1.003906 -6.503906 1.203125 -6.734375 1.460938 -6.917969 C 1.648438 -7.054688 1.910156 -7.171875 2.246094 -7.273438 C 2.574219 -7.367188 2.929688 -7.417969 3.308594 -7.421875 C 3.875 -7.417969 4.375 -7.335938 4.808594 -7.175781 C 5.234375 -7.007812 5.550781 -6.785156 5.761719 -6.507812 C 5.964844 -6.226562 6.109375 -5.851562 6.1875 -5.386719 L 4.984375 -5.222656 C 4.925781 -5.589844 4.765625 -5.882812 4.507812 -6.097656 C 4.242188 -6.304688 3.875 -6.410156 3.398438 -6.414062 C 2.832031 -6.410156 2.425781 -6.316406 2.1875 -6.132812 C 1.941406 -5.941406 1.820312 -5.722656 1.824219 -5.476562 C 1.820312 -5.3125 1.871094 -5.167969 1.976562 -5.046875 C 2.070312 -4.910156 2.226562 -4.800781 2.445312 -4.71875 C 2.566406 -4.667969 2.929688 -4.5625 3.535156 -4.402344 C 4.402344 -4.167969 5.011719 -3.980469 5.355469 -3.832031 C 5.699219 -3.683594 5.96875 -3.464844 6.164062 -3.183594 C 6.359375 -2.898438 6.457031 -2.550781 6.460938 -2.132812 C 6.457031 -1.71875 6.335938 -1.332031 6.101562 -0.972656 C 5.859375 -0.609375 5.515625 -0.328125 5.066406 -0.132812 C 4.613281 0.0664062 4.101562 0.164062 3.535156 0.164062 C 2.585938 0.164062 1.867188 -0.03125 1.375 -0.421875 C 0.878906 -0.8125 0.5625 -1.394531 0.429688 -2.167969 Z M 0.429688 -2.167969 "/>
</g>
<g id="glyph-2-12">
<path d="M 0.894531 0 L 0.894531 -10.023438 L 2.125 -10.023438 L 2.125 0 Z M 0.894531 0 "/>
</g>
<g id="glyph-2-13">
<path d="M 3.609375 -1.101562 L 3.789062 -0.015625 C 3.4375 0.0585938 3.128906 0.09375 2.859375 0.09375 C 2.410156 0.09375 2.0625 0.0234375 1.816406 -0.117188 C 1.570312 -0.257812 1.394531 -0.441406 1.296875 -0.671875 C 1.195312 -0.902344 1.148438 -1.386719 1.148438 -2.125 L 1.148438 -6.304688 L 0.246094 -6.304688 L 0.246094 -7.257812 L 1.148438 -7.257812 L 1.148438 -9.058594 L 2.371094 -9.796875 L 2.371094 -7.257812 L 3.609375 -7.257812 L 3.609375 -6.304688 L 2.371094 -6.304688 L 2.371094 -2.058594 C 2.367188 -1.703125 2.386719 -1.476562 2.433594 -1.378906 C 2.472656 -1.277344 2.546875 -1.199219 2.648438 -1.140625 C 2.746094 -1.082031 2.886719 -1.054688 3.070312 -1.054688 C 3.203125 -1.054688 3.382812 -1.070312 3.609375 -1.101562 Z M 3.609375 -1.101562 "/>
</g>
<g id="glyph-2-14">
<path d="M 5.679688 0 L 5.679688 -1.066406 C 5.109375 -0.246094 4.34375 0.164062 3.375 0.164062 C 2.945312 0.164062 2.542969 0.0820312 2.175781 -0.0820312 C 1.800781 -0.246094 1.527344 -0.449219 1.347656 -0.699219 C 1.167969 -0.945312 1.039062 -1.25 0.96875 -1.613281 C 0.914062 -1.851562 0.890625 -2.234375 0.894531 -2.761719 L 0.894531 -7.257812 L 2.125 -7.257812 L 2.125 -3.234375 C 2.121094 -2.589844 2.148438 -2.15625 2.203125 -1.933594 C 2.277344 -1.609375 2.4375 -1.355469 2.691406 -1.171875 C 2.941406 -0.984375 3.253906 -0.890625 3.625 -0.894531 C 3.988281 -0.890625 4.332031 -0.984375 4.660156 -1.175781 C 4.980469 -1.363281 5.210938 -1.621094 5.347656 -1.949219 C 5.480469 -2.273438 5.546875 -2.746094 5.550781 -3.371094 L 5.550781 -7.257812 L 6.78125 -7.257812 L 6.78125 0 Z M 5.679688 0 "/>
</g>
<g id="glyph-2-15">
<path d="M 0.101562 0 L 2.753906 -3.773438 L 0.300781 -7.257812 L 1.839844 -7.257812 L 2.953125 -5.558594 C 3.160156 -5.230469 3.328125 -4.957031 3.460938 -4.742188 C 3.65625 -5.039062 3.839844 -5.308594 4.011719 -5.542969 L 5.234375 -7.257812 L 6.707031 -7.257812 L 4.195312 -3.84375 L 6.898438 0 L 5.386719 0 L 3.898438 -2.257812 L 3.5 -2.863281 L 1.59375 0 Z M 0.101562 0 "/>
</g>
<g id="glyph-2-16">
<path d="M 0.921875 2.78125 L 0.921875 -7.257812 L 2.042969 -7.257812 L 2.042969 -6.316406 C 2.304688 -6.683594 2.601562 -6.957031 2.9375 -7.144531 C 3.265625 -7.324219 3.671875 -7.417969 4.148438 -7.421875 C 4.765625 -7.417969 5.3125 -7.257812 5.789062 -6.945312 C 6.261719 -6.625 6.617188 -6.175781 6.863281 -5.59375 C 7.101562 -5.011719 7.222656 -4.375 7.226562 -3.683594 C 7.222656 -2.9375 7.089844 -2.269531 6.824219 -1.675781 C 6.554688 -1.082031 6.167969 -0.625 5.664062 -0.308594 C 5.152344 0.0078125 4.617188 0.164062 4.0625 0.164062 C 3.648438 0.164062 3.28125 0.078125 2.957031 -0.09375 C 2.628906 -0.265625 2.359375 -0.484375 2.152344 -0.75 L 2.152344 2.78125 Z M 2.039062 -3.589844 C 2.039062 -2.652344 2.226562 -1.960938 2.605469 -1.515625 C 2.980469 -1.066406 3.4375 -0.84375 3.976562 -0.847656 C 4.519531 -0.84375 4.988281 -1.074219 5.382812 -1.539062 C 5.769531 -2 5.964844 -2.71875 5.96875 -3.691406 C 5.964844 -4.613281 5.773438 -5.304688 5.398438 -5.769531 C 5.015625 -6.226562 4.5625 -6.457031 4.03125 -6.460938 C 3.507812 -6.457031 3.042969 -6.210938 2.640625 -5.726562 C 2.238281 -5.234375 2.039062 -4.523438 2.039062 -3.589844 Z M 2.039062 -3.589844 "/>
</g>
<g id="glyph-2-17">
<path d="M 0.464844 -3.628906 C 0.460938 -4.972656 0.835938 -5.96875 1.585938 -6.617188 C 2.207031 -7.148438 2.96875 -7.417969 3.867188 -7.421875 C 4.867188 -7.417969 5.683594 -7.089844 6.316406 -6.441406 C 6.949219 -5.785156 7.265625 -4.882812 7.265625 -3.734375 C 7.265625 -2.796875 7.125 -2.0625 6.84375 -1.527344 C 6.5625 -0.992188 6.152344 -0.578125 5.621094 -0.28125 C 5.082031 0.015625 4.5 0.164062 3.867188 0.164062 C 2.851562 0.164062 2.027344 -0.160156 1.402344 -0.8125 C 0.773438 -1.460938 0.460938 -2.398438 0.464844 -3.628906 Z M 1.730469 -3.628906 C 1.726562 -2.695312 1.929688 -2 2.335938 -1.539062 C 2.738281 -1.074219 3.25 -0.84375 3.867188 -0.847656 C 4.476562 -0.84375 4.984375 -1.074219 5.390625 -1.542969 C 5.796875 -2.003906 6 -2.714844 6 -3.671875 C 6 -4.566406 5.792969 -5.246094 5.386719 -5.710938 C 4.976562 -6.171875 4.472656 -6.402344 3.867188 -6.40625 C 3.25 -6.402344 2.738281 -6.171875 2.335938 -5.714844 C 1.929688 -5.25 1.726562 -4.554688 1.730469 -3.628906 Z M 1.730469 -3.628906 "/>
</g>
<g id="glyph-2-18">
<path d="M 0.921875 0 L 0.921875 -7.257812 L 2.023438 -7.257812 L 2.023438 -6.242188 C 2.25 -6.59375 2.554688 -6.878906 2.933594 -7.097656 C 3.308594 -7.308594 3.738281 -7.417969 4.226562 -7.421875 C 4.757812 -7.417969 5.199219 -7.304688 5.546875 -7.085938 C 5.886719 -6.859375 6.128906 -6.550781 6.273438 -6.152344 C 6.847656 -6.996094 7.59375 -7.417969 8.515625 -7.421875 C 9.234375 -7.417969 9.789062 -7.21875 10.175781 -6.824219 C 10.5625 -6.421875 10.757812 -5.808594 10.757812 -4.984375 L 10.757812 0 L 9.535156 0 L 9.535156 -4.574219 C 9.53125 -5.0625 9.492188 -5.417969 9.414062 -5.636719 C 9.332031 -5.851562 9.1875 -6.023438 8.980469 -6.160156 C 8.769531 -6.289062 8.523438 -6.355469 8.242188 -6.359375 C 7.730469 -6.355469 7.308594 -6.1875 6.972656 -5.847656 C 6.636719 -5.507812 6.46875 -4.964844 6.46875 -4.21875 L 6.46875 0 L 5.234375 0 L 5.234375 -4.71875 C 5.230469 -5.261719 5.132812 -5.671875 4.933594 -5.949219 C 4.730469 -6.21875 4.402344 -6.355469 3.953125 -6.359375 C 3.601562 -6.355469 3.28125 -6.265625 2.988281 -6.085938 C 2.695312 -5.902344 2.480469 -5.636719 2.351562 -5.285156 C 2.214844 -4.933594 2.148438 -4.425781 2.152344 -3.765625 L 2.152344 0 Z M 0.921875 0 "/>
</g>
<g id="glyph-2-19">
<path d="M 3.273438 2.945312 C 2.59375 2.085938 2.019531 1.085938 1.550781 -0.0625 C 1.078125 -1.207031 0.84375 -2.394531 0.847656 -3.628906 C 0.84375 -4.710938 1.019531 -5.75 1.375 -6.746094 C 1.78125 -7.894531 2.414062 -9.042969 3.273438 -10.191406 L 4.15625 -10.191406 C 3.601562 -9.238281 3.238281 -8.5625 3.0625 -8.164062 C 2.78125 -7.53125 2.5625 -6.875 2.40625 -6.195312 C 2.207031 -5.335938 2.109375 -4.480469 2.113281 -3.625 C 2.109375 -1.429688 2.789062 0.757812 4.15625 2.945312 Z M 3.273438 2.945312 "/>
</g>
<g id="glyph-2-20">
<path d="M 0.921875 0 L 0.921875 -10.023438 L 2.152344 -10.023438 L 2.152344 -6.425781 C 2.722656 -7.085938 3.449219 -7.417969 4.328125 -7.421875 C 4.863281 -7.417969 5.328125 -7.3125 5.726562 -7.105469 C 6.121094 -6.890625 6.40625 -6.597656 6.578125 -6.226562 C 6.746094 -5.851562 6.832031 -5.308594 6.835938 -4.601562 L 6.835938 0 L 5.605469 0 L 5.605469 -4.601562 C 5.601562 -5.210938 5.46875 -5.660156 5.203125 -5.941406 C 4.9375 -6.222656 4.558594 -6.363281 4.074219 -6.363281 C 3.707031 -6.363281 3.363281 -6.265625 3.042969 -6.078125 C 2.71875 -5.886719 2.492188 -5.632812 2.355469 -5.3125 C 2.21875 -4.988281 2.148438 -4.542969 2.152344 -3.972656 L 2.152344 0 Z M 0.921875 0 "/>
</g>
<g id="glyph-2-21">
<path d="M 0.445312 -3.007812 L 0.445312 -4.246094 L 4.226562 -4.246094 L 4.226562 -3.007812 Z M 0.445312 -3.007812 "/>
</g>
<g id="glyph-2-22">
<path d="M 1.730469 2.945312 L 0.847656 2.945312 C 2.207031 0.757812 2.886719 -1.429688 2.890625 -3.625 C 2.886719 -4.476562 2.789062 -5.324219 2.597656 -6.171875 C 2.441406 -6.851562 2.226562 -7.507812 1.949219 -8.140625 C 1.765625 -8.546875 1.398438 -9.230469 0.847656 -10.191406 L 1.730469 -10.191406 C 2.582031 -9.042969 3.214844 -7.894531 3.628906 -6.746094 C 3.976562 -5.75 4.152344 -4.710938 4.15625 -3.628906 C 4.152344 -2.394531 3.917969 -1.207031 3.449219 -0.0625 C 2.976562 1.085938 2.402344 2.085938 1.730469 2.945312 Z M 1.730469 2.945312 "/>
</g>
<g id="glyph-3-0">
<path d="M 0 -1.109375 L -10.023438 -1.109375 L -10.023438 -8.351562 L -8.839844 -8.351562 L -8.839844 -2.433594 L -5.769531 -2.433594 L -5.769531 -7.976562 L -4.59375 -7.976562 L -4.59375 -2.433594 L -1.183594 -2.433594 L -1.183594 -8.585938 L 0 -8.585938 Z M 0 -1.109375 "/>
</g>
<g id="glyph-3-1">
<path d="M 0 -1.21875 L -6.304688 -1.21875 L -6.304688 -0.128906 L -7.257812 -0.128906 L -7.257812 -1.21875 L -8.03125 -1.21875 C -8.519531 -1.21875 -8.882812 -1.261719 -9.117188 -1.347656 C -9.4375 -1.464844 -9.695312 -1.671875 -9.894531 -1.972656 C -10.089844 -2.269531 -10.1875 -2.6875 -10.191406 -3.226562 C -10.1875 -3.570312 -10.148438 -3.953125 -10.070312 -4.375 L -8.996094 -4.191406 C -9.035156 -3.933594 -9.058594 -3.691406 -9.0625 -3.464844 C -9.058594 -3.089844 -8.980469 -2.828125 -8.824219 -2.671875 C -8.664062 -2.515625 -8.363281 -2.4375 -7.929688 -2.441406 L -7.257812 -2.441406 L -7.257812 -3.855469 L -6.304688 -3.855469 L -6.304688 -2.441406 L 0 -2.441406 Z M 0 -1.21875 "/>
</g>
<g id="glyph-3-2">
<path d="M -2.335938 -5.890625 L -2.179688 -7.164062 C -1.4375 -6.960938 -0.859375 -6.589844 -0.449219 -6.046875 C -0.0390625 -5.503906 0.164062 -4.8125 0.164062 -3.972656 C 0.164062 -2.910156 -0.160156 -2.066406 -0.816406 -1.445312 C -1.464844 -0.820312 -2.382812 -0.507812 -3.570312 -0.511719 C -4.785156 -0.507812 -5.734375 -0.824219 -6.410156 -1.453125 C -7.082031 -2.082031 -7.417969 -2.898438 -7.421875 -3.902344 C -7.417969 -4.871094 -7.085938 -5.664062 -6.429688 -6.28125 C -5.765625 -6.894531 -4.839844 -7.199219 -3.644531 -7.203125 C -3.570312 -7.199219 -3.460938 -7.199219 -3.316406 -7.199219 L -3.316406 -1.785156 C -2.515625 -1.828125 -1.902344 -2.054688 -1.480469 -2.460938 C -1.054688 -2.867188 -0.84375 -3.371094 -0.847656 -3.976562 C -0.84375 -4.425781 -0.960938 -4.8125 -1.203125 -5.132812 C -1.4375 -5.453125 -1.816406 -5.703125 -2.335938 -5.890625 Z M -4.328125 -1.851562 L -4.328125 -5.90625 C -4.933594 -5.851562 -5.390625 -5.695312 -5.703125 -5.441406 C -6.171875 -5.046875 -6.410156 -4.539062 -6.414062 -3.917969 C -6.410156 -3.351562 -6.21875 -2.875 -5.84375 -2.492188 C -5.460938 -2.101562 -4.957031 -1.890625 -4.328125 -1.851562 Z M -4.328125 -1.851562 "/>
</g>
<g id="glyph-3-3">
<path d="M -2.660156 -5.660156 L -2.5 -6.871094 C -1.664062 -6.734375 -1.011719 -6.394531 -0.542969 -5.855469 C -0.0703125 -5.308594 0.164062 -4.640625 0.164062 -3.847656 C 0.164062 -2.851562 -0.160156 -2.054688 -0.808594 -1.453125 C -1.457031 -0.847656 -2.386719 -0.542969 -3.601562 -0.546875 C -4.382812 -0.542969 -5.070312 -0.675781 -5.660156 -0.9375 C -6.246094 -1.195312 -6.683594 -1.589844 -6.980469 -2.121094 C -7.269531 -2.652344 -7.417969 -3.230469 -7.421875 -3.855469 C -7.417969 -4.644531 -7.21875 -5.289062 -6.824219 -5.789062 C -6.421875 -6.289062 -5.855469 -6.609375 -5.125 -6.753906 L -4.941406 -5.558594 C -5.425781 -5.441406 -5.792969 -5.238281 -6.042969 -4.953125 C -6.285156 -4.660156 -6.410156 -4.3125 -6.414062 -3.902344 C -6.410156 -3.28125 -6.1875 -2.777344 -5.746094 -2.390625 C -5.296875 -2.003906 -4.59375 -1.808594 -3.636719 -1.8125 C -2.65625 -1.808594 -1.945312 -1.996094 -1.507812 -2.371094 C -1.0625 -2.742188 -0.84375 -3.230469 -0.847656 -3.835938 C -0.84375 -4.316406 -0.992188 -4.71875 -1.289062 -5.042969 C -1.585938 -5.367188 -2.042969 -5.574219 -2.660156 -5.660156 Z M -2.660156 -5.660156 "/>
</g>
<g id="glyph-3-4">
<path d="M -1.101562 -3.609375 L -0.0117188 -3.789062 C 0.0585938 -3.4375 0.09375 -3.128906 0.0976562 -2.859375 C 0.09375 -2.410156 0.0273438 -2.0625 -0.113281 -1.816406 C -0.253906 -1.570312 -0.441406 -1.394531 -0.671875 -1.296875 C -0.902344 -1.195312 -1.386719 -1.148438 -2.125 -1.148438 L -6.304688 -1.148438 L -6.304688 -0.246094 L -7.257812 -0.246094 L -7.257812 -1.148438 L -9.058594 -1.148438 L -9.796875 -2.371094 L -7.257812 -2.371094 L -7.257812 -3.609375 L -6.304688 -3.609375 L -6.304688 -2.371094 L -2.058594 -2.371094 C -1.703125 -2.367188 -1.476562 -2.386719 -1.378906 -2.433594 C -1.277344 -2.472656 -1.199219 -2.546875 -1.140625 -2.648438 C -1.078125 -2.746094 -1.046875 -2.886719 -1.050781 -3.070312 C -1.046875 -3.203125 -1.066406 -3.382812 -1.101562 -3.609375 Z M -1.101562 -3.609375 "/>
</g>
<g id="glyph-3-5">
<path d="M -8.605469 -0.929688 L -10.023438 -0.929688 L -10.023438 -2.160156 L -8.605469 -2.160156 Z M 0 -0.929688 L -7.257812 -0.929688 L -7.257812 -2.160156 L 0 -2.160156 Z M 0 -0.929688 "/>
</g>
<g id="glyph-4-0">
<path d="M 0.753906 -3.863281 L 2.257812 -3.996094 C 2.324219 -3.394531 2.488281 -2.898438 2.75 -2.515625 C 3.007812 -2.125 3.414062 -1.8125 3.960938 -1.578125 C 4.507812 -1.335938 5.121094 -1.21875 5.808594 -1.222656 C 6.410156 -1.21875 6.945312 -1.308594 7.414062 -1.492188 C 7.875 -1.671875 8.222656 -1.917969 8.453125 -2.234375 C 8.675781 -2.546875 8.789062 -2.890625 8.792969 -3.265625 C 8.789062 -3.640625 8.679688 -3.972656 8.464844 -4.253906 C 8.242188 -4.535156 7.882812 -4.769531 7.382812 -4.960938 C 7.058594 -5.085938 6.34375 -5.28125 5.242188 -5.546875 C 4.136719 -5.808594 3.363281 -6.058594 2.921875 -6.300781 C 2.34375 -6.597656 1.914062 -6.972656 1.636719 -7.417969 C 1.351562 -7.863281 1.210938 -8.363281 1.214844 -8.917969 C 1.210938 -9.523438 1.382812 -10.089844 1.730469 -10.617188 C 2.070312 -11.144531 2.574219 -11.542969 3.238281 -11.820312 C 3.898438 -12.089844 4.632812 -12.226562 5.445312 -12.230469 C 6.335938 -12.226562 7.125 -12.085938 7.804688 -11.800781 C 8.484375 -11.511719 9.007812 -11.085938 9.375 -10.53125 C 9.742188 -9.96875 9.9375 -9.339844 9.96875 -8.636719 L 8.441406 -8.523438 C 8.355469 -9.28125 8.078125 -9.855469 7.605469 -10.246094 C 7.132812 -10.632812 6.433594 -10.828125 5.511719 -10.828125 C 4.546875 -10.828125 3.847656 -10.648438 3.410156 -10.296875 C 2.96875 -9.941406 2.746094 -9.519531 2.75 -9.023438 C 2.746094 -8.589844 2.902344 -8.234375 3.214844 -7.957031 C 3.519531 -7.675781 4.320312 -7.386719 5.613281 -7.097656 C 6.90625 -6.800781 7.792969 -6.546875 8.277344 -6.332031 C 8.976562 -6.007812 9.492188 -5.597656 9.828125 -5.105469 C 10.15625 -4.605469 10.324219 -4.035156 10.328125 -3.394531 C 10.324219 -2.753906 10.140625 -2.152344 9.777344 -1.585938 C 9.40625 -1.019531 8.878906 -0.578125 8.195312 -0.265625 C 7.507812 0.046875 6.738281 0.199219 5.882812 0.203125 C 4.792969 0.199219 3.878906 0.0429688 3.144531 -0.269531 C 2.40625 -0.585938 1.828125 -1.0625 1.414062 -1.699219 C 0.992188 -2.335938 0.773438 -3.054688 0.753906 -3.863281 Z M 0.753906 -3.863281 "/>
</g>
<g id="glyph-4-1">
<path d="M 1.117188 -10.328125 L 1.117188 -12.027344 L 2.59375 -12.027344 L 2.59375 -10.328125 Z M 1.117188 0 L 1.117188 -8.710938 L 2.59375 -8.710938 L 2.59375 0 Z M 1.117188 0 "/>
</g>
<g id="glyph-4-2">
<path d="M 1.109375 0 L 1.109375 -8.710938 L 2.429688 -8.710938 L 2.429688 -7.488281 C 2.699219 -7.914062 3.0625 -8.257812 3.519531 -8.519531 C 3.96875 -8.777344 4.484375 -8.90625 5.070312 -8.910156 C 5.710938 -8.90625 6.242188 -8.773438 6.65625 -8.507812 C 7.070312 -8.238281 7.359375 -7.863281 7.53125 -7.382812 C 8.214844 -8.398438 9.113281 -8.90625 10.222656 -8.910156 C 11.082031 -8.90625 11.746094 -8.667969 12.210938 -8.191406 C 12.675781 -7.710938 12.90625 -6.972656 12.910156 -5.980469 L 12.910156 0 L 11.445312 0 L 11.445312 -5.488281 C 11.441406 -6.078125 11.394531 -6.503906 11.300781 -6.761719 C 11.203125 -7.019531 11.027344 -7.226562 10.777344 -7.390625 C 10.523438 -7.546875 10.230469 -7.628906 9.894531 -7.628906 C 9.277344 -7.628906 8.769531 -7.421875 8.367188 -7.015625 C 7.960938 -6.605469 7.757812 -5.957031 7.761719 -5.0625 L 7.761719 0 L 6.285156 0 L 6.285156 -5.660156 C 6.28125 -6.316406 6.160156 -6.808594 5.921875 -7.136719 C 5.679688 -7.464844 5.285156 -7.628906 4.742188 -7.628906 C 4.320312 -7.628906 3.9375 -7.519531 3.585938 -7.300781 C 3.234375 -7.082031 2.976562 -6.761719 2.820312 -6.339844 C 2.660156 -5.917969 2.582031 -5.308594 2.585938 -4.519531 L 2.585938 0 Z M 1.109375 0 "/>
</g>
<g id="glyph-4-3">
<path d="M 6.816406 0 L 6.816406 -1.28125 C 6.136719 -0.296875 5.214844 0.191406 4.050781 0.195312 C 3.535156 0.191406 3.058594 0.0976562 2.613281 -0.0976562 C 2.167969 -0.292969 1.835938 -0.539062 1.621094 -0.839844 C 1.402344 -1.136719 1.25 -1.503906 1.164062 -1.9375 C 1.101562 -2.222656 1.070312 -2.679688 1.074219 -3.3125 L 1.074219 -8.710938 L 2.550781 -8.710938 L 2.550781 -3.878906 C 2.546875 -3.105469 2.578125 -2.585938 2.640625 -2.320312 C 2.730469 -1.929688 2.925781 -1.625 3.230469 -1.40625 C 3.527344 -1.183594 3.902344 -1.070312 4.347656 -1.074219 C 4.789062 -1.070312 5.203125 -1.183594 5.59375 -1.414062 C 5.980469 -1.636719 6.253906 -1.945312 6.417969 -2.339844 C 6.574219 -2.730469 6.65625 -3.300781 6.660156 -4.042969 L 6.660156 -8.710938 L 8.136719 -8.710938 L 8.136719 0 Z M 6.816406 0 "/>
</g>
<g id="glyph-4-4">
<path d="M 1.074219 0 L 1.074219 -12.027344 L 2.550781 -12.027344 L 2.550781 0 Z M 1.074219 0 "/>
</g>
<g id="glyph-4-5">
<path d="M 6.792969 -1.074219 C 6.242188 -0.605469 5.714844 -0.277344 5.210938 -0.0898438 C 4.703125 0.101562 4.164062 0.191406 3.585938 0.195312 C 2.625 0.191406 1.886719 -0.0390625 1.375 -0.503906 C 0.859375 -0.972656 0.601562 -1.570312 0.605469 -2.296875 C 0.601562 -2.722656 0.699219 -3.109375 0.894531 -3.464844 C 1.085938 -3.816406 1.339844 -4.101562 1.660156 -4.3125 C 1.972656 -4.523438 2.328125 -4.683594 2.722656 -4.796875 C 3.007812 -4.871094 3.445312 -4.945312 4.035156 -5.019531 C 5.226562 -5.160156 6.105469 -5.328125 6.667969 -5.527344 C 6.671875 -5.726562 6.671875 -5.855469 6.675781 -5.914062 C 6.671875 -6.511719 6.535156 -6.9375 6.257812 -7.1875 C 5.878906 -7.519531 5.316406 -7.6875 4.578125 -7.6875 C 3.878906 -7.6875 3.367188 -7.5625 3.039062 -7.320312 C 2.707031 -7.074219 2.460938 -6.644531 2.304688 -6.03125 L 0.859375 -6.226562 C 0.988281 -6.839844 1.203125 -7.339844 1.507812 -7.722656 C 1.804688 -8.101562 2.242188 -8.394531 2.8125 -8.601562 C 3.382812 -8.804688 4.039062 -8.90625 4.789062 -8.910156 C 5.53125 -8.90625 6.136719 -8.816406 6.601562 -8.644531 C 7.066406 -8.464844 7.410156 -8.246094 7.628906 -7.984375 C 7.847656 -7.714844 8 -7.378906 8.089844 -6.980469 C 8.136719 -6.722656 8.160156 -6.269531 8.164062 -5.617188 L 8.164062 -3.648438 C 8.160156 -2.273438 8.191406 -1.40625 8.257812 -1.042969 C 8.316406 -0.679688 8.441406 -0.332031 8.628906 0 L 7.085938 0 C 6.929688 -0.304688 6.832031 -0.660156 6.792969 -1.074219 Z M 6.667969 -4.371094 C 6.132812 -4.152344 5.328125 -3.964844 4.257812 -3.8125 C 3.648438 -3.722656 3.21875 -3.625 2.96875 -3.519531 C 2.714844 -3.40625 2.519531 -3.246094 2.386719 -3.039062 C 2.246094 -2.824219 2.179688 -2.589844 2.183594 -2.335938 C 2.179688 -1.941406 2.328125 -1.613281 2.628906 -1.351562 C 2.925781 -1.089844 3.363281 -0.960938 3.9375 -0.960938 C 4.503906 -0.960938 5.007812 -1.082031 5.453125 -1.332031 C 5.894531 -1.578125 6.21875 -1.921875 6.429688 -2.355469 C 6.585938 -2.6875 6.667969 -3.179688 6.667969 -3.832031 Z M 6.667969 -4.371094 "/>
</g>
<g id="glyph-4-6">
<path d="M 4.332031 -1.320312 L 4.542969 -0.015625 C 4.125 0.0703125 3.753906 0.109375 3.429688 0.113281 C 2.890625 0.109375 2.476562 0.0273438 2.179688 -0.140625 C 1.882812 -0.308594 1.675781 -0.53125 1.558594 -0.808594 C 1.4375 -1.082031 1.375 -1.660156 1.378906 -2.550781 L 1.378906 -7.5625 L 0.296875 -7.5625 L 0.296875 -8.710938 L 1.378906 -8.710938 L 1.378906 -10.867188 L 2.847656 -11.753906 L 2.847656 -8.710938 L 4.332031 -8.710938 L 4.332031 -7.5625 L 2.847656 -7.5625 L 2.847656 -2.46875 C 2.847656 -2.042969 2.871094 -1.773438 2.925781 -1.65625 C 2.972656 -1.535156 3.058594 -1.4375 3.179688 -1.367188 C 3.292969 -1.292969 3.460938 -1.257812 3.683594 -1.261719 C 3.84375 -1.257812 4.058594 -1.277344 4.332031 -1.320312 Z M 4.332031 -1.320312 "/>
</g>
<g id="glyph-4-7">
<path d="M 0.558594 -4.355469 C 0.554688 -5.964844 1.003906 -7.160156 1.902344 -7.941406 C 2.648438 -8.582031 3.5625 -8.90625 4.644531 -8.910156 C 5.835938 -8.90625 6.8125 -8.511719 7.578125 -7.730469 C 8.335938 -6.941406 8.71875 -5.859375 8.71875 -4.480469 C 8.71875 -3.355469 8.550781 -2.472656 8.214844 -1.832031 C 7.878906 -1.1875 7.386719 -0.6875 6.746094 -0.335938 C 6.097656 0.0195312 5.398438 0.191406 4.644531 0.195312 C 3.421875 0.191406 2.433594 -0.195312 1.683594 -0.976562 C 0.929688 -1.753906 0.554688 -2.878906 0.558594 -4.355469 Z M 2.074219 -4.355469 C 2.074219 -3.238281 2.316406 -2.402344 2.804688 -1.847656 C 3.289062 -1.289062 3.902344 -1.011719 4.644531 -1.015625 C 5.375 -1.011719 5.984375 -1.292969 6.472656 -1.851562 C 6.957031 -2.410156 7.199219 -3.261719 7.203125 -4.40625 C 7.199219 -5.480469 6.957031 -6.292969 6.46875 -6.851562 C 5.976562 -7.40625 5.367188 -7.6875 4.644531 -7.6875 C 3.902344 -7.6875 3.289062 -7.410156 2.804688 -6.859375 C 2.316406 -6.304688 2.074219 -5.46875 2.074219 -4.355469 Z M 2.074219 -4.355469 "/>
</g>
<g id="glyph-4-8">
<path d="M 1.109375 0 L 1.109375 -8.710938 L 2.4375 -8.710938 L 2.4375 -7.472656 C 3.074219 -8.425781 3.996094 -8.90625 5.210938 -8.910156 C 5.730469 -8.90625 6.214844 -8.8125 6.65625 -8.625 C 7.09375 -8.4375 7.421875 -8.1875 7.644531 -7.882812 C 7.859375 -7.570312 8.011719 -7.207031 8.105469 -6.792969 C 8.15625 -6.515625 8.183594 -6.039062 8.1875 -5.355469 L 8.1875 0 L 6.710938 0 L 6.710938 -5.300781 C 6.707031 -5.898438 6.652344 -6.347656 6.539062 -6.648438 C 6.421875 -6.941406 6.214844 -7.179688 5.925781 -7.359375 C 5.628906 -7.539062 5.289062 -7.628906 4.898438 -7.628906 C 4.265625 -7.628906 3.722656 -7.425781 3.269531 -7.027344 C 2.8125 -6.625 2.582031 -5.871094 2.585938 -4.757812 L 2.585938 0 Z M 1.109375 0 "/>
</g>
<g id="glyph-4-9">
<path d="M 0.53125 -3.609375 L 0.53125 -5.09375 L 5.070312 -5.09375 L 5.070312 -3.609375 Z M 0.53125 -3.609375 "/>
</g>
<g id="glyph-4-10">
<path d="M 1.230469 0 L 1.230469 -12.027344 L 5.742188 -12.027344 C 6.660156 -12.023438 7.394531 -11.902344 7.953125 -11.660156 C 8.503906 -11.417969 8.941406 -11.042969 9.257812 -10.535156 C 9.570312 -10.027344 9.726562 -9.496094 9.730469 -8.949219 C 9.726562 -8.433594 9.585938 -7.949219 9.308594 -7.496094 C 9.027344 -7.039062 8.605469 -6.675781 8.046875 -6.398438 C 8.769531 -6.183594 9.328125 -5.816406 9.722656 -5.304688 C 10.113281 -4.789062 10.3125 -4.183594 10.3125 -3.484375 C 10.3125 -2.917969 10.191406 -2.394531 9.953125 -1.914062 C 9.714844 -1.425781 9.421875 -1.050781 9.070312 -0.792969 C 8.71875 -0.527344 8.277344 -0.332031 7.753906 -0.199219 C 7.222656 -0.0664062 6.578125 0 5.816406 0 Z M 2.820312 -6.972656 L 5.421875 -6.972656 C 6.125 -6.972656 6.632812 -7.019531 6.941406 -7.113281 C 7.34375 -7.230469 7.648438 -7.429688 7.855469 -7.710938 C 8.058594 -7.988281 8.160156 -8.335938 8.164062 -8.761719 C 8.160156 -9.15625 8.066406 -9.507812 7.875 -9.8125 C 7.679688 -10.113281 7.40625 -10.320312 7.054688 -10.4375 C 6.699219 -10.546875 6.089844 -10.605469 5.226562 -10.605469 L 2.820312 -10.605469 Z M 2.820312 -1.417969 L 5.816406 -1.417969 C 6.328125 -1.417969 6.6875 -1.4375 6.898438 -1.476562 C 7.261719 -1.539062 7.570312 -1.648438 7.816406 -1.804688 C 8.0625 -1.957031 8.265625 -2.179688 8.425781 -2.472656 C 8.582031 -2.765625 8.660156 -3.101562 8.664062 -3.484375 C 8.660156 -3.933594 8.542969 -4.324219 8.316406 -4.65625 C 8.082031 -4.984375 7.765625 -5.214844 7.359375 -5.351562 C 6.953125 -5.484375 6.367188 -5.554688 5.601562 -5.554688 L 2.820312 -5.554688 Z M 2.820312 -1.417969 "/>
</g>
<g id="glyph-4-11">
<path d="M 0.515625 -2.601562 L 1.976562 -2.828125 C 2.054688 -2.242188 2.285156 -1.792969 2.660156 -1.484375 C 3.035156 -1.167969 3.558594 -1.011719 4.234375 -1.015625 C 4.910156 -1.011719 5.414062 -1.152344 5.742188 -1.429688 C 6.070312 -1.703125 6.234375 -2.027344 6.234375 -2.402344 C 6.234375 -2.734375 6.089844 -2.996094 5.800781 -3.191406 C 5.597656 -3.320312 5.09375 -3.488281 4.289062 -3.691406 C 3.203125 -3.964844 2.449219 -4.199219 2.035156 -4.398438 C 1.613281 -4.597656 1.296875 -4.875 1.085938 -5.226562 C 0.867188 -5.578125 0.761719 -5.96875 0.761719 -6.398438 C 0.761719 -6.785156 0.847656 -7.144531 1.027344 -7.476562 C 1.203125 -7.804688 1.445312 -8.078125 1.753906 -8.300781 C 1.980469 -8.46875 2.296875 -8.613281 2.695312 -8.730469 C 3.089844 -8.847656 3.511719 -8.90625 3.96875 -8.910156 C 4.648438 -8.90625 5.25 -8.808594 5.769531 -8.613281 C 6.285156 -8.414062 6.667969 -8.144531 6.914062 -7.8125 C 7.160156 -7.472656 7.328125 -7.023438 7.421875 -6.464844 L 5.980469 -6.265625 C 5.914062 -6.710938 5.722656 -7.0625 5.410156 -7.316406 C 5.089844 -7.566406 4.648438 -7.691406 4.078125 -7.695312 C 3.398438 -7.691406 2.914062 -7.582031 2.625 -7.359375 C 2.335938 -7.132812 2.191406 -6.867188 2.191406 -6.570312 C 2.191406 -6.375 2.25 -6.203125 2.371094 -6.054688 C 2.488281 -5.890625 2.675781 -5.761719 2.9375 -5.660156 C 3.078125 -5.605469 3.515625 -5.476562 4.242188 -5.28125 C 5.285156 -5 6.011719 -4.773438 6.425781 -4.597656 C 6.835938 -4.417969 7.160156 -4.160156 7.398438 -3.820312 C 7.628906 -3.480469 7.746094 -3.058594 7.75 -2.558594 C 7.746094 -2.0625 7.601562 -1.597656 7.320312 -1.167969 C 7.03125 -0.730469 6.617188 -0.394531 6.078125 -0.160156 C 5.53125 0.078125 4.921875 0.191406 4.242188 0.195312 C 3.109375 0.191406 2.246094 -0.0390625 1.652344 -0.507812 C 1.058594 -0.976562 0.679688 -1.675781 0.515625 -2.601562 Z M 0.515625 -2.601562 "/>
</g>
<g id="glyph-4-12">
<path d="M 7.070312 -2.804688 L 8.597656 -2.617188 C 8.351562 -1.722656 7.90625 -1.03125 7.257812 -0.542969 C 6.605469 -0.0507812 5.773438 0.191406 4.765625 0.195312 C 3.488281 0.191406 2.480469 -0.195312 1.734375 -0.980469 C 0.988281 -1.761719 0.613281 -2.863281 0.617188 -4.28125 C 0.613281 -5.746094 0.992188 -6.882812 1.746094 -7.695312 C 2.5 -8.5 3.476562 -8.90625 4.683594 -8.910156 C 5.84375 -8.90625 6.796875 -8.507812 7.535156 -7.71875 C 8.273438 -6.921875 8.640625 -5.808594 8.644531 -4.371094 C 8.640625 -4.285156 8.640625 -4.152344 8.636719 -3.976562 L 2.140625 -3.976562 C 2.191406 -3.019531 2.464844 -2.285156 2.953125 -1.777344 C 3.4375 -1.265625 4.042969 -1.011719 4.773438 -1.015625 C 5.3125 -1.011719 5.773438 -1.15625 6.160156 -1.441406 C 6.539062 -1.726562 6.84375 -2.179688 7.070312 -2.804688 Z M 2.222656 -5.191406 L 7.085938 -5.191406 C 7.015625 -5.925781 6.832031 -6.472656 6.53125 -6.839844 C 6.058594 -7.40625 5.449219 -7.691406 4.699219 -7.695312 C 4.019531 -7.691406 3.449219 -7.464844 2.988281 -7.011719 C 2.527344 -6.554688 2.269531 -5.949219 2.222656 -5.191406 Z M 2.222656 -5.191406 "/>
</g>
<g id="glyph-4-13">
<path d="M 6.757812 0 L 6.757812 -1.097656 C 6.203125 -0.234375 5.394531 0.191406 4.324219 0.195312 C 3.628906 0.191406 2.988281 0.00390625 2.40625 -0.378906 C 1.824219 -0.757812 1.375 -1.292969 1.054688 -1.980469 C 0.734375 -2.667969 0.574219 -3.457031 0.574219 -4.347656 C 0.574219 -5.214844 0.71875 -6.003906 1.007812 -6.714844 C 1.296875 -7.421875 1.730469 -7.964844 2.3125 -8.34375 C 2.890625 -8.71875 3.539062 -8.90625 4.257812 -8.910156 C 4.78125 -8.90625 5.25 -8.792969 5.660156 -8.574219 C 6.066406 -8.347656 6.398438 -8.0625 6.660156 -7.710938 L 6.660156 -12.027344 L 8.128906 -12.027344 L 8.128906 0 Z M 2.09375 -4.347656 C 2.089844 -3.230469 2.324219 -2.394531 2.796875 -1.84375 C 3.265625 -1.289062 3.820312 -1.011719 4.460938 -1.015625 C 5.101562 -1.011719 5.652344 -1.277344 6.105469 -1.808594 C 6.558594 -2.335938 6.785156 -3.140625 6.785156 -4.226562 C 6.785156 -5.414062 6.554688 -6.289062 6.09375 -6.847656 C 5.632812 -7.40625 5.066406 -7.6875 4.398438 -7.6875 C 3.738281 -7.6875 3.191406 -7.417969 2.753906 -6.882812 C 2.3125 -6.34375 2.089844 -5.5 2.09375 -4.347656 Z M 2.09375 -4.347656 "/>
</g>
<g id="glyph-4-14">
</g>
<g id="glyph-4-15">
<path d="M 1.28125 0 L 1.28125 -12.027344 L 2.914062 -12.027344 L 9.226562 -2.585938 L 9.226562 -12.027344 L 10.753906 -12.027344 L 10.753906 0 L 9.121094 0 L 2.804688 -9.449219 L 2.804688 0 Z M 1.28125 0 "/>
</g>
<g id="glyph-4-16">
<path d="M 1.296875 0 L 1.296875 -12.027344 L 5.4375 -12.027344 C 6.371094 -12.023438 7.082031 -11.964844 7.578125 -11.851562 C 8.265625 -11.691406 8.855469 -11.40625 9.34375 -10.992188 C 9.976562 -10.453125 10.449219 -9.765625 10.765625 -8.9375 C 11.078125 -8.101562 11.238281 -7.148438 11.238281 -6.078125 C 11.238281 -5.160156 11.128906 -4.351562 10.917969 -3.648438 C 10.699219 -2.941406 10.425781 -2.359375 10.097656 -1.898438 C 9.761719 -1.4375 9.398438 -1.074219 9 -0.808594 C 8.601562 -0.542969 8.121094 -0.339844 7.566406 -0.203125 C 7.003906 -0.0664062 6.363281 0 5.636719 0 Z M 2.886719 -1.417969 L 5.453125 -1.417969 C 6.246094 -1.417969 6.867188 -1.492188 7.320312 -1.640625 C 7.769531 -1.789062 8.128906 -1.996094 8.398438 -2.265625 C 8.773438 -2.636719 9.070312 -3.144531 9.28125 -3.785156 C 9.492188 -4.421875 9.597656 -5.191406 9.597656 -6.101562 C 9.597656 -7.355469 9.390625 -8.324219 8.976562 -9 C 8.5625 -9.675781 8.058594 -10.128906 7.472656 -10.359375 C 7.042969 -10.523438 6.359375 -10.605469 5.414062 -10.605469 L 2.886719 -10.605469 Z M 2.886719 -1.417969 "/>
</g>
<g id="glyph-4-17">
<path d="M 1.089844 0 L 1.089844 -8.710938 L 2.421875 -8.710938 L 2.421875 -7.390625 C 2.757812 -8.003906 3.070312 -8.414062 3.359375 -8.613281 C 3.640625 -8.808594 3.957031 -8.90625 4.304688 -8.910156 C 4.800781 -8.90625 5.308594 -8.746094 5.824219 -8.433594 L 5.316406 -7.0625 C 4.949219 -7.273438 4.589844 -7.382812 4.234375 -7.382812 C 3.910156 -7.382812 3.621094 -7.285156 3.363281 -7.089844 C 3.105469 -6.894531 2.921875 -6.625 2.8125 -6.285156 C 2.648438 -5.757812 2.566406 -5.183594 2.566406 -4.5625 L 2.566406 0 Z M 1.089844 0 "/>
</g>
<g id="glyph-4-18">
<path d="M 2.46875 0 L 1.097656 0 L 1.097656 -12.027344 L 2.574219 -12.027344 L 2.574219 -7.734375 C 3.195312 -8.515625 3.992188 -8.90625 4.960938 -8.910156 C 5.496094 -8.90625 6.003906 -8.796875 6.484375 -8.585938 C 6.960938 -8.367188 7.355469 -8.0625 7.664062 -7.671875 C 7.972656 -7.277344 8.214844 -6.808594 8.390625 -6.257812 C 8.566406 -5.703125 8.652344 -5.113281 8.65625 -4.488281 C 8.652344 -2.992188 8.285156 -1.835938 7.546875 -1.023438 C 6.804688 -0.210938 5.917969 0.191406 4.890625 0.195312 C 3.859375 0.191406 3.050781 -0.234375 2.46875 -1.089844 Z M 2.453125 -4.421875 C 2.449219 -3.375 2.589844 -2.621094 2.878906 -2.15625 C 3.339844 -1.394531 3.96875 -1.011719 4.765625 -1.015625 C 5.40625 -1.011719 5.964844 -1.292969 6.4375 -1.855469 C 6.90625 -2.414062 7.140625 -3.25 7.144531 -4.363281 C 7.140625 -5.5 6.917969 -6.339844 6.46875 -6.882812 C 6.015625 -7.421875 5.46875 -7.691406 4.832031 -7.695312 C 4.183594 -7.691406 3.625 -7.410156 3.15625 -6.851562 C 2.683594 -6.289062 2.449219 -5.480469 2.453125 -4.421875 Z M 2.453125 -4.421875 "/>
</g>
</g>
<clipPath id="clip-0">
<path clip-rule="nonzero" d="M 48.390625 29.507812 L 569.023438 29.507812 L 569.023438 301.917969 L 48.390625 301.917969 Z M 48.390625 29.507812 "/>
</clipPath>
<clipPath id="clip-1">
<path clip-rule="nonzero" d="M 48.390625 263 L 569.023438 263 L 569.023438 265 L 48.390625 265 Z M 48.390625 263 "/>
</clipPath>
<clipPath id="clip-2">
<path clip-rule="nonzero" d="M 48.390625 212 L 569.023438 212 L 569.023438 214 L 48.390625 214 Z M 48.390625 212 "/>
</clipPath>
<clipPath id="clip-3">
<path clip-rule="nonzero" d="M 48.390625 161 L 569.023438 161 L 569.023438 163 L 48.390625 163 Z M 48.390625 161 "/>
</clipPath>
<clipPath id="clip-4">
<path clip-rule="nonzero" d="M 48.390625 110 L 569.023438 110 L 569.023438 112 L 48.390625 112 Z M 48.390625 110 "/>
</clipPath>
<clipPath id="clip-5">
<path clip-rule="nonzero" d="M 48.390625 59 L 569.023438 59 L 569.023438 61 L 48.390625 61 Z M 48.390625 59 "/>
</clipPath>
<clipPath id="clip-6">
<path clip-rule="nonzero" d="M 130 29.507812 L 132 29.507812 L 132 301.917969 L 130 301.917969 Z M 130 29.507812 "/>
</clipPath>
<clipPath id="clip-7">
<path clip-rule="nonzero" d="M 249 29.507812 L 250 29.507812 L 250 301.917969 L 249 301.917969 Z M 249 29.507812 "/>
</clipPath>
<clipPath id="clip-8">
<path clip-rule="nonzero" d="M 367 29.507812 L 369 29.507812 L 369 301.917969 L 367 301.917969 Z M 367 29.507812 "/>
</clipPath>
<clipPath id="clip-9">
<path clip-rule="nonzero" d="M 485 29.507812 L 487 29.507812 L 487 301.917969 L 485 301.917969 Z M 485 29.507812 "/>
</clipPath>
<clipPath id="clip-10">
<path clip-rule="nonzero" d="M 48.390625 288 L 569.023438 288 L 569.023438 291 L 48.390625 291 Z M 48.390625 288 "/>
</clipPath>
<clipPath id="clip-11">
<path clip-rule="nonzero" d="M 48.390625 237 L 569.023438 237 L 569.023438 240 L 48.390625 240 Z M 48.390625 237 "/>
</clipPath>
<clipPath id="clip-12">
<path clip-rule="nonzero" d="M 48.390625 186 L 569.023438 186 L 569.023438 189 L 48.390625 189 Z M 48.390625 186 "/>
</clipPath>
<clipPath id="clip-13">
<path clip-rule="nonzero" d="M 48.390625 135 L 569.023438 135 L 569.023438 138 L 48.390625 138 Z M 48.390625 135 "/>
</clipPath>
<clipPath id="clip-14">
<path clip-rule="nonzero" d="M 48.390625 84 L 569.023438 84 L 569.023438 86 L 48.390625 86 Z M 48.390625 84 "/>
</clipPath>
<clipPath id="clip-15">
<path clip-rule="nonzero" d="M 48.390625 33 L 569.023438 33 L 569.023438 35 L 48.390625 35 Z M 48.390625 33 "/>
</clipPath>
<clipPath id="clip-16">
<path clip-rule="nonzero" d="M 71 29.507812 L 73 29.507812 L 73 301.917969 L 71 301.917969 Z M 71 29.507812 "/>
</clipPath>
<clipPath id="clip-17">
<path clip-rule="nonzero" d="M 189 29.507812 L 192 29.507812 L 192 301.917969 L 189 301.917969 Z M 189 29.507812 "/>
</clipPath>
<clipPath id="clip-18">
<path clip-rule="nonzero" d="M 308 29.507812 L 310 29.507812 L 310 301.917969 L 308 301.917969 Z M 308 29.507812 "/>
</clipPath>
<clipPath id="clip-19">
<path clip-rule="nonzero" d="M 426 29.507812 L 428 29.507812 L 428 301.917969 L 426 301.917969 Z M 426 29.507812 "/>
</clipPath>
<clipPath id="clip-20">
<path clip-rule="nonzero" d="M 544 29.507812 L 547 29.507812 L 547 301.917969 L 544 301.917969 Z M 544 29.507812 "/>
</clipPath>
<clipPath id="clip-21">
<path clip-rule="nonzero" d="M 480 29.507812 L 483 29.507812 L 483 301.917969 L 480 301.917969 Z M 480 29.507812 "/>
</clipPath>
<clipPath id="clip-22">
<path clip-rule="nonzero" d="M 48.390625 29.507812 L 569.023438 29.507812 L 569.023438 301.917969 L 48.390625 301.917969 Z M 48.390625 29.507812 "/>
</clipPath>
</defs>
<rect x="-57.6" y="-34.2" width="691.2" height="410.4" fill="rgb(100%, 100%, 100%)" fill-opacity="1"/>
<rect x="-57.6" y="-34.2" width="691.2" height="410.4" fill="rgb(100%, 100%, 100%)" fill-opacity="1"/>
<path fill="none" stroke-width="1.357972" stroke-linecap="round" stroke-linejoin="round" stroke="rgb(100%, 100%, 100%)" stroke-opacity="1" stroke-miterlimit="10" d="M 0 342 L 576 342 L 576 0 L 0 0 Z M 0 342 "/>
<g clip-path="url(#clip-0)">
<path fill-rule="nonzero" fill="rgb(100%, 100%, 100%)" fill-opacity="1" d="M 48.390625 301.921875 L 569.023438 301.921875 L 569.023438 29.511719 L 48.390625 29.511719 Z M 48.390625 301.921875 "/>
</g>
<g clip-path="url(#clip-1)">
<path fill="none" stroke-width="0.678986" stroke-linecap="butt" stroke-linejoin="round" stroke="rgb(92.156863%, 92.156863%, 92.156863%)" stroke-opacity="1" stroke-miterlimit="10" d="M 48.390625 264.007812 L 569.027344 264.007812 "/>
</g>
<g clip-path="url(#clip-2)">
<path fill="none" stroke-width="0.678986" stroke-linecap="butt" stroke-linejoin="round" stroke="rgb(92.156863%, 92.156863%, 92.156863%)" stroke-opacity="1" stroke-miterlimit="10" d="M 48.390625 212.945312 L 569.027344 212.945312 "/>
</g>
<g clip-path="url(#clip-3)">
<path fill="none" stroke-width="0.678986" stroke-linecap="butt" stroke-linejoin="round" stroke="rgb(92.156863%, 92.156863%, 92.156863%)" stroke-opacity="1" stroke-miterlimit="10" d="M 48.390625 161.886719 L 569.027344 161.886719 "/>
</g>
<g clip-path="url(#clip-4)">
<path fill="none" stroke-width="0.678986" stroke-linecap="butt" stroke-linejoin="round" stroke="rgb(92.156863%, 92.156863%, 92.156863%)" stroke-opacity="1" stroke-miterlimit="10" d="M 48.390625 110.824219 L 569.027344 110.824219 "/>
</g>
<g clip-path="url(#clip-5)">
<path fill="none" stroke-width="0.678986" stroke-linecap="butt" stroke-linejoin="round" stroke="rgb(92.156863%, 92.156863%, 92.156863%)" stroke-opacity="1" stroke-miterlimit="10" d="M 48.390625 59.761719 L 569.027344 59.761719 "/>
</g>
<g clip-path="url(#clip-6)">
<path fill="none" stroke-width="0.678986" stroke-linecap="butt" stroke-linejoin="round" stroke="rgb(92.156863%, 92.156863%, 92.156863%)" stroke-opacity="1" stroke-miterlimit="10" d="M 131.21875 301.921875 L 131.21875 29.507812 "/>
</g>
<g clip-path="url(#clip-7)">
<path fill="none" stroke-width="0.678986" stroke-linecap="butt" stroke-linejoin="round" stroke="rgb(92.156863%, 92.156863%, 92.156863%)" stroke-opacity="1" stroke-miterlimit="10" d="M 249.546875 301.921875 L 249.546875 29.507812 "/>
</g>
<g clip-path="url(#clip-8)">
<path fill="none" stroke-width="0.678986" stroke-linecap="butt" stroke-linejoin="round" stroke="rgb(92.156863%, 92.156863%, 92.156863%)" stroke-opacity="1" stroke-miterlimit="10" d="M 367.871094 301.921875 L 367.871094 29.507812 "/>
</g>
<g clip-path="url(#clip-9)">
<path fill="none" stroke-width="0.678986" stroke-linecap="butt" stroke-linejoin="round" stroke="rgb(92.156863%, 92.156863%, 92.156863%)" stroke-opacity="1" stroke-miterlimit="10" d="M 486.199219 301.921875 L 486.199219 29.507812 "/>
</g>
<g clip-path="url(#clip-10)">
<path fill="none" stroke-width="1.357972" stroke-linecap="butt" stroke-linejoin="round" stroke="rgb(92.156863%, 92.156863%, 92.156863%)" stroke-opacity="1" stroke-miterlimit="10" d="M 48.390625 289.539062 L 569.027344 289.539062 "/>
</g>
<g clip-path="url(#clip-11)">
<path fill="none" stroke-width="1.357972" stroke-linecap="butt" stroke-linejoin="round" stroke="rgb(92.156863%, 92.156863%, 92.156863%)" stroke-opacity="1" stroke-miterlimit="10" d="M 48.390625 238.476562 L 569.027344 238.476562 "/>
</g>
<g clip-path="url(#clip-12)">
<path fill="none" stroke-width="1.357972" stroke-linecap="butt" stroke-linejoin="round" stroke="rgb(92.156863%, 92.156863%, 92.156863%)" stroke-opacity="1" stroke-miterlimit="10" d="M 48.390625 187.414062 L 569.027344 187.414062 "/>
</g>
<g clip-path="url(#clip-13)">
<path fill="none" stroke-width="1.357972" stroke-linecap="butt" stroke-linejoin="round" stroke="rgb(92.156863%, 92.156863%, 92.156863%)" stroke-opacity="1" stroke-miterlimit="10" d="M 48.390625 136.355469 L 569.027344 136.355469 "/>
</g>
<g clip-path="url(#clip-14)">
<path fill="none" stroke-width="1.357972" stroke-linecap="butt" stroke-linejoin="round" stroke="rgb(92.156863%, 92.156863%, 92.156863%)" stroke-opacity="1" stroke-miterlimit="10" d="M 48.390625 85.292969 L 569.027344 85.292969 "/>
</g>
<g clip-path="url(#clip-15)">
<path fill="none" stroke-width="1.357972" stroke-linecap="butt" stroke-linejoin="round" stroke="rgb(92.156863%, 92.156863%, 92.156863%)" stroke-opacity="1" stroke-miterlimit="10" d="M 48.390625 34.230469 L 569.027344 34.230469 "/>
</g>
<g clip-path="url(#clip-16)">
<path fill="none" stroke-width="1.357972" stroke-linecap="butt" stroke-linejoin="round" stroke="rgb(92.156863%, 92.156863%, 92.156863%)" stroke-opacity="1" stroke-miterlimit="10" d="M 72.058594 301.921875 L 72.058594 29.507812 "/>
</g>
<g clip-path="url(#clip-17)">
<path fill="none" stroke-width="1.357972" stroke-linecap="butt" stroke-linejoin="round" stroke="rgb(92.156863%, 92.156863%, 92.156863%)" stroke-opacity="1" stroke-miterlimit="10" d="M 190.382812 301.921875 L 190.382812 29.507812 "/>
</g>
<g clip-path="url(#clip-18)">
<path fill="none" stroke-width="1.357972" stroke-linecap="butt" stroke-linejoin="round" stroke="rgb(92.156863%, 92.156863%, 92.156863%)" stroke-opacity="1" stroke-miterlimit="10" d="M 308.707031 301.921875 L 308.707031 29.507812 "/>
</g>
<g clip-path="url(#clip-19)">
<path fill="none" stroke-width="1.357972" stroke-linecap="butt" stroke-linejoin="round" stroke="rgb(92.156863%, 92.156863%, 92.156863%)" stroke-opacity="1" stroke-miterlimit="10" d="M 427.035156 301.921875 L 427.035156 29.507812 "/>
</g>
<g clip-path="url(#clip-20)">
<path fill="none" stroke-width="1.357972" stroke-linecap="butt" stroke-linejoin="round" stroke="rgb(92.156863%, 92.156863%, 92.156863%)" stroke-opacity="1" stroke-miterlimit="10" d="M 545.359375 301.921875 L 545.359375 29.507812 "/>
</g>
<path fill-rule="nonzero" fill="rgb(34.901961%, 34.901961%, 34.901961%)" fill-opacity="1" stroke-width="1.357972" stroke-linecap="butt" stroke-linejoin="miter" stroke="rgb(100%, 100%, 100%)" stroke-opacity="1" stroke-miterlimit="10" d="M 119.714844 289.539062 L 174.496094 289.539062 L 174.496094 279.328125 L 119.714844 279.328125 Z M 119.714844 289.539062 "/>
<path fill-rule="nonzero" fill="rgb(34.901961%, 34.901961%, 34.901961%)" fill-opacity="1" stroke-width="1.357972" stroke-linecap="butt" stroke-linejoin="miter" stroke="rgb(100%, 100%, 100%)" stroke-opacity="1" stroke-miterlimit="10" d="M 174.496094 289.539062 L 229.277344 289.539062 L 229.277344 264.007812 L 174.496094 264.007812 Z M 174.496094 289.539062 "/>
<path fill-rule="nonzero" fill="rgb(34.901961%, 34.901961%, 34.901961%)" fill-opacity="1" stroke-width="1.357972" stroke-linecap="butt" stroke-linejoin="miter" stroke="rgb(100%, 100%, 100%)" stroke-opacity="1" stroke-miterlimit="10" d="M 229.277344 289.539062 L 284.058594 289.539062 L 284.058594 74.0625 L 229.277344 74.0625 Z M 229.277344 289.539062 "/>
<path fill-rule="nonzero" fill="rgb(34.901961%, 34.901961%, 34.901961%)" fill-opacity="1" stroke-width="1.357972" stroke-linecap="butt" stroke-linejoin="miter" stroke="rgb(100%, 100%, 100%)" stroke-opacity="1" stroke-miterlimit="10" d="M 284.058594 289.539062 L 338.839844 289.539062 L 338.839844 162.90625 L 284.058594 162.90625 Z M 284.058594 289.539062 "/>
<path fill-rule="nonzero" fill="rgb(34.901961%, 34.901961%, 34.901961%)" fill-opacity="1" stroke-width="1.357972" stroke-linecap="butt" stroke-linejoin="miter" stroke="rgb(100%, 100%, 100%)" stroke-opacity="1" stroke-miterlimit="10" d="M 338.839844 289.539062 L 393.621094 289.539062 L 393.621094 203.246094 L 338.839844 203.246094 Z M 338.839844 289.539062 "/>
<path fill-rule="nonzero" fill="rgb(34.901961%, 34.901961%, 34.901961%)" fill-opacity="1" stroke-width="1.357972" stroke-linecap="butt" stroke-linejoin="miter" stroke="rgb(100%, 100%, 100%)" stroke-opacity="1" stroke-miterlimit="10" d="M 393.617188 289.539062 L 448.398438 289.539062 L 448.398438 255.328125 L 393.617188 255.328125 Z M 393.617188 289.539062 "/>
<path fill-rule="nonzero" fill="rgb(34.901961%, 34.901961%, 34.901961%)" fill-opacity="1" stroke-width="1.357972" stroke-linecap="butt" stroke-linejoin="miter" stroke="rgb(100%, 100%, 100%)" stroke-opacity="1" stroke-miterlimit="10" d="M 448.398438 289.539062 L 503.179688 289.539062 L 503.179688 283.410156 L 448.398438 283.410156 Z M 448.398438 289.539062 "/>
<g clip-path="url(#clip-21)">
<path fill="none" stroke-width="2.667446" stroke-linecap="butt" stroke-linejoin="round" stroke="rgb(0%, 0%, 0%)" stroke-opacity="1" stroke-miterlimit="10" d="M 481.464844 301.921875 L 481.464844 29.507812 "/>
</g>
<g fill="rgb(0%, 0%, 0%)" fill-opacity="1">
<use xlink:href="#glyph-0-0" x="375.890625" y="45.964844"/>
<use xlink:href="#glyph-0-1" x="382.842656" y="45.964844"/>
<use xlink:href="#glyph-0-2" x="389.172283" y="45.964844"/>
<use xlink:href="#glyph-0-3" x="394.862834" y="45.964844"/>
<use xlink:href="#glyph-0-4" x="398.024869" y="45.964844"/>
<use xlink:href="#glyph-0-2" x="401.186903" y="45.964844"/>
<use xlink:href="#glyph-0-3" x="406.877454" y="45.964844"/>
<use xlink:href="#glyph-0-5" x="410.039489" y="45.964844"/>
<use xlink:href="#glyph-0-3" x="416.369116" y="45.964844"/>
<use xlink:href="#glyph-0-6" x="419.531151" y="45.964844"/>
<use xlink:href="#glyph-0-4" x="422.693186" y="45.964844"/>
<use xlink:href="#glyph-0-7" x="425.85522" y="45.964844"/>
<use xlink:href="#glyph-0-8" x="432.184847" y="45.964844"/>
<use xlink:href="#glyph-0-2" x="438.514474" y="45.964844"/>
<use xlink:href="#glyph-0-1" x="444.205025" y="45.964844"/>
<use xlink:href="#glyph-0-9" x="450.534652" y="45.964844"/>
<use xlink:href="#glyph-0-10" x="454.324648" y="45.964844"/>
<use xlink:href="#glyph-0-11" x="460.015199" y="45.964844"/>
</g>
<g clip-path="url(#clip-22)">
<path fill="none" stroke-width="1.357972" stroke-linecap="round" stroke-linejoin="round" stroke="rgb(20%, 20%, 20%)" stroke-opacity="1" stroke-miterlimit="10" d="M 48.390625 301.921875 L 569.023438 301.921875 L 569.023438 29.511719 L 48.390625 29.511719 Z M 48.390625 301.921875 "/>
</g>
<g fill="rgb(30.196078%, 30.196078%, 30.196078%)" fill-opacity="1">
<use xlink:href="#glyph-1-0" x="35.886719" y="293.546875"/>
</g>
<g fill="rgb(30.196078%, 30.196078%, 30.196078%)" fill-opacity="1">
<use xlink:href="#glyph-1-1" x="23.429688" y="242.484375"/>
<use xlink:href="#glyph-1-0" x="29.658594" y="242.484375"/>
<use xlink:href="#glyph-1-0" x="35.8875" y="242.484375"/>
</g>
<g fill="rgb(30.196078%, 30.196078%, 30.196078%)" fill-opacity="1">
<use xlink:href="#glyph-1-2" x="23.429688" y="191.425781"/>
<use xlink:href="#glyph-1-0" x="29.658594" y="191.425781"/>
<use xlink:href="#glyph-1-0" x="35.8875" y="191.425781"/>
</g>
<g fill="rgb(30.196078%, 30.196078%, 30.196078%)" fill-opacity="1">
<use xlink:href="#glyph-1-3" x="23.429688" y="140.363281"/>
<use xlink:href="#glyph-1-0" x="29.658594" y="140.363281"/>
<use xlink:href="#glyph-1-0" x="35.8875" y="140.363281"/>
</g>
<g fill="rgb(30.196078%, 30.196078%, 30.196078%)" fill-opacity="1">
<use xlink:href="#glyph-1-4" x="23.429688" y="89.300781"/>
<use xlink:href="#glyph-1-0" x="29.658594" y="89.300781"/>
<use xlink:href="#glyph-1-0" x="35.8875" y="89.300781"/>
</g>
<g fill="rgb(30.196078%, 30.196078%, 30.196078%)" fill-opacity="1">
<use xlink:href="#glyph-1-5" x="23.429688" y="38.242188"/>
<use xlink:href="#glyph-1-0" x="29.658594" y="38.242188"/>
<use xlink:href="#glyph-1-0" x="35.8875" y="38.242188"/>
</g>
<path fill="none" stroke-width="1.357972" stroke-linecap="butt" stroke-linejoin="round" stroke="rgb(20%, 20%, 20%)" stroke-opacity="1" stroke-miterlimit="10" d="M 44.90625 289.539062 L 48.390625 289.539062 "/>
<path fill="none" stroke-width="1.357972" stroke-linecap="butt" stroke-linejoin="round" stroke="rgb(20%, 20%, 20%)" stroke-opacity="1" stroke-miterlimit="10" d="M 44.90625 238.476562 L 48.390625 238.476562 "/>
<path fill="none" stroke-width="1.357972" stroke-linecap="butt" stroke-linejoin="round" stroke="rgb(20%, 20%, 20%)" stroke-opacity="1" stroke-miterlimit="10" d="M 44.90625 187.414062 L 48.390625 187.414062 "/>
<path fill="none" stroke-width="1.357972" stroke-linecap="butt" stroke-linejoin="round" stroke="rgb(20%, 20%, 20%)" stroke-opacity="1" stroke-miterlimit="10" d="M 44.90625 136.355469 L 48.390625 136.355469 "/>
<path fill="none" stroke-width="1.357972" stroke-linecap="butt" stroke-linejoin="round" stroke="rgb(20%, 20%, 20%)" stroke-opacity="1" stroke-miterlimit="10" d="M 44.90625 85.292969 L 48.390625 85.292969 "/>
<path fill="none" stroke-width="1.357972" stroke-linecap="butt" stroke-linejoin="round" stroke="rgb(20%, 20%, 20%)" stroke-opacity="1" stroke-miterlimit="10" d="M 44.90625 34.230469 L 48.390625 34.230469 "/>
<path fill="none" stroke-width="1.357972" stroke-linecap="butt" stroke-linejoin="round" stroke="rgb(20%, 20%, 20%)" stroke-opacity="1" stroke-miterlimit="10" d="M 72.058594 305.40625 L 72.058594 301.921875 "/>
<path fill="none" stroke-width="1.357972" stroke-linecap="butt" stroke-linejoin="round" stroke="rgb(20%, 20%, 20%)" stroke-opacity="1" stroke-miterlimit="10" d="M 190.382812 305.40625 L 190.382812 301.921875 "/>
<path fill="none" stroke-width="1.357972" stroke-linecap="butt" stroke-linejoin="round" stroke="rgb(20%, 20%, 20%)" stroke-opacity="1" stroke-miterlimit="10" d="M 308.707031 305.40625 L 308.707031 301.921875 "/>
<path fill="none" stroke-width="1.357972" stroke-linecap="butt" stroke-linejoin="round" stroke="rgb(20%, 20%, 20%)" stroke-opacity="1" stroke-miterlimit="10" d="M 427.035156 305.40625 L 427.035156 301.921875 "/>
<path fill="none" stroke-width="1.357972" stroke-linecap="butt" stroke-linejoin="round" stroke="rgb(20%, 20%, 20%)" stroke-opacity="1" stroke-miterlimit="10" d="M 545.359375 305.40625 L 545.359375 301.921875 "/>
<g fill="rgb(30.196078%, 30.196078%, 30.196078%)" fill-opacity="1">
<use xlink:href="#glyph-1-6" x="62.410156" y="316.214844"/>
<use xlink:href="#glyph-1-0" x="66.139844" y="316.214844"/>
<use xlink:href="#glyph-1-7" x="72.36875" y="316.214844"/>
<use xlink:href="#glyph-1-4" x="75.480469" y="316.214844"/>
</g>
<g fill="rgb(30.196078%, 30.196078%, 30.196078%)" fill-opacity="1">
<use xlink:href="#glyph-1-6" x="180.734375" y="316.214844"/>
<use xlink:href="#glyph-1-0" x="184.464063" y="316.214844"/>
<use xlink:href="#glyph-1-7" x="190.692969" y="316.214844"/>
<use xlink:href="#glyph-1-2" x="193.804688" y="316.214844"/>
</g>
<g fill="rgb(30.196078%, 30.196078%, 30.196078%)" fill-opacity="1">
<use xlink:href="#glyph-1-0" x="300.921875" y="316.214844"/>
<use xlink:href="#glyph-1-7" x="307.150781" y="316.214844"/>
<use xlink:href="#glyph-1-0" x="310.2625" y="316.214844"/>
</g>
<g fill="rgb(30.196078%, 30.196078%, 30.196078%)" fill-opacity="1">
<use xlink:href="#glyph-1-0" x="419.25" y="316.214844"/>
<use xlink:href="#glyph-1-7" x="425.478906" y="316.214844"/>
<use xlink:href="#glyph-1-2" x="428.590625" y="316.214844"/>
</g>
<g fill="rgb(30.196078%, 30.196078%, 30.196078%)" fill-opacity="1">
<use xlink:href="#glyph-1-0" x="537.574219" y="316.214844"/>
<use xlink:href="#glyph-1-7" x="543.803125" y="316.214844"/>
<use xlink:href="#glyph-1-4" x="546.914844" y="316.214844"/>
</g>
<g fill="rgb(0%, 0%, 0%)" fill-opacity="1">
<use xlink:href="#glyph-2-0" x="136.746094" y="332.078125"/>
<use xlink:href="#glyph-2-1" x="146.856445" y="332.078125"/>
<use xlink:href="#glyph-2-2" x="149.966797" y="332.078125"/>
<use xlink:href="#glyph-2-2" x="153.856445" y="332.078125"/>
<use xlink:href="#glyph-2-3" x="157.746094" y="332.078125"/>
<use xlink:href="#glyph-2-4" x="165.532227" y="332.078125"/>
<use xlink:href="#glyph-2-5" x="170.194336" y="332.078125"/>
<use xlink:href="#glyph-2-6" x="177.980469" y="332.078125"/>
<use xlink:href="#glyph-2-7" x="185.766602" y="332.078125"/>
<use xlink:href="#glyph-2-5" x="192.766602" y="332.078125"/>
<use xlink:href="#glyph-2-8" x="200.552734" y="332.078125"/>
<use xlink:href="#glyph-2-9" x="204.442383" y="332.078125"/>
<use xlink:href="#glyph-2-10" x="212.228516" y="332.078125"/>
<use xlink:href="#glyph-2-6" x="220.014648" y="332.078125"/>
<use xlink:href="#glyph-2-11" x="227.800781" y="332.078125"/>
<use xlink:href="#glyph-2-8" x="234.800781" y="332.078125"/>
<use xlink:href="#glyph-2-12" x="238.69043" y="332.078125"/>
<use xlink:href="#glyph-2-5" x="241.800781" y="332.078125"/>
<use xlink:href="#glyph-2-8" x="249.586914" y="332.078125"/>
<use xlink:href="#glyph-2-13" x="253.476562" y="332.078125"/>
<use xlink:href="#glyph-2-10" x="257.366211" y="332.078125"/>
<use xlink:href="#glyph-2-14" x="265.152344" y="332.078125"/>
<use xlink:href="#glyph-2-15" x="272.938477" y="332.078125"/>
<use xlink:href="#glyph-2-8" x="279.938477" y="332.078125"/>
<use xlink:href="#glyph-2-9" x="283.828125" y="332.078125"/>
<use xlink:href="#glyph-2-5" x="291.614258" y="332.078125"/>
<use xlink:href="#glyph-2-8" x="299.400391" y="332.078125"/>
<use xlink:href="#glyph-2-16" x="303.290039" y="332.078125"/>
<use xlink:href="#glyph-2-4" x="311.076172" y="332.078125"/>
<use xlink:href="#glyph-2-17" x="315.738281" y="332.078125"/>
<use xlink:href="#glyph-2-18" x="323.524414" y="332.078125"/>
<use xlink:href="#glyph-2-17" x="335.186523" y="332.078125"/>
<use xlink:href="#glyph-2-13" x="342.972656" y="332.078125"/>
<use xlink:href="#glyph-2-1" x="346.862305" y="332.078125"/>
<use xlink:href="#glyph-2-17" x="349.972656" y="332.078125"/>
<use xlink:href="#glyph-2-6" x="357.758789" y="332.078125"/>
<use xlink:href="#glyph-2-8" x="365.544922" y="332.078125"/>
<use xlink:href="#glyph-2-19" x="369.43457" y="332.078125"/>
<use xlink:href="#glyph-2-20" x="374.09668" y="332.078125"/>
<use xlink:href="#glyph-2-17" x="381.882812" y="332.078125"/>
<use xlink:href="#glyph-2-18" x="389.668945" y="332.078125"/>
<use xlink:href="#glyph-2-18" x="401.331055" y="332.078125"/>
<use xlink:href="#glyph-2-5" x="412.993164" y="332.078125"/>
<use xlink:href="#glyph-2-8" x="420.779297" y="332.078125"/>
<use xlink:href="#glyph-2-21" x="424.668945" y="332.078125"/>
<use xlink:href="#glyph-2-8" x="429.331055" y="332.078125"/>
<use xlink:href="#glyph-2-2" x="433.220703" y="332.078125"/>
<use xlink:href="#glyph-2-5" x="437.110352" y="332.078125"/>
<use xlink:href="#glyph-2-18" x="444.896484" y="332.078125"/>
<use xlink:href="#glyph-2-18" x="456.558594" y="332.078125"/>
<use xlink:href="#glyph-2-5" x="468.220703" y="332.078125"/>
<use xlink:href="#glyph-2-22" x="476.006836" y="332.078125"/>
</g>
<g fill="rgb(0%, 0%, 0%)" fill-opacity="1">
<use xlink:href="#glyph-3-0" x="16.996094" y="187.113281"/>
<use xlink:href="#glyph-3-1" x="16.996094" y="177.775391"/>
<use xlink:href="#glyph-3-1" x="16.996094" y="173.885742"/>
<use xlink:href="#glyph-3-2" x="16.996094" y="169.996094"/>
<use xlink:href="#glyph-3-3" x="16.996094" y="162.209961"/>
<use xlink:href="#glyph-3-4" x="16.996094" y="155.209961"/>
<use xlink:href="#glyph-3-5" x="16.996094" y="151.320312"/>
<use xlink:href="#glyph-3-1" x="16.996094" y="148.209961"/>
</g>
<g fill="rgb(0%, 0%, 0%)" fill-opacity="1">
<use xlink:href="#glyph-4-0" x="48.390625" y="19"/>
<use xlink:href="#glyph-4-1" x="59.596094" y="19"/>
<use xlink:href="#glyph-4-2" x="63.328516" y="19"/>
<use xlink:href="#glyph-4-3" x="77.323047" y="19"/>
<use xlink:href="#glyph-4-4" x="86.666406" y="19"/>
<use xlink:href="#glyph-4-5" x="90.398828" y="19"/>
<use xlink:href="#glyph-4-6" x="99.742188" y="19"/>
<use xlink:href="#glyph-4-1" x="104.409766" y="19"/>
<use xlink:href="#glyph-4-7" x="108.142188" y="19"/>
<use xlink:href="#glyph-4-8" x="117.485547" y="19"/>
<use xlink:href="#glyph-4-9" x="126.828906" y="19"/>
<use xlink:href="#glyph-4-10" x="132.423438" y="19"/>
<use xlink:href="#glyph-4-5" x="143.628906" y="19"/>
<use xlink:href="#glyph-4-11" x="152.972266" y="19"/>
<use xlink:href="#glyph-4-12" x="161.372266" y="19"/>
<use xlink:href="#glyph-4-13" x="170.715625" y="19"/>
<use xlink:href="#glyph-4-14" x="180.058984" y="19"/>
<use xlink:href="#glyph-4-15" x="184.726563" y="19"/>
<use xlink:href="#glyph-4-3" x="196.858984" y="19"/>
<use xlink:href="#glyph-4-4" x="206.202344" y="19"/>
<use xlink:href="#glyph-4-4" x="209.934766" y="19"/>
<use xlink:href="#glyph-4-14" x="213.667188" y="19"/>
<use xlink:href="#glyph-4-16" x="218.334766" y="19"/>
<use xlink:href="#glyph-4-1" x="230.467188" y="19"/>
<use xlink:href="#glyph-4-11" x="234.199609" y="19"/>
<use xlink:href="#glyph-4-6" x="242.599609" y="19"/>
<use xlink:href="#glyph-4-17" x="247.267188" y="19"/>
<use xlink:href="#glyph-4-1" x="252.861719" y="19"/>
<use xlink:href="#glyph-4-18" x="256.594141" y="19"/>
<use xlink:href="#glyph-4-3" x="265.9375" y="19"/>
<use xlink:href="#glyph-4-6" x="275.280859" y="19"/>
<use xlink:href="#glyph-4-1" x="279.948438" y="19"/>
<use xlink:href="#glyph-4-7" x="283.680859" y="19"/>
<use xlink:href="#glyph-4-8" x="293.024219" y="19"/>
</g>
</svg>
